<?xml version="1.0" standalone="no"?>
<!DOCTYPE svg PUBLIC "-//W3C//DTD SVG 1.1//EN" "http://www.w3.org/Graphics/SVG/1.1/DTD/svg11.dtd" >
<svg>
<metadata>
Created by FontForge 20090622 at Tue Mar  3 17:08:56 2020
 By deploy user
&#194;&#169; 2015-2017 Apple Inc. All rights reserved.
</metadata>
<defs>
<font id="SFProText-Bold" horiz-adv-x="1800" >
  <font-face 
    font-family="SF Pro Text"
    font-weight="700"
    font-stretch="normal"
    units-per-em="2048"
    panose-1="0 0 8 0 0 0 0 0 0 0"
    ascent="1638"
    descent="-410"
    x-height="1103"
    cap-height="1443"
    bbox="-611 -570 2789 2229"
    underline-thickness="197"
    underline-position="-375"
    unicode-range="U+0020-U+1F189"
  />
<missing-glyph horiz-adv-x="2048" 
d="M100 -494v198h1848v-198h-1848zM100 -45v198h1848v-198h-1848zM100 404v199h1848v-199h-1848zM100 853v199h1848v-199h-1848zM100 1303v198h1848v-198h-1848zM100 1752v198h1848v-198h-1848z" />
    <glyph glyph-name="uni2460" unicode="&#x31;&#x20dd;" 
d="M1035 382h-201v510h-10l-157 -106v177l167 111h201v-692zM900 125q163 0 299 80t214 216.5t78 298.5t-78 298.5t-214 216.5t-299 80t-299 -80t-213.5 -216.5t-77.5 -298.5t77.5 -298.5t213.5 -216.5t299 -80zM900 -55q-159 0 -302.5 61t-247 164.5t-164.5 247t-61 302.5
t61 303t164.5 247.5t247 164.5t302.5 61t302.5 -61t247 -164.5t164.5 -247.5t61 -303t-61 -302.5t-164.5 -247t-247 -164.5t-302.5 -61z" />
    <glyph glyph-name="uni2461" unicode="&#x32;&#x20dd;" 
d="M816 845h-186v3q0 104 72.5 170.5t199.5 66.5q118 0 190.5 -57.5t72.5 -148.5q0 -55 -31.5 -103.5t-99.5 -111.5l-121 -114v-8h263v-161h-534v127l249 235q41 39 59 64.5t18 53.5q0 29 -21 47t-53 18q-37 0 -58 -22t-20 -56v-3zM900 125q163 0 299 80t214 216.5t78 298.5
t-78 298.5t-214 216.5t-299 80t-299 -80t-213.5 -216.5t-77.5 -298.5t77.5 -298.5t213.5 -216.5t299 -80zM900 -55q-159 0 -302.5 61t-247 164.5t-164.5 247t-61 302.5t61 303t164.5 247.5t247 164.5t302.5 61t302.5 -61t247 -164.5t164.5 -247.5t61 -303t-61 -302.5
t-164.5 -247t-247 -164.5t-302.5 -61z" />
    <glyph glyph-name="uni2462" unicode="&#x33;&#x20dd;" 
d="M825 659v149h70q37 0 60.5 19t23.5 50q0 28 -23.5 45t-60.5 17q-40 0 -64.5 -21.5t-26.5 -53.5h-183q4 104 75.5 162.5t201.5 58.5q123 0 196.5 -51t75.5 -134q1 -57 -40.5 -99.5t-91.5 -49.5v-10q60 -5 104.5 -49t45.5 -114q1 -95 -80 -151t-212 -56q-129 0 -205 61.5
t-78 160.5h183q2 -32 29 -52t70 -21q45 0 72 19.5t27 50.5q-1 31 -27 50t-70 19h-72zM900 125q163 0 299 80t214 216.5t78 298.5t-78 298.5t-214 216.5t-299 80t-299 -80t-213.5 -216.5t-77.5 -298.5t77.5 -298.5t213.5 -216.5t299 -80zM900 -55q-159 0 -302.5 61
t-247 164.5t-164.5 247t-61 302.5t61 303t164.5 247.5t247 164.5t302.5 61t302.5 -61t247 -164.5t164.5 -247.5t61 -303t-61 -302.5t-164.5 -247t-247 -164.5t-302.5 -61z" />
    <glyph glyph-name="uni2463" unicode="&#x34;&#x20dd;" 
d="M824 1074h271v-428h95v-152h-95v-112h-168v112h-346v155q75 145 243 425zM753 646h174v287h-14q-116 -199 -160 -285v-2zM900 125q163 0 299 80t214 216.5t78 298.5t-78 298.5t-214 216.5t-299 80t-299 -80t-213.5 -216.5t-77.5 -298.5t77.5 -298.5t213.5 -216.5t299 -80
zM900 -55q-159 0 -302.5 61t-247 164.5t-164.5 247t-61 302.5t61 303t164.5 247.5t247 164.5t302.5 61t302.5 -61t247 -164.5t164.5 -247.5t61 -303t-61 -302.5t-164.5 -247t-247 -164.5t-302.5 -61z" />
    <glyph glyph-name="uni2464" unicode="&#x35;&#x20dd;" 
d="M631 591h185q6 -30 33 -46.5t62 -16.5q40 0 68.5 26.5t28.5 68.5q0 39 -28.5 64.5t-69.5 25.5q-31 0 -54 -13.5t-34 -33.5h-177l27 414h481v-147h-330l-12 -147h9q15 27 55.5 46t94.5 19q101 0 165 -60t64 -162q0 -116 -78.5 -184.5t-211.5 -68.5q-121 0 -198.5 60.5
t-79.5 154.5zM900 125q163 0 299 80t214 216.5t78 298.5t-78 298.5t-214 216.5t-299 80t-299 -80t-213.5 -216.5t-77.5 -298.5t77.5 -298.5t213.5 -216.5t299 -80zM900 -55q-159 0 -302.5 61t-247 164.5t-164.5 247t-61 302.5t61 303t164.5 247.5t247 164.5t302.5 61
t302.5 -61t247 -164.5t164.5 -247.5t61 -303t-61 -302.5t-164.5 -247t-247 -164.5t-302.5 -61z" />
    <glyph glyph-name="uni2465" unicode="&#x36;&#x20dd;" 
d="M1190 631q0 -117 -79 -189t-208 -72q-131 0 -213 73.5t-82 191.5q0 69 22.5 131t73.5 136q29 45 134 173h232l-99.5 -117.5t-80.5 -103.5q-22 -33 -27 -43h9q48 33 110 33q89 0 148.5 -61t59.5 -152zM806 620q0 -40 27 -65.5t69 -25.5t69 25.5t27 65.5q0 39 -27 65
t-69 26t-69 -26t-27 -65zM900 125q163 0 299 80t214 216.5t78 298.5t-78 298.5t-214 216.5t-299 80t-299 -80t-213.5 -216.5t-77.5 -298.5t77.5 -298.5t213.5 -216.5t299 -80zM900 -55q-159 0 -302.5 61t-247 164.5t-164.5 247t-61 302.5t61 303t164.5 247.5t247 164.5
t302.5 61t302.5 -61t247 -164.5t164.5 -247.5t61 -303t-61 -302.5t-164.5 -247t-247 -164.5t-302.5 -61z" />
    <glyph glyph-name="uni2466" unicode="&#x37;&#x20dd;" 
d="M638 1070h543v-162l-274 -531h-213l284 525v7h-340v161zM900 125q163 0 299 80t214 216.5t78 298.5t-78 298.5t-214 216.5t-299 80t-299 -80t-213.5 -216.5t-77.5 -298.5t77.5 -298.5t213.5 -216.5t299 -80zM900 -55q-159 0 -302.5 61t-247 164.5t-164.5 247t-61 302.5
t61 303t164.5 247.5t247 164.5t302.5 61t302.5 -61t247 -164.5t164.5 -247.5t61 -303t-61 -302.5t-164.5 -247t-247 -164.5t-302.5 -61z" />
    <glyph glyph-name="uni2467" unicode="&#x38;&#x20dd;" 
d="M900 506q44 0 73 24.5t29 61.5q0 38 -28.5 63t-73.5 25q-44 0 -73 -25t-29 -63q0 -37 29 -61.5t73 -24.5zM900 803q37 0 60.5 21t23.5 53q0 31 -24 52t-60 21t-60 -21t-24 -52q0 -32 24 -53t60 -21zM899 370q-139 0 -221.5 56t-82.5 151q0 66 42.5 110.5t113.5 55.5v9
q-127 37 -127 147q0 84 75.5 135t200.5 51t200.5 -51t75.5 -135q0 -112 -127 -147v-9q71 -11 113.5 -55.5t42.5 -110.5q0 -95 -83 -151t-223 -56zM900 125q163 0 299 80t214 216.5t78 298.5t-78 298.5t-214 216.5t-299 80t-299 -80t-213.5 -216.5t-77.5 -298.5t77.5 -298.5
t213.5 -216.5t299 -80zM900 -55q-159 0 -302.5 61t-247 164.5t-164.5 247t-61 302.5t61 303t164.5 247.5t247 164.5t302.5 61t302.5 -61t247 -164.5t164.5 -247.5t61 -303t-61 -302.5t-164.5 -247t-247 -164.5t-302.5 -61z" />
    <glyph glyph-name="uni2468" unicode="&#x39;&#x20dd;" 
d="M609 824q0 118 78.5 190t208.5 72q131 0 213 -73.5t82 -191.5q0 -130 -97 -267q-26 -43 -133 -173h-232q139 162 180 221q23 34 27 42l-9 1q-46 -33 -110 -33q-89 0 -148.5 61t-59.5 151zM993 836q0 39 -27 65t-69 26t-69 -26t-27 -65t27 -65t69 -26t69 26t27 65z
M900 125q163 0 299 80t214 216.5t78 298.5t-78 298.5t-214 216.5t-299 80t-299 -80t-213.5 -216.5t-77.5 -298.5t77.5 -298.5t213.5 -216.5t299 -80zM900 -55q-159 0 -302.5 61t-247 164.5t-164.5 247t-61 302.5t61 303t164.5 247.5t247 164.5t302.5 61t302.5 -61
t247 -164.5t164.5 -247.5t61 -303t-61 -302.5t-164.5 -247t-247 -164.5t-302.5 -61z" />
    <glyph glyph-name="uni24B6" unicode="A&#x20dd;" 
d="M824 687h153l-69 240h-15zM751 407h-197l226 693h241l225 -693h-196l-40 135h-220zM900 125q163 0 299 80t214 216.5t78 298.5t-78 298.5t-214 216.5t-299 80t-299 -80t-213.5 -216.5t-77.5 -298.5t77.5 -298.5t213.5 -216.5t299 -80zM900 -55q-159 0 -302.5 61
t-247 164.5t-164.5 247t-61 302.5t61 303t164.5 247.5t247 164.5t302.5 61t302.5 -61t247 -164.5t164.5 -247.5t61 -303t-61 -302.5t-164.5 -247t-247 -164.5t-302.5 -61z" />
    <glyph glyph-name="uni24B7" unicode="B&#x20dd;" 
d="M631 382v692h343q100 0 158 -45.5t58 -124.5q0 -59 -36 -99t-96 -51v-9q75 -8 119 -53t44 -119q0 -86 -67 -138.5t-173 -52.5h-350zM817 944v-148h79q109 0 109 76q0 34 -24 53t-65 19h-99zM817 683v-164h87q122 0 122 82q0 38 -27.5 60t-76.5 22h-105zM900 125
q163 0 299 80t214 216.5t78 298.5t-78 298.5t-214 216.5t-299 80t-299 -80t-213.5 -216.5t-77.5 -298.5t77.5 -298.5t213.5 -216.5t299 -80zM900 -55q-159 0 -302.5 61t-247 164.5t-164.5 247t-61 302.5t61 303t164.5 247.5t247 164.5t302.5 61t302.5 -61t247 -164.5
t164.5 -247.5t61 -303t-61 -302.5t-164.5 -247t-247 -164.5t-302.5 -61z" />
    <glyph glyph-name="uni24B8" unicode="C&#x20dd;" 
d="M1030 636h186q-9 -119 -95.5 -192.5t-220.5 -73.5q-148 0 -243 96.5t-95 260.5t94.5 261t243.5 97q136 0 222.5 -74.5t94.5 -194.5h-185q-4 45 -40.5 74.5t-88.5 29.5q-65 0 -104 -51.5t-39 -141.5t39 -141t104 -51q50 0 86.5 29t40.5 72zM900 125q163 0 299 80
t214 216.5t78 298.5t-78 298.5t-214 216.5t-299 80t-299 -80t-213.5 -216.5t-77.5 -298.5t77.5 -298.5t213.5 -216.5t299 -80zM900 -55q-159 0 -302.5 61t-247 164.5t-164.5 247t-61 302.5t61 303t164.5 247.5t247 164.5t302.5 61t302.5 -61t247 -164.5t164.5 -247.5
t61 -303t-61 -302.5t-164.5 -247t-247 -164.5t-302.5 -61z" />
    <glyph glyph-name="uni24B9" unicode="D&#x20dd;" 
d="M630 1074h298q159 0 241.5 -89t82.5 -257t-82.5 -257t-241.5 -89h-298v692zM822 918v-380h74q81 0 118 45.5t37 143.5q0 99 -37 145t-118 46h-74zM900 125q163 0 299 80t214 216.5t78 298.5t-78 298.5t-214 216.5t-299 80t-299 -80t-213.5 -216.5t-77.5 -298.5
t77.5 -298.5t213.5 -216.5t299 -80zM900 -55q-159 0 -302.5 61t-247 164.5t-164.5 247t-61 302.5t61 303t164.5 247.5t247 164.5t302.5 61t302.5 -61t247 -164.5t164.5 -247.5t61 -303t-61 -302.5t-164.5 -247t-247 -164.5t-302.5 -61z" />
    <glyph glyph-name="uni24BA" unicode="E&#x20dd;" 
d="M1158 536v-154h-495v692h495v-154h-306v-123h287v-133h-287v-128h306zM900 125q163 0 299 80t214 216.5t78 298.5t-78 298.5t-214 216.5t-299 80t-299 -80t-213.5 -216.5t-77.5 -298.5t77.5 -298.5t213.5 -216.5t299 -80zM900 -55q-159 0 -302.5 61t-247 164.5
t-164.5 247t-61 302.5t61 303t164.5 247.5t247 164.5t302.5 61t302.5 -61t247 -164.5t164.5 -247.5t61 -303t-61 -302.5t-164.5 -247t-247 -164.5t-302.5 -61z" />
    <glyph glyph-name="uni24BB" unicode="F&#x20dd;" 
d="M878 382h-198v692h493v-156h-295v-133h268v-156h-268v-247zM900 125q163 0 299 80t214 216.5t78 298.5t-78 298.5t-214 216.5t-299 80t-299 -80t-213.5 -216.5t-77.5 -298.5t77.5 -298.5t213.5 -216.5t299 -80zM900 -55q-159 0 -302.5 61t-247 164.5t-164.5 247
t-61 302.5t61 303t164.5 247.5t247 164.5t302.5 61t302.5 -61t247 -164.5t164.5 -247.5t61 -303t-61 -302.5t-164.5 -247t-247 -164.5t-302.5 -61z" />
    <glyph glyph-name="uni24BC" unicode="G&#x20dd;" 
d="M1033 613v28h-127v125h309v-121q0 -120 -84.5 -197.5t-229.5 -77.5q-152 0 -245.5 98.5t-93.5 258.5t93.5 259t245.5 99q128 0 215 -67t101 -178h-190q-5 41 -39 66t-84 25q-65 0 -104.5 -55.5t-39.5 -148.5t40 -150.5t104 -57.5q61 0 95 26t34 68zM900 125q163 0 299 80
t214 216.5t78 298.5t-78 298.5t-214 216.5t-299 80t-299 -80t-213.5 -216.5t-77.5 -298.5t77.5 -298.5t213.5 -216.5t299 -80zM900 -55q-159 0 -302.5 61t-247 164.5t-164.5 247t-61 302.5t61 303t164.5 247.5t247 164.5t302.5 61t302.5 -61t247 -164.5t164.5 -247.5
t61 -303t-61 -302.5t-164.5 -247t-247 -164.5t-302.5 -61z" />
    <glyph glyph-name="uni24BD" unicode="H&#x20dd;" 
d="M1210 382h-187v265h-245v-265h-187v692h187v-263h245v263h187v-692zM900 125q163 0 299 80t214 216.5t78 298.5t-78 298.5t-214 216.5t-299 80t-299 -80t-213.5 -216.5t-77.5 -298.5t77.5 -298.5t213.5 -216.5t299 -80zM900 -55q-159 0 -302.5 61t-247 164.5t-164.5 247
t-61 302.5t61 303t164.5 247.5t247 164.5t302.5 61t302.5 -61t247 -164.5t164.5 -247.5t61 -303t-61 -302.5t-164.5 -247t-247 -164.5t-302.5 -61z" />
    <glyph glyph-name="uni24BE" unicode="I&#x20dd;" 
d="M1007 382h-214v692h214v-692zM900 125q163 0 299 80t214 216.5t78 298.5t-78 298.5t-214 216.5t-299 80t-299 -80t-213.5 -216.5t-77.5 -298.5t77.5 -298.5t213.5 -216.5t299 -80zM900 -55q-159 0 -302.5 61t-247 164.5t-164.5 247t-61 302.5t61 303t164.5 247.5
t247 164.5t302.5 61t302.5 -61t247 -164.5t164.5 -247.5t61 -303t-61 -302.5t-164.5 -247t-247 -164.5t-302.5 -61z" />
    <glyph glyph-name="uni24BF" unicode="J&#x20dd;" 
d="M602 621h194q0 -39 19.5 -59.5t54.5 -20.5q73 0 73 89v433h201v-437q0 -125 -72 -196t-198 -71t-199 72t-73 190zM900 125q163 0 299 80t214 216.5t78 298.5t-78 298.5t-214 216.5t-299 80t-299 -80t-213.5 -216.5t-77.5 -298.5t77.5 -298.5t213.5 -216.5t299 -80z
M900 -55q-159 0 -302.5 61t-247 164.5t-164.5 247t-61 302.5t61 303t164.5 247.5t247 164.5t302.5 61t302.5 -61t247 -164.5t164.5 -247.5t61 -303t-61 -302.5t-164.5 -247t-247 -164.5t-302.5 -61z" />
    <glyph glyph-name="uni24C0" unicode="K&#x20dd;" 
d="M1234 1074l-229 -314l235 -378h-225l-158 254l-64 -74v-180h-182v692h182v-274h14l214 274h213zM900 125q163 0 299 80t214 216.5t78 298.5t-78 298.5t-214 216.5t-299 80t-299 -80t-213.5 -216.5t-77.5 -298.5t77.5 -298.5t213.5 -216.5t299 -80zM900 -55
q-159 0 -302.5 61t-247 164.5t-164.5 247t-61 302.5t61 303t164.5 247.5t247 164.5t302.5 61t302.5 -61t247 -164.5t164.5 -247.5t61 -303t-61 -302.5t-164.5 -247t-247 -164.5t-302.5 -61z" />
    <glyph glyph-name="uni24C1" unicode="L&#x20dd;" 
d="M1182 563v-170h-488v692h204v-522h284zM900 125q163 0 299 80t214 216.5t78 298.5t-78 298.5t-214 216.5t-299 80t-299 -80t-213.5 -216.5t-77.5 -298.5t77.5 -298.5t213.5 -216.5t299 -80zM900 -55q-159 0 -302.5 61t-247 164.5t-164.5 247t-61 302.5t61 303
t164.5 247.5t247 164.5t302.5 61t302.5 -61t247 -164.5t164.5 -247.5t61 -303t-61 -302.5t-164.5 -247t-247 -164.5t-302.5 -61z" />
    <glyph glyph-name="uni24C2" unicode="M&#x20dd;" 
d="M698 382h-151v692h190l162 -448h5l162 448h189v-692h-152v420h-15l-140 -381h-96l-139 381h-15v-420zM900 125q163 0 299 80t214 216.5t78 298.5t-78 298.5t-214 216.5t-299 80t-299 -80t-213.5 -216.5t-77.5 -298.5t77.5 -298.5t213.5 -216.5t299 -80zM900 -55
q-159 0 -302.5 61t-247 164.5t-164.5 247t-61 302.5t61 303t164.5 247.5t247 164.5t302.5 61t302.5 -61t247 -164.5t164.5 -247.5t61 -303t-61 -302.5t-164.5 -247t-247 -164.5t-302.5 -61z" />
    <glyph glyph-name="uni24C3" unicode="N&#x20dd;" 
d="M769 382h-171v692h144l276 -379h14v379h170v-692h-142l-278 384h-13v-384zM900 125q163 0 299 80t214 216.5t78 298.5t-78 298.5t-214 216.5t-299 80t-299 -80t-213.5 -216.5t-77.5 -298.5t77.5 -298.5t213.5 -216.5t299 -80zM900 -55q-159 0 -302.5 61t-247 164.5
t-164.5 247t-61 302.5t61 303t164.5 247.5t247 164.5t302.5 61t302.5 -61t247 -164.5t164.5 -247.5t61 -303t-61 -302.5t-164.5 -247t-247 -164.5t-302.5 -61z" />
    <glyph glyph-name="uni24C4" unicode="O&#x20dd;" 
d="M900 535q62 0 101.5 50t39.5 142q0 93 -39.5 143t-101.5 50t-101.5 -50t-39.5 -143q0 -92 39.5 -142t101.5 -50zM900 370q-147 0 -243 95.5t-96 261.5q0 167 96 262.5t243 95.5t243 -95.5t96 -262.5q0 -166 -96 -261.5t-243 -95.5zM900 125q163 0 299 80t214 216.5
t78 298.5t-78 298.5t-214 216.5t-299 80t-299 -80t-213.5 -216.5t-77.5 -298.5t77.5 -298.5t213.5 -216.5t299 -80zM900 -55q-159 0 -302.5 61t-247 164.5t-164.5 247t-61 302.5t61 303t164.5 247.5t247 164.5t302.5 61t302.5 -61t247 -164.5t164.5 -247.5t61 -303
t-61 -302.5t-164.5 -247t-247 -164.5t-302.5 -61z" />
    <glyph glyph-name="uni24C5" unicode="P&#x20dd;" 
d="M972 1074q118 0 188 -69.5t70 -183.5q0 -113 -70 -181t-190 -68h-111v-190h-202v692h315zM1035 821q0 100 -98 100h-89v-199h89q98 0 98 99zM900 125q163 0 299 80t214 216.5t78 298.5t-78 298.5t-214 216.5t-299 80t-299 -80t-213.5 -216.5t-77.5 -298.5t77.5 -298.5
t213.5 -216.5t299 -80zM900 -55q-159 0 -302.5 61t-247 164.5t-164.5 247t-61 302.5t61 303t164.5 247.5t247 164.5t302.5 61t302.5 -61t247 -164.5t164.5 -247.5t61 -303t-61 -302.5t-164.5 -247t-247 -164.5t-302.5 -61z" />
    <glyph glyph-name="uni24C6" unicode="Q&#x20dd;" 
d="M1219 322h-190l-35 60q-44 -12 -94 -12q-147 0 -243 95.5t-96 261.5q0 167 96 262.5t243 95.5t243 -95.5t96 -262.5q0 -177 -111 -275zM900 535q18 0 31 4l-54 96h110l22 -27q32 46 32 119q0 93 -39.5 143t-101.5 50t-101.5 -50t-39.5 -143q0 -92 39.5 -142t101.5 -50z
M900 125q163 0 299 80t214 216.5t78 298.5t-78 298.5t-214 216.5t-299 80t-299 -80t-213.5 -216.5t-77.5 -298.5t77.5 -298.5t213.5 -216.5t299 -80zM900 -55q-159 0 -302.5 61t-247 164.5t-164.5 247t-61 302.5t61 303t164.5 247.5t247 164.5t302.5 61t302.5 -61
t247 -164.5t164.5 -247.5t61 -303t-61 -302.5t-164.5 -247t-247 -164.5t-302.5 -61z" />
    <glyph glyph-name="uni24C7" unicode="R&#x20dd;" 
d="M936 1074q131 0 203 -59t72 -166q0 -71 -37 -122t-98 -71l149 -274h-208l-117 238h-93v-238h-183v692h312zM807 754h105q47 0 73.5 21.5t26.5 62.5q0 42 -26 64.5t-72 22.5h-107v-171zM900 125q163 0 299 80t214 216.5t78 298.5t-78 298.5t-214 216.5t-299 80t-299 -80
t-213.5 -216.5t-77.5 -298.5t77.5 -298.5t213.5 -216.5t299 -80zM900 -55q-159 0 -302.5 61t-247 164.5t-164.5 247t-61 302.5t61 303t164.5 247.5t247 164.5t302.5 61t302.5 -61t247 -164.5t164.5 -247.5t61 -303t-61 -302.5t-164.5 -247t-247 -164.5t-302.5 -61z" />
    <glyph glyph-name="uni24C8" unicode="S&#x20dd;" 
d="M601 585h190q5 -32 35.5 -50.5t78.5 -18.5q49 0 78 18.5t29 49.5q0 25 -23.5 39t-85.5 25l-90 16q-97 16 -148 67.5t-51 131.5q0 100 78.5 161t208.5 61q122 0 200 -57t85 -152h-184q-5 31 -31.5 48.5t-69.5 17.5t-69 -17.5t-26 -46.5q0 -46 99 -61l97 -17
q198 -34 198 -199q0 -106 -82 -168t-220 -62q-134 0 -213 57t-84 157zM900 125q163 0 299 80t214 216.5t78 298.5t-78 298.5t-214 216.5t-299 80t-299 -80t-213.5 -216.5t-77.5 -298.5t77.5 -298.5t213.5 -216.5t299 -80zM900 -55q-159 0 -302.5 61t-247 164.5t-164.5 247
t-61 302.5t61 303t164.5 247.5t247 164.5t302.5 61t302.5 -61t247 -164.5t164.5 -247.5t61 -303t-61 -302.5t-164.5 -247t-247 -164.5t-302.5 -61z" />
    <glyph glyph-name="uni24C9" unicode="T&#x20dd;" 
d="M1002 359h-204v526h-195v167h594v-167h-195v-526zM900 125q163 0 299 80t214 216.5t78 298.5t-78 298.5t-214 216.5t-299 80t-299 -80t-213.5 -216.5t-77.5 -298.5t77.5 -298.5t213.5 -216.5t299 -80zM900 -55q-159 0 -302.5 61t-247 164.5t-164.5 247t-61 302.5t61 303
t164.5 247.5t247 164.5t302.5 61t302.5 -61t247 -164.5t164.5 -247.5t61 -303t-61 -302.5t-164.5 -247t-247 -164.5t-302.5 -61z" />
    <glyph glyph-name="uni24CA" unicode="U&#x20dd;" 
d="M900 512q51 0 81 28t30 76v436h196v-454q0 -109 -84.5 -180t-222.5 -71q-137 0 -221.5 71t-84.5 180v454h195v-436q0 -48 30.5 -76t80.5 -28zM900 125q163 0 299 80t214 216.5t78 298.5t-78 298.5t-214 216.5t-299 80t-299 -80t-213.5 -216.5t-77.5 -298.5t77.5 -298.5
t213.5 -216.5t299 -80zM900 -55q-159 0 -302.5 61t-247 164.5t-164.5 247t-61 302.5t61 303t164.5 247.5t247 164.5t302.5 61t302.5 -61t247 -164.5t164.5 -247.5t61 -303t-61 -302.5t-164.5 -247t-247 -164.5t-302.5 -61z" />
    <glyph glyph-name="uni24CB" unicode="V&#x20dd;" 
d="M767 354l-213 692h221l120 -496h11l120 496h220l-213 -692h-266zM900 125q163 0 299 80t214 216.5t78 298.5t-78 298.5t-214 216.5t-299 80t-299 -80t-213.5 -216.5t-77.5 -298.5t77.5 -298.5t213.5 -216.5t299 -80zM900 -55q-159 0 -302.5 61t-247 164.5t-164.5 247
t-61 302.5t61 303t164.5 247.5t247 164.5t302.5 61t302.5 -61t247 -164.5t164.5 -247.5t61 -303t-61 -302.5t-164.5 -247t-247 -164.5t-302.5 -61z" />
    <glyph glyph-name="uni24CC" unicode="W&#x20dd;" 
d="M897 783l-104 -424h-169l-162 693h179l81 -462h9l101 462h137l101 -462h9l81 462h178l-161 -693h-169l-105 424h-6zM900 125q163 0 299 80t214 216.5t78 298.5t-78 298.5t-214 216.5t-299 80t-299 -80t-213.5 -216.5t-77.5 -298.5t77.5 -298.5t213.5 -216.5t299 -80z
M900 -55q-159 0 -302.5 61t-247 164.5t-164.5 247t-61 302.5t61 303t164.5 247.5t247 164.5t302.5 61t302.5 -61t247 -164.5t164.5 -247.5t61 -303t-61 -302.5t-164.5 -247t-247 -164.5t-302.5 -61z" />
    <glyph glyph-name="uni24CD" unicode="X&#x20dd;" 
d="M1234 1074l-216 -346l215 -346h-212l-120 222h-10l-119 -222h-216l219 347l-218 345h222l117 -222h10l118 222h210zM900 125q163 0 299 80t214 216.5t78 298.5t-78 298.5t-214 216.5t-299 80t-299 -80t-213.5 -216.5t-77.5 -298.5t77.5 -298.5t213.5 -216.5t299 -80z
M900 -55q-159 0 -302.5 61t-247 164.5t-164.5 247t-61 302.5t61 303t164.5 247.5t247 164.5t302.5 61t302.5 -61t247 -164.5t164.5 -247.5t61 -303t-61 -302.5t-164.5 -247t-247 -164.5t-302.5 -61z" />
    <glyph glyph-name="uni24CE" unicode="Y&#x20dd;" 
d="M1005 366h-209v224l-238 468h220l120 -273h6l120 273h218l-237 -467v-225zM900 125q163 0 299 80t214 216.5t78 298.5t-78 298.5t-214 216.5t-299 80t-299 -80t-213.5 -216.5t-77.5 -298.5t77.5 -298.5t213.5 -216.5t299 -80zM900 -55q-159 0 -302.5 61t-247 164.5
t-164.5 247t-61 302.5t61 303t164.5 247.5t247 164.5t302.5 61t302.5 -61t247 -164.5t164.5 -247.5t61 -303t-61 -302.5t-164.5 -247t-247 -164.5t-302.5 -61z" />
    <glyph glyph-name="uni24CF" unicode="Z&#x20dd;" 
d="M627 382v130l298 391v10h-297v161h540v-130l-298 -391v-10h309v-161h-552zM900 125q163 0 299 80t214 216.5t78 298.5t-78 298.5t-214 216.5t-299 80t-299 -80t-213.5 -216.5t-77.5 -298.5t77.5 -298.5t213.5 -216.5t299 -80zM900 -55q-159 0 -302.5 61t-247 164.5
t-164.5 247t-61 302.5t61 303t164.5 247.5t247 164.5t302.5 61t302.5 -61t247 -164.5t164.5 -247.5t61 -303t-61 -302.5t-164.5 -247t-247 -164.5t-302.5 -61z" />
    <glyph glyph-name="uni24EA" unicode="&#x23;&#x20dd;" 
d="M900 529q48 0 75.5 49t27.5 149q0 197 -103 197q-102 0 -102 -197q0 -198 102 -198zM898 370q-132 0 -211 95.5t-79 261.5t79 261.5t211 95.5t213 -95.5t81 -261.5t-81 -261.5t-213 -95.5zM900 125q163 0 299 80t214 216.5t78 298.5t-78 298.5t-214 216.5t-299 80
t-299 -80t-213.5 -216.5t-77.5 -298.5t77.5 -298.5t213.5 -216.5t299 -80zM900 -55q-159 0 -302.5 61t-247 164.5t-164.5 247t-61 302.5t61 303t164.5 247.5t247 164.5t302.5 61t302.5 -61t247 -164.5t164.5 -247.5t61 -303t-61 -302.5t-164.5 -247t-247 -164.5t-302.5 -61z
" />
    <glyph glyph-name="uni24FF" unicode="&#x30;&#x20dd;&#x25cf;" 
d="M898 506q-105 0 -105 221q0 220 105 220t105 -220q0 -221 -105 -221zM896 338q147 0 234.5 104t87.5 285t-87.5 285t-234.5 104q-146 0 -231.5 -104t-85.5 -285t85.5 -285t231.5 -104zM900 -53q-157 0 -300 61.5t-247 165.5t-165.5 247.5t-61.5 300.5q0 209 104 387.5
t282.5 282.5t387.5 104q157 0 300.5 -61.5t247.5 -165.5t165.5 -247t61.5 -300t-61.5 -300.5t-165.5 -247.5t-247.5 -165.5t-300.5 -61.5z" />
    <glyph glyph-name="uni278A" unicode="&#x31;&#x20dd;&#x25cf;" 
d="M1049 351v752h-221l-183 -121v-200l176 117h5v-548h223zM900 -53q-157 0 -300 61.5t-247 165.5t-165.5 247.5t-61.5 300.5q0 209 104 387.5t282.5 282.5t387.5 104q157 0 300.5 -61.5t247.5 -165.5t165.5 -247t61.5 -300t-61.5 -300.5t-165.5 -247.5t-247.5 -165.5
t-300.5 -61.5z" />
    <glyph glyph-name="uni278B" unicode="&#x32;&#x20dd;&#x25cf;" 
d="M802 849v5q0 42 23 68t65 26q36 0 59.5 -20t23.5 -51q0 -34 -21.5 -65t-74.5 -81l-263 -240v-141h583v180h-294v3l139 127q72 66 105.5 119t33.5 116q0 94 -79 157t-200 63q-140 0 -220.5 -73.5t-80.5 -187.5v-5h201zM900 -53q-157 0 -300 61.5t-247 165.5t-165.5 247.5
t-61.5 300.5q0 209 104 387.5t282.5 282.5t387.5 104q157 0 300.5 -61.5t247.5 -165.5t165.5 -247t61.5 -300t-61.5 -300.5t-165.5 -247.5t-247.5 -165.5t-300.5 -61.5z" />
    <glyph glyph-name="uni278C" unicode="&#x33;&#x20dd;&#x25cf;" 
d="M812 657h82q47 0 75.5 -21t29.5 -56q0 -34 -29 -55.5t-77 -21.5q-47 1 -76.5 23t-32.5 57h-201q2 -107 86.5 -175.5t223.5 -68.5q141 0 230 62t88 166q-1 74 -49.5 122.5t-111.5 54.5v6q54 8 97.5 54t42.5 108q-2 91 -82.5 147t-212.5 56q-143 0 -221 -64t-83 -179h203
q2 37 27.5 59t69.5 22q39 0 64 -19.5t26 -50.5q0 -32 -25.5 -52t-66.5 -20h-77v-154zM900 -53q-157 0 -300 61.5t-247 165.5t-165.5 247.5t-61.5 300.5q0 209 104 387.5t282.5 282.5t387.5 104q157 0 300.5 -61.5t247.5 -165.5t165.5 -247t61.5 -300t-61.5 -300.5
t-165.5 -247.5t-247.5 -165.5t-300.5 -61.5z" />
    <glyph glyph-name="uni278D" unicode="&#x34;&#x20dd;&#x25cf;" 
d="M813 1103q-175 -284 -263 -461v-170h372v-121h189v121h102v170h-102v461h-298zM743 643q12 24 170 299h9v-300h-179v1zM900 -53q-157 0 -300 61.5t-247 165.5t-165.5 247.5t-61.5 300.5q0 209 104 387.5t282.5 282.5t387.5 104q157 0 300.5 -61.5t247.5 -165.5
t165.5 -247t61.5 -300t-61.5 -300.5t-165.5 -247.5t-247.5 -165.5t-300.5 -61.5z" />
    <glyph glyph-name="uni278E" unicode="&#x35;&#x20dd;&#x25cf;" 
d="M602 579q2 -105 85.5 -170t217.5 -65q144 0 230 75t86 202q0 111 -70.5 176.5t-180.5 65.5q-58 0 -101 -20t-61 -49h-5l12 156h356v159h-525l-29 -448h189q12 23 38.5 39t62.5 16q47 0 77.5 -28.5t30.5 -74.5q0 -48 -31.5 -77t-75.5 -29q-41 0 -71 19t-37 53h-198z
M900 -53q-157 0 -300 61.5t-247 165.5t-165.5 247.5t-61.5 300.5q0 209 104 387.5t282.5 282.5t387.5 104q157 0 300.5 -61.5t247.5 -165.5t165.5 -247t61.5 -300t-61.5 -300.5t-165.5 -247.5t-247.5 -165.5t-300.5 -61.5z" />
    <glyph glyph-name="uni278F" unicode="&#x36;&#x20dd;&#x25cf;" 
d="M1215 623q0 98 -64.5 163.5t-161.5 65.5q-68 0 -120 -35l-10 1q14 23 29 44q74 101 196 241h-251q-117 -143 -149 -194q-100 -146 -100 -283q0 -128 88.5 -208t230.5 -80q141 0 226.5 78t85.5 207zM791 609q0 46 31.5 76.5t79.5 30.5q49 0 80.5 -30.5t31.5 -76.5
t-31.5 -76t-80.5 -30t-80 30t-31 76zM900 -53q-157 0 -300 61.5t-247 165.5t-165.5 247.5t-61.5 300.5q0 209 104 387.5t282.5 282.5t387.5 104q157 0 300.5 -61.5t247.5 -165.5t165.5 -247t61.5 -300t-61.5 -300.5t-165.5 -247.5t-247.5 -165.5t-300.5 -61.5z" />
    <glyph glyph-name="uni2790" unicode="&#x37;&#x20dd;&#x25cf;" 
d="M610 1099v-181h366v-2l-309 -569h237l297 573v179h-591zM900 -53q-157 0 -300 61.5t-247 165.5t-165.5 247.5t-61.5 300.5q0 209 104 387.5t282.5 282.5t387.5 104q157 0 300.5 -61.5t247.5 -165.5t165.5 -247t61.5 -300t-61.5 -300.5t-165.5 -247.5t-247.5 -165.5
t-300.5 -61.5z" />
    <glyph glyph-name="uni2791" unicode="&#x38;&#x20dd;&#x25cf;" 
d="M898 801q-41 0 -67.5 24t-26.5 61q0 38 26 62.5t68 24.5q43 0 69 -24.5t26 -62.5t-26.5 -61.5t-68.5 -23.5zM898 482q-50 0 -82 27.5t-32 71.5q0 43 32 71t82 28t82.5 -28t32.5 -71t-32.5 -71t-82.5 -28zM898 338q153 0 242.5 61t89.5 166q0 71 -44.5 119t-122.5 61v3
q135 40 135 163q0 93 -81.5 148.5t-218.5 55.5q-136 0 -217.5 -55.5t-81.5 -148.5q0 -123 135 -163v-3q-78 -13 -122.5 -61t-44.5 -119q0 -104 89.5 -165.5t241.5 -61.5zM900 -53q-157 0 -300 61.5t-247 165.5t-165.5 247.5t-61.5 300.5q0 209 104 387.5t282.5 282.5
t387.5 104q157 0 300.5 -61.5t247.5 -165.5t165.5 -247t61.5 -300t-61.5 -300.5t-165.5 -247.5t-247.5 -165.5t-300.5 -61.5z" />
    <glyph glyph-name="uni2792" unicode="&#x39;&#x20dd;&#x25cf;" 
d="M1008 845q0 -46 -31.5 -76.5t-80.5 -30.5q-48 0 -79.5 30.5t-31.5 76.5t31.5 76.5t79.5 30.5q49 0 80.5 -30.5t31.5 -76.5zM584 832q0 -99 64.5 -164.5t161.5 -65.5q68 0 120 35l10 -1q-1 -1 -10 -14t-16 -22q-73 -102 -199 -249h250q117 143 149 194q101 148 101 283
q0 129 -88.5 208.5t-231.5 79.5q-140 0 -225.5 -78t-85.5 -206zM900 -53q-157 0 -300 61.5t-247 165.5t-165.5 247.5t-61.5 300.5q0 209 104 387.5t282.5 282.5t387.5 104q157 0 300.5 -61.5t247.5 -165.5t165.5 -247t61.5 -300t-61.5 -300.5t-165.5 -247.5t-247.5 -165.5
t-300.5 -61.5z" />
    <glyph glyph-name="uni1F130" unicode="A&#x20de;" 
d="M824 678h153l-69 240h-15zM751 398h-197l226 693h241l225 -693h-196l-40 135h-220zM413 1472h975q108 0 184 -75t76 -182v-986q0 -107 -76 -182t-184 -75h-975q-108 0 -184.5 75.5t-76.5 181.5v986q0 106 76.5 181.5t184.5 75.5zM1468 1174q0 53 -38.5 90t-94.5 37h-870
q-55 0 -94 -36.5t-39 -90.5v-904q0 -52 39.5 -89.5t93.5 -37.5h870q55 0 94 37.5t39 89.5v904z" />
    <glyph glyph-name="uni1F131" unicode="B&#x20de;" 
d="M631 382v692h343q100 0 158 -45.5t58 -124.5q0 -59 -36 -99t-96 -51v-9q75 -8 119 -53t44 -119q0 -86 -67 -138.5t-173 -52.5h-350zM817 944v-148h79q109 0 109 76q0 34 -24 53t-65 19h-99zM817 683v-164h87q122 0 122 82q0 38 -27.5 60t-76.5 22h-105zM413 1472h975
q108 0 184 -75t76 -182v-986q0 -107 -76 -182t-184 -75h-975q-108 0 -184.5 75.5t-76.5 181.5v986q0 106 76.5 181.5t184.5 75.5zM1468 1174q0 53 -38.5 90t-94.5 37h-870q-55 0 -94 -36.5t-39 -90.5v-904q0 -52 39.5 -89.5t93.5 -37.5h870q55 0 94 37.5t39 89.5v904z" />
    <glyph glyph-name="uni1F132" unicode="C&#x20de;" 
d="M1030 636h186q-9 -119 -95.5 -192.5t-220.5 -73.5q-148 0 -243 96.5t-95 260.5t94.5 261t243.5 97q136 0 222.5 -74.5t94.5 -194.5h-185q-4 45 -40.5 74.5t-88.5 29.5q-65 0 -104 -51.5t-39 -141.5t39 -141t104 -51q50 0 86.5 29t40.5 72zM413 1472h975q108 0 184 -75
t76 -182v-986q0 -107 -76 -182t-184 -75h-975q-108 0 -184.5 75.5t-76.5 181.5v986q0 106 76.5 181.5t184.5 75.5zM1468 1174q0 53 -38.5 90t-94.5 37h-870q-55 0 -94 -36.5t-39 -90.5v-904q0 -52 39.5 -89.5t93.5 -37.5h870q55 0 94 37.5t39 89.5v904z" />
    <glyph glyph-name="uni1F133" unicode="D&#x20de;" 
d="M618 1074h298q160 0 242 -89t82 -257t-82.5 -257t-241.5 -89h-298v692zM810 918v-380h75q80 0 117 45.5t37 143.5q0 99 -37 145t-117 46h-75zM413 1472h975q108 0 184 -75t76 -182v-986q0 -107 -76 -182t-184 -75h-975q-108 0 -184.5 75.5t-76.5 181.5v986
q0 106 76.5 181.5t184.5 75.5zM1468 1174q0 53 -38.5 90t-94.5 37h-870q-55 0 -94 -36.5t-39 -90.5v-904q0 -52 39.5 -89.5t93.5 -37.5h870q55 0 94 37.5t39 89.5v904z" />
    <glyph glyph-name="uni1F134" unicode="E&#x20de;" 
d="M1158 536v-154h-495v692h495v-154h-306v-123h287v-133h-287v-128h306zM413 1472h975q108 0 184 -75t76 -182v-986q0 -107 -76 -182t-184 -75h-975q-108 0 -184.5 75.5t-76.5 181.5v986q0 106 76.5 181.5t184.5 75.5zM1468 1174q0 53 -38.5 90t-94.5 37h-870
q-55 0 -94 -36.5t-39 -90.5v-904q0 -52 39.5 -89.5t93.5 -37.5h870q55 0 94 37.5t39 89.5v904z" />
    <glyph glyph-name="uni1F135" unicode="F&#x20de;" 
d="M878 382h-198v692h493v-156h-295v-133h268v-156h-268v-247zM413 1472h975q108 0 184 -75t76 -182v-986q0 -107 -76 -182t-184 -75h-975q-108 0 -184.5 75.5t-76.5 181.5v986q0 106 76.5 181.5t184.5 75.5zM1468 1174q0 53 -38.5 90t-94.5 37h-870q-55 0 -94 -36.5
t-39 -90.5v-904q0 -52 39.5 -89.5t93.5 -37.5h870q55 0 94 37.5t39 89.5v904z" />
    <glyph glyph-name="uni1F136" unicode="G&#x20de;" 
d="M1033 613v28h-127v125h309v-121q0 -120 -84.5 -197.5t-229.5 -77.5q-152 0 -245.5 98.5t-93.5 258.5t93.5 259t245.5 99q128 0 215 -67t101 -178h-190q-5 41 -39 66t-84 25q-65 0 -104.5 -55.5t-39.5 -148.5t40 -150.5t104 -57.5q61 0 95 26t34 68zM413 1472h975
q108 0 184 -75t76 -182v-986q0 -107 -76 -182t-184 -75h-975q-108 0 -184.5 75.5t-76.5 181.5v986q0 106 76.5 181.5t184.5 75.5zM1468 1174q0 53 -38.5 90t-94.5 37h-870q-55 0 -94 -36.5t-39 -90.5v-904q0 -52 39.5 -89.5t93.5 -37.5h870q55 0 94 37.5t39 89.5v904z" />
    <glyph glyph-name="uni1F137" unicode="H&#x20de;" 
d="M1210 382h-187v265h-245v-265h-187v692h187v-263h245v263h187v-692zM413 1472h975q108 0 184 -75t76 -182v-986q0 -107 -76 -182t-184 -75h-975q-108 0 -184.5 75.5t-76.5 181.5v986q0 106 76.5 181.5t184.5 75.5zM1468 1174q0 53 -38.5 90t-94.5 37h-870
q-55 0 -94 -36.5t-39 -90.5v-904q0 -52 39.5 -89.5t93.5 -37.5h870q55 0 94 37.5t39 89.5v904z" />
    <glyph glyph-name="uni1F138" unicode="I&#x20de;" 
d="M1007 382h-214v692h214v-692zM413 1472h975q108 0 184 -75t76 -182v-986q0 -107 -76 -182t-184 -75h-975q-108 0 -184.5 75.5t-76.5 181.5v986q0 106 76.5 181.5t184.5 75.5zM1468 1174q0 53 -38.5 90t-94.5 37h-870q-55 0 -94 -36.5t-39 -90.5v-904q0 -52 39.5 -89.5
t93.5 -37.5h870q55 0 94 37.5t39 89.5v904z" />
    <glyph glyph-name="uni1F139" unicode="J&#x20de;" 
d="M602 621h194q0 -39 19.5 -59.5t54.5 -20.5q73 0 73 89v433h201v-437q0 -125 -72 -196t-198 -71t-199 72t-73 190zM413 1472h975q108 0 184 -75t76 -182v-986q0 -107 -76 -182t-184 -75h-975q-108 0 -184.5 75.5t-76.5 181.5v986q0 106 76.5 181.5t184.5 75.5zM1468 1174
q0 53 -38.5 90t-94.5 37h-870q-55 0 -94 -36.5t-39 -90.5v-904q0 -52 39.5 -89.5t93.5 -37.5h870q55 0 94 37.5t39 89.5v904z" />
    <glyph glyph-name="uni1F13A" unicode="K&#x20de;" 
d="M1234 1074l-229 -314l235 -378h-225l-158 254l-64 -74v-180h-182v692h182v-274h14l214 274h213zM413 1472h975q108 0 184 -75t76 -182v-986q0 -107 -76 -182t-184 -75h-975q-108 0 -184.5 75.5t-76.5 181.5v986q0 106 76.5 181.5t184.5 75.5zM1468 1174q0 53 -38.5 90
t-94.5 37h-870q-55 0 -94 -36.5t-39 -90.5v-904q0 -52 39.5 -89.5t93.5 -37.5h870q55 0 94 37.5t39 89.5v904z" />
    <glyph glyph-name="uni1F13B" unicode="L&#x20de;" 
d="M1187 563v-170h-488v692h204v-522h284zM413 1472h975q108 0 184 -75t76 -182v-986q0 -107 -76 -182t-184 -75h-975q-108 0 -184.5 75.5t-76.5 181.5v986q0 106 76.5 181.5t184.5 75.5zM1468 1174q0 53 -38.5 90t-94.5 37h-870q-55 0 -94 -36.5t-39 -90.5v-904
q0 -52 39.5 -89.5t93.5 -37.5h870q55 0 94 37.5t39 89.5v904z" />
    <glyph glyph-name="uni1F13C" unicode="M&#x20de;" 
d="M698 382h-151v692h190l162 -448h5l162 448h189v-692h-152v420h-15l-140 -381h-96l-139 381h-15v-420zM413 1472h975q108 0 184 -75t76 -182v-986q0 -107 -76 -182t-184 -75h-975q-108 0 -184.5 75.5t-76.5 181.5v986q0 106 76.5 181.5t184.5 75.5zM1468 1174
q0 53 -38.5 90t-94.5 37h-870q-55 0 -94 -36.5t-39 -90.5v-904q0 -52 39.5 -89.5t93.5 -37.5h870q55 0 94 37.5t39 89.5v904z" />
    <glyph glyph-name="uni1F13D" unicode="N&#x20de;" 
d="M769 382h-171v692h144l276 -379h14v379h170v-692h-142l-278 384h-13v-384zM413 1472h975q108 0 184 -75t76 -182v-986q0 -107 -76 -182t-184 -75h-975q-108 0 -184.5 75.5t-76.5 181.5v986q0 106 76.5 181.5t184.5 75.5zM1468 1174q0 53 -38.5 90t-94.5 37h-870
q-55 0 -94 -36.5t-39 -90.5v-904q0 -52 39.5 -89.5t93.5 -37.5h870q55 0 94 37.5t39 89.5v904z" />
    <glyph glyph-name="uni1F13E" unicode="O&#x20de;" 
d="M900 535q62 0 101.5 50t39.5 142q0 93 -39.5 143t-101.5 50t-101.5 -50t-39.5 -143q0 -92 39.5 -142t101.5 -50zM900 370q-147 0 -243 95.5t-96 261.5q0 167 96 262.5t243 95.5t243 -95.5t96 -262.5q0 -166 -96 -261.5t-243 -95.5zM413 1472h975q108 0 184 -75t76 -182
v-986q0 -107 -76 -182t-184 -75h-975q-108 0 -184.5 75.5t-76.5 181.5v986q0 106 76.5 181.5t184.5 75.5zM1468 1174q0 53 -38.5 90t-94.5 37h-870q-55 0 -94 -36.5t-39 -90.5v-904q0 -52 39.5 -89.5t93.5 -37.5h870q55 0 94 37.5t39 89.5v904z" />
    <glyph glyph-name="uni1F13F" unicode="P&#x20de;" 
d="M972 1074q118 0 188 -69.5t70 -183.5q0 -113 -70 -181t-190 -68h-111v-190h-202v692h315zM1035 821q0 100 -98 100h-89v-199h89q98 0 98 99zM413 1472h975q108 0 184 -75t76 -182v-986q0 -107 -76 -182t-184 -75h-975q-108 0 -184.5 75.5t-76.5 181.5v986
q0 106 76.5 181.5t184.5 75.5zM1468 1174q0 53 -38.5 90t-94.5 37h-870q-55 0 -94 -36.5t-39 -90.5v-904q0 -52 39.5 -89.5t93.5 -37.5h870q55 0 94 37.5t39 89.5v904z" />
    <glyph glyph-name="uni1F140" unicode="Q&#x20de;" 
d="M1219 322h-190l-35 60q-44 -12 -94 -12q-147 0 -243 95.5t-96 261.5q0 167 96 262.5t243 95.5t243 -95.5t96 -262.5q0 -177 -111 -275zM900 535q18 0 31 4l-54 96h110l22 -27q32 46 32 119q0 93 -39.5 143t-101.5 50t-101.5 -50t-39.5 -143q0 -92 39.5 -142t101.5 -50z
M413 1472h975q108 0 184 -75t76 -182v-986q0 -107 -76 -182t-184 -75h-975q-108 0 -184.5 75.5t-76.5 181.5v986q0 106 76.5 181.5t184.5 75.5zM1468 1174q0 53 -38.5 90t-94.5 37h-870q-55 0 -94 -36.5t-39 -90.5v-904q0 -52 39.5 -89.5t93.5 -37.5h870q55 0 94 37.5
t39 89.5v904z" />
    <glyph glyph-name="uni1F141" unicode="R&#x20de;" 
d="M936 1074q131 0 203 -59t72 -166q0 -71 -37 -122t-98 -71l149 -274h-208l-117 238h-93v-238h-183v692h312zM807 754h105q47 0 73.5 21.5t26.5 62.5q0 42 -26 64.5t-72 22.5h-107v-171zM413 1472h975q108 0 184 -75t76 -182v-986q0 -107 -76 -182t-184 -75h-975
q-108 0 -184.5 75.5t-76.5 181.5v986q0 106 76.5 181.5t184.5 75.5zM1468 1174q0 53 -38.5 90t-94.5 37h-870q-55 0 -94 -36.5t-39 -90.5v-904q0 -52 39.5 -89.5t93.5 -37.5h870q55 0 94 37.5t39 89.5v904z" />
    <glyph glyph-name="uni1F142" unicode="S&#x20de;" 
d="M601 585h190q5 -32 35.5 -50.5t78.5 -18.5q49 0 78 18.5t29 49.5q0 25 -23.5 39t-85.5 25l-90 16q-97 16 -148 67.5t-51 131.5q0 100 78.5 161t208.5 61q122 0 200 -57t85 -152h-184q-5 31 -31.5 48.5t-69.5 17.5t-69 -17.5t-26 -46.5q0 -46 99 -61l97 -17
q198 -34 198 -199q0 -106 -82 -168t-220 -62q-134 0 -213 57t-84 157zM413 1472h975q108 0 184 -75t76 -182v-986q0 -107 -76 -182t-184 -75h-975q-108 0 -184.5 75.5t-76.5 181.5v986q0 106 76.5 181.5t184.5 75.5zM1468 1174q0 53 -38.5 90t-94.5 37h-870q-55 0 -94 -36.5
t-39 -90.5v-904q0 -52 39.5 -89.5t93.5 -37.5h870q55 0 94 37.5t39 89.5v904z" />
    <glyph glyph-name="uni1F143" unicode="T&#x20de;" 
d="M1002 368h-204v526h-195v167h594v-167h-195v-526zM413 1472h975q108 0 184 -75t76 -182v-986q0 -107 -76 -182t-184 -75h-975q-108 0 -184.5 75.5t-76.5 181.5v986q0 106 76.5 181.5t184.5 75.5zM1468 1174q0 53 -38.5 90t-94.5 37h-870q-55 0 -94 -36.5t-39 -90.5v-904
q0 -52 39.5 -89.5t93.5 -37.5h870q55 0 94 37.5t39 89.5v904z" />
    <glyph glyph-name="uni1F144" unicode="U&#x20de;" 
d="M900 521q51 0 81 28t30 76v436h196v-454q0 -109 -84.5 -180t-222.5 -71q-137 0 -221.5 71t-84.5 180v454h195v-436q0 -48 30.5 -76t80.5 -28zM413 1472h975q108 0 184 -75t76 -182v-986q0 -107 -76 -182t-184 -75h-975q-108 0 -184.5 75.5t-76.5 181.5v986
q0 106 76.5 181.5t184.5 75.5zM1468 1174q0 53 -38.5 90t-94.5 37h-870q-55 0 -94 -36.5t-39 -90.5v-904q0 -52 39.5 -89.5t93.5 -37.5h870q55 0 94 37.5t39 89.5v904z" />
    <glyph glyph-name="uni1F145" unicode="V&#x20de;" 
d="M767 363l-213 692h221l120 -496h11l120 496h220l-213 -692h-266zM413 1472h975q108 0 184 -75t76 -182v-986q0 -107 -76 -182t-184 -75h-975q-108 0 -184.5 75.5t-76.5 181.5v986q0 106 76.5 181.5t184.5 75.5zM1468 1174q0 53 -38.5 90t-94.5 37h-870q-55 0 -94 -36.5
t-39 -90.5v-904q0 -52 39.5 -89.5t93.5 -37.5h870q55 0 94 37.5t39 89.5v904z" />
    <glyph glyph-name="uni1F146" unicode="W&#x20de;" 
d="M897 792l-104 -424h-169l-162 693h179l81 -462h9l101 462h137l101 -462h9l81 462h178l-161 -693h-169l-105 424h-6zM413 1472h975q108 0 184 -75t76 -182v-986q0 -107 -76 -182t-184 -75h-975q-108 0 -184.5 75.5t-76.5 181.5v986q0 106 76.5 181.5t184.5 75.5z
M1468 1174q0 53 -38.5 90t-94.5 37h-870q-55 0 -94 -36.5t-39 -90.5v-904q0 -52 39.5 -89.5t93.5 -37.5h870q55 0 94 37.5t39 89.5v904z" />
    <glyph glyph-name="uni1F147" unicode="X&#x20de;" 
d="M1234 1074l-216 -346l215 -346h-212l-120 222h-10l-119 -222h-216l219 347l-218 345h222l117 -222h10l118 222h210zM413 1472h975q108 0 184 -75t76 -182v-986q0 -107 -76 -182t-184 -75h-975q-108 0 -184.5 75.5t-76.5 181.5v986q0 106 76.5 181.5t184.5 75.5z
M1468 1174q0 53 -38.5 90t-94.5 37h-870q-55 0 -94 -36.5t-39 -90.5v-904q0 -52 39.5 -89.5t93.5 -37.5h870q55 0 94 37.5t39 89.5v904z" />
    <glyph glyph-name="uni1F148" unicode="Y&#x20de;" 
d="M1005 368h-209v224l-238 469h220l120 -274h6l120 274h218l-237 -468v-225zM413 1472h975q108 0 184 -75t76 -182v-986q0 -107 -76 -182t-184 -75h-975q-108 0 -184.5 75.5t-76.5 181.5v986q0 106 76.5 181.5t184.5 75.5zM1468 1174q0 53 -38.5 90t-94.5 37h-870
q-55 0 -94 -36.5t-39 -90.5v-904q0 -52 39.5 -89.5t93.5 -37.5h870q55 0 94 37.5t39 89.5v904z" />
    <glyph glyph-name="uni1F149" unicode="Z&#x20de;" 
d="M627 382v130l298 391v10h-297v161h540v-130l-298 -391v-10h309v-161h-552zM413 1472h975q108 0 184 -75t76 -182v-986q0 -107 -76 -182t-184 -75h-975q-108 0 -184.5 75.5t-76.5 181.5v986q0 106 76.5 181.5t184.5 75.5zM1468 1174q0 53 -38.5 90t-94.5 37h-870
q-55 0 -94 -36.5t-39 -90.5v-904q0 -52 39.5 -89.5t93.5 -37.5h870q55 0 94 37.5t39 89.5v904z" />
    <glyph glyph-name="uni1F150" unicode="A&#x20dd;&#x25cf;" 
d="M985 669h-169l79 282h10zM743 377l43 145h229l43 -145h220l-245 753h-265l-245 -753h220zM900 -53q-157 0 -300 61.5t-247 165.5t-165.5 247.5t-61.5 300.5q0 209 104 387.5t282.5 282.5t387.5 104q157 0 300.5 -61.5t247.5 -165.5t165.5 -247t61.5 -300t-61.5 -300.5
t-165.5 -247.5t-247.5 -165.5t-300.5 -61.5z" />
    <glyph glyph-name="uni1F151" unicode="B&#x20dd;&#x25cf;" 
d="M601 352h380q117 0 190.5 58t73.5 152q0 77 -45.5 126t-127.5 61v4q64 14 101 58t37 106q0 87 -63 137t-173 50h-373v-752zM805 960h106q44 0 70 -21t26 -57q0 -80 -117 -80h-85v158zM804 678h113q54 0 83.5 -23.5t29.5 -64.5q0 -87 -132 -87h-94v175zM900 -53
q-157 0 -300 61.5t-247 165.5t-165.5 247.5t-61.5 300.5q0 209 104 387.5t282.5 282.5t387.5 104q157 0 300.5 -61.5t247.5 -165.5t165.5 -247t61.5 -300t-61.5 -300.5t-165.5 -247.5t-247.5 -165.5t-300.5 -61.5z" />
    <glyph glyph-name="uni1F152" unicode="C&#x20dd;&#x25cf;" 
d="M1037 626q-5 -44 -43 -73t-90 -29q-68 0 -109 53.5t-41 148.5t41 148.5t109 53.5q53 0 91.5 -31t43.5 -76h206q-8 131 -102.5 212t-241.5 81q-161 0 -264 -105t-103 -283t102.5 -283t264.5 -105q144 0 238.5 80t104.5 208h-207zM900 -53q-157 0 -300 61.5t-247 165.5
t-165.5 247.5t-61.5 300.5q0 209 104 387.5t282.5 282.5t387.5 104q157 0 300.5 -61.5t247.5 -165.5t165.5 -247t61.5 -300t-61.5 -300.5t-165.5 -247.5t-247.5 -165.5t-300.5 -61.5z" />
    <glyph glyph-name="uni1F153" unicode="D&#x20dd;&#x25cf;" 
d="M598 1104v-752h325q173 0 263 95.5t90 280.5t-90 280.5t-263 95.5h-325zM808 938h79q89 0 129 -50t40 -161q0 -110 -40 -159.5t-129 -49.5h-79v420zM900 -53q-157 0 -300 61.5t-247 165.5t-165.5 247.5t-61.5 300.5q0 209 104 387.5t282.5 282.5t387.5 104
q157 0 300.5 -61.5t247.5 -165.5t165.5 -247t61.5 -300t-61.5 -300.5t-165.5 -247.5t-247.5 -165.5t-300.5 -61.5z" />
    <glyph glyph-name="uni1F154" unicode="E&#x20dd;&#x25cf;" 
d="M1179 513h-336v144h314v146h-314v139h336v162h-544v-752h544v161zM900 -53q-157 0 -300 61.5t-247 165.5t-165.5 247.5t-61.5 300.5q0 209 104 387.5t282.5 282.5t387.5 104q157 0 300.5 -61.5t247.5 -165.5t165.5 -247t61.5 -300t-61.5 -300.5t-165.5 -247.5
t-247.5 -165.5t-300.5 -61.5z" />
    <glyph glyph-name="uni1F155" unicode="F&#x20dd;&#x25cf;" 
d="M873 352v266h290v172h-290v144h320v170h-540v-752h220zM900 -53q-157 0 -300 61.5t-247 165.5t-165.5 247.5t-61.5 300.5q0 209 104 387.5t282.5 282.5t387.5 104q157 0 300.5 -61.5t247.5 -165.5t165.5 -247t61.5 -300t-61.5 -300.5t-165.5 -247.5t-247.5 -165.5
t-300.5 -61.5z" />
    <glyph glyph-name="uni1F156" unicode="G&#x20dd;&#x25cf;" 
d="M1039 615q0 -46 -35.5 -76t-98.5 -30q-68 0 -109.5 59.5t-41.5 157.5q0 96 41.5 153.5t109.5 57.5q55 0 89 -23.5t39 -61.5h212q-16 118 -110 190t-232 72q-165 0 -267 -107t-102 -281t101.5 -281t266.5 -107q153 0 247 87.5t94 217.5v132h-335v-146h131v-14zM900 -53
q-157 0 -300 61.5t-247 165.5t-165.5 247.5t-61.5 300.5q0 209 104 387.5t282.5 282.5t387.5 104q157 0 300.5 -61.5t247.5 -165.5t165.5 -247t61.5 -300t-61.5 -300.5t-165.5 -247.5t-247.5 -165.5t-300.5 -61.5z" />
    <glyph glyph-name="uni1F157" unicode="H&#x20dd;&#x25cf;" 
d="M1237 352v752h-208v-283h-257v283h-208v-752h208v284h257v-284h208zM900 -53q-157 0 -300 61.5t-247 165.5t-165.5 247.5t-61.5 300.5q0 209 104 387.5t282.5 282.5t387.5 104q157 0 300.5 -61.5t247.5 -165.5t165.5 -247t61.5 -300t-61.5 -300.5t-165.5 -247.5
t-247.5 -165.5t-300.5 -61.5z" />
    <glyph glyph-name="uni1F158" unicode="I&#x20dd;&#x25cf;" 
d="M1019 352v752h-237v-752h237zM900 -53q-157 0 -300 61.5t-247 165.5t-165.5 247.5t-61.5 300.5q0 209 104 387.5t282.5 282.5t387.5 104q157 0 300.5 -61.5t247.5 -165.5t165.5 -247t61.5 -300t-61.5 -300.5t-165.5 -247.5t-247.5 -165.5t-300.5 -61.5z" />
    <glyph glyph-name="uni1F159" unicode="J&#x20dd;&#x25cf;" 
d="M573 617q0 -132 81 -210.5t217 -78.5q138 0 216.5 77.5t78.5 213.5v475h-224v-472q0 -90 -76 -90q-75 0 -75 85h-218zM900 -53q-157 0 -300 61.5t-247 165.5t-165.5 247.5t-61.5 300.5q0 209 104 387.5t282.5 282.5t387.5 104q157 0 300.5 -61.5t247.5 -165.5t165.5 -247
t61.5 -300t-61.5 -300.5t-165.5 -247.5t-247.5 -165.5t-300.5 -61.5z" />
    <glyph glyph-name="uni1F15A" unicode="K&#x20dd;&#x25cf;" 
d="M1262 1104h-239l-231 -293h-9v293h-203v-752h203v197l64 73l170 -270h251l-257 409zM900 -53q-157 0 -300 61.5t-247 165.5t-165.5 247.5t-61.5 300.5q0 209 104 387.5t282.5 282.5t387.5 104q157 0 300.5 -61.5t247.5 -165.5t165.5 -247t61.5 -300t-61.5 -300.5
t-165.5 -247.5t-247.5 -165.5t-300.5 -61.5z" />
    <glyph glyph-name="uni1F15B" unicode="L&#x20dd;&#x25cf;" 
d="M1201 553h-307v562h-226v-752h533v190zM900 -53q-157 0 -300 61.5t-247 165.5t-165.5 247.5t-61.5 300.5q0 209 104 387.5t282.5 282.5t387.5 104q157 0 300.5 -61.5t247.5 -165.5t165.5 -247t61.5 -300t-61.5 -300.5t-165.5 -247.5t-247.5 -165.5t-300.5 -61.5z" />
    <glyph glyph-name="uni1F15C" unicode="M&#x20dd;&#x25cf;" 
d="M683 352v456h13l149 -412h109l151 410h13v-454h169v752h-208l-177 -485h-3l-176 485h-209v-752h169zM900 -53q-157 0 -300 61.5t-247 165.5t-165.5 247.5t-61.5 300.5q0 209 104 387.5t282.5 282.5t387.5 104q157 0 300.5 -61.5t247.5 -165.5t165.5 -247t61.5 -300
t-61.5 -300.5t-165.5 -247.5t-247.5 -165.5t-300.5 -61.5z" />
    <glyph glyph-name="uni1F15D" unicode="N&#x20dd;&#x25cf;" 
d="M762 352v412h9l299 -412h160v752h-191v-408h-9l-299 408h-160v-752h191zM900 -53q-157 0 -300 61.5t-247 165.5t-165.5 247.5t-61.5 300.5q0 209 104 387.5t282.5 282.5t387.5 104q157 0 300.5 -61.5t247.5 -165.5t165.5 -247t61.5 -300t-61.5 -300.5t-165.5 -247.5
t-247.5 -165.5t-300.5 -61.5z" />
    <glyph glyph-name="uni1F15E" unicode="O&#x20dd;&#x25cf;" 
d="M900 521q-65 0 -107.5 53.5t-42.5 151.5t42.5 151.5t107.5 53.5t107.5 -53t42.5 -152t-42.5 -152t-107.5 -53zM900 338q161 0 265 103.5t104 284.5t-104 284.5t-265 103.5q-160 0 -264 -103.5t-104 -284.5t104 -284.5t264 -103.5zM900 -53q-157 0 -300 61.5t-247 165.5
t-165.5 247.5t-61.5 300.5q0 209 104 387.5t282.5 282.5t387.5 104q157 0 300.5 -61.5t247.5 -165.5t165.5 -247t61.5 -300t-61.5 -300.5t-165.5 -247.5t-247.5 -165.5t-300.5 -61.5z" />
    <glyph glyph-name="uni1F15F" unicode="P&#x20dd;&#x25cf;" 
d="M971 1104h-344v-752h225v205h116q130 0 207.5 73.5t77.5 196.5q0 126 -77 201.5t-205 75.5zM1040 827q0 -52 -28 -80t-80 -28h-96v218h96q52 0 80 -28.5t28 -81.5zM900 -53q-157 0 -300 61.5t-247 165.5t-165.5 247.5t-61.5 300.5q0 209 104 387.5t282.5 282.5t387.5 104
q157 0 300.5 -61.5t247.5 -165.5t165.5 -247t61.5 -300t-61.5 -300.5t-165.5 -247.5t-247.5 -165.5t-300.5 -61.5z" />
    <glyph glyph-name="uni1F160" unicode="Q&#x20dd;&#x25cf;" 
d="M1251 288l-100 142q118 107 118 296q0 181 -104 284.5t-265 103.5q-160 0 -264 -103.5t-104 -284.5t104 -284.5t264 -103.5q56 0 102 13l35 -63h214zM900 521q-65 0 -107.5 53.5t-42.5 151.5t42.5 151.5t107.5 53.5t107.5 -53t42.5 -152q0 -74 -32 -124l-23 28h-126
l59 -106q-14 -3 -28 -3zM900 -53q-157 0 -300 61.5t-247 165.5t-165.5 247.5t-61.5 300.5q0 209 104 387.5t282.5 282.5t387.5 104q157 0 300.5 -61.5t247.5 -165.5t165.5 -247t61.5 -300t-61.5 -300.5t-165.5 -247.5t-247.5 -165.5t-300.5 -61.5z" />
    <glyph glyph-name="uni1F161" unicode="R&#x20dd;&#x25cf;" 
d="M792 754v186h118q52 0 79.5 -24t27.5 -70q0 -43 -29 -67.5t-80 -24.5h-116zM933 1104h-340v-752h205v256h95l125 -256h234l-162 295q68 25 105.5 80t37.5 131q0 118 -78.5 182t-221.5 64zM900 -53q-157 0 -300 61.5t-247 165.5t-165.5 247.5t-61.5 300.5q0 209 104 387.5
t282.5 282.5t387.5 104q157 0 300.5 -61.5t247.5 -165.5t165.5 -247t61.5 -300t-61.5 -300.5t-165.5 -247.5t-247.5 -165.5t-300.5 -61.5z" />
    <glyph glyph-name="uni1F162" unicode="S&#x20dd;&#x25cf;" 
d="M574 577q5 -110 91.5 -173t232.5 -63q150 0 239.5 68t89.5 182q0 182 -217 218l-105 18q-56 9 -80.5 24.5t-24.5 40.5q0 31 27.5 49t73.5 18q45 0 73.5 -19t33.5 -52h203q-7 104 -91.5 166.5t-218.5 62.5q-141 0 -227 -66.5t-86 -175.5q0 -88 56 -143.5t161 -73.5l98 -18
q65 -11 90 -25.5t25 -41.5q0 -32 -30.5 -51.5t-82.5 -19.5q-51 0 -83.5 20.5t-36.5 54.5h-211zM900 -53q-157 0 -300 61.5t-247 165.5t-165.5 247.5t-61.5 300.5q0 209 104 387.5t282.5 282.5t387.5 104q157 0 300.5 -61.5t247.5 -165.5t165.5 -247t61.5 -300t-61.5 -300.5
t-165.5 -247.5t-247.5 -165.5t-300.5 -61.5z" />
    <glyph glyph-name="uni1F163" unicode="T&#x20dd;&#x25cf;" 
d="M1013 329v567h211v185h-647v-185h211v-567h225zM900 -53q-157 0 -300 61.5t-247 165.5t-165.5 247.5t-61.5 300.5q0 209 104 387.5t282.5 282.5t387.5 104q157 0 300.5 -61.5t247.5 -165.5t165.5 -247t61.5 -300t-61.5 -300.5t-165.5 -247.5t-247.5 -165.5t-300.5 -61.5z
" />
    <glyph glyph-name="uni1F164" unicode="U&#x20dd;&#x25cf;" 
d="M900 501q-53 0 -84 29t-31 79v473h-219v-504q0 -118 91.5 -189.5t242.5 -71.5t243 72t92 189v504h-219v-473q0 -50 -31.5 -79t-84.5 -29zM900 -53q-157 0 -300 61.5t-247 165.5t-165.5 247.5t-61.5 300.5q0 209 104 387.5t282.5 282.5t387.5 104q157 0 300.5 -61.5
t247.5 -165.5t165.5 -247t61.5 -300t-61.5 -300.5t-165.5 -247.5t-247.5 -165.5t-300.5 -61.5z" />
    <glyph glyph-name="uni1F165" unicode="V&#x20dd;&#x25cf;" 
d="M1044 324l232 752h-242l-128 -537h-11l-128 537h-243l233 -752h287zM900 -53q-157 0 -300 61.5t-247 165.5t-165.5 247.5t-61.5 300.5q0 209 104 387.5t282.5 282.5t387.5 104q157 0 300.5 -61.5t247.5 -165.5t165.5 -247t61.5 -300t-61.5 -300.5t-165.5 -247.5
t-247.5 -165.5t-300.5 -61.5z" />
    <glyph glyph-name="uni1F166" unicode="W&#x20dd;&#x25cf;" 
d="M899 783h3l112 -454h189l177 752h-202l-85 -497h-5l-109 497h-157l-109 -497h-5l-85 497h-202l178 -752h188zM900 -53q-157 0 -300 61.5t-247 165.5t-165.5 247.5t-61.5 300.5q0 209 104 387.5t282.5 282.5t387.5 104q157 0 300.5 -61.5t247.5 -165.5t165.5 -247
t61.5 -300t-61.5 -300.5t-165.5 -247.5t-247.5 -165.5t-300.5 -61.5z" />
    <glyph glyph-name="uni1F167" unicode="X&#x20dd;&#x25cf;" 
d="M1266 1104h-233l-125 -240h-10l-126 240h-246l236 -374l-237 -378h239l128 239h9l129 -239h234l-233 375zM900 -53q-157 0 -300 61.5t-247 165.5t-165.5 247.5t-61.5 300.5q0 209 104 387.5t282.5 282.5t387.5 104q157 0 300.5 -61.5t247.5 -165.5t165.5 -247t61.5 -300
t-61.5 -300.5t-165.5 -247.5t-247.5 -165.5t-300.5 -61.5z" />
    <glyph glyph-name="uni1F168" unicode="Y&#x20dd;&#x25cf;" 
d="M784 336h233v245l260 507h-245l-130 -294h-4l-129 294h-245l260 -507v-245zM900 -53q-157 0 -300 61.5t-247 165.5t-165.5 247.5t-61.5 300.5q0 209 104 387.5t282.5 282.5t387.5 104q157 0 300.5 -61.5t247.5 -165.5t165.5 -247t61.5 -300t-61.5 -300.5t-165.5 -247.5
t-247.5 -165.5t-300.5 -61.5z" />
    <glyph glyph-name="uni1F169" unicode="Z&#x20dd;&#x25cf;" 
d="M602 352h602v181h-328v5l317 422v144h-590v-182h316v-3l-317 -423v-144zM900 -53q-157 0 -300 61.5t-247 165.5t-165.5 247.5t-61.5 300.5q0 209 104 387.5t282.5 282.5t387.5 104q157 0 300.5 -61.5t247.5 -165.5t165.5 -247t61.5 -300t-61.5 -300.5t-165.5 -247.5
t-247.5 -165.5t-300.5 -61.5z" />
    <glyph glyph-name="uni1F170" unicode="A&#x20de;&#x25a0;" 
d="M985 660h-169l79 282h10zM743 368l43 145h229l43 -145h220l-245 753h-265l-245 -753h220zM413 1472h975q108 0 184 -75t76 -182v-986q0 -107 -76 -182t-184 -75h-975q-108 0 -184.5 75.5t-76.5 181.5v986q0 106 76.5 181.5t184.5 75.5z" />
    <glyph glyph-name="uni1F171" unicode="B&#x20de;&#x25a0;" 
d="M601 352h380q116 0 190 58t74 152q0 78 -46.5 127t-126.5 60v4q63 14 100.5 57t37.5 107q0 88 -63 137.5t-173 49.5h-373v-752zM805 960h106q45 0 70.5 -21t25.5 -57q0 -80 -117 -80h-85v158zM804 678h113q54 0 83.5 -23t29.5 -65q0 -87 -132 -87h-94v175zM413 1472h975
q108 0 184 -75t76 -182v-986q0 -107 -76 -182t-184 -75h-975q-108 0 -184.5 75.5t-76.5 181.5v986q0 106 76.5 181.5t184.5 75.5z" />
    <glyph glyph-name="uni1F172" unicode="C&#x20de;&#x25a0;" 
d="M1037 626q-5 -44 -43 -73t-90 -29q-68 0 -109 53.5t-41 148.5t41 148.5t109 53.5q53 0 91.5 -31t43.5 -76h206q-8 131 -102.5 212t-241.5 81q-161 0 -264 -105t-103 -283t102.5 -283t264.5 -105q144 0 238.5 80t104.5 208h-207zM413 1472h975q108 0 184 -75t76 -182v-986
q0 -107 -76 -182t-184 -75h-975q-108 0 -184.5 75.5t-76.5 181.5v986q0 106 76.5 181.5t184.5 75.5z" />
    <glyph glyph-name="uni1F173" unicode="D&#x20de;&#x25a0;" 
d="M587 1104v-752h324q175 0 264.5 96.5t89.5 279.5q0 184 -89.5 280t-264.5 96h-324zM796 938h80q88 0 128 -50.5t40 -160.5t-40 -159.5t-128 -49.5h-80v420zM413 1472h975q108 0 184 -75t76 -182v-986q0 -107 -76 -182t-184 -75h-975q-108 0 -184.5 75.5t-76.5 181.5v986
q0 106 76.5 181.5t184.5 75.5z" />
    <glyph glyph-name="uni1F174" unicode="E&#x20de;&#x25a0;" 
d="M1179 513h-336v144h314v146h-314v139h336v162h-544v-752h544v161zM413 1472h975q108 0 184 -75t76 -182v-986q0 -107 -76 -182t-184 -75h-975q-108 0 -184.5 75.5t-76.5 181.5v986q0 106 76.5 181.5t184.5 75.5z" />
    <glyph glyph-name="uni1F175" unicode="F&#x20de;&#x25a0;" 
d="M873 352v266h290v172h-290v144h320v170h-540v-752h220zM413 1472h975q108 0 184 -75t76 -182v-986q0 -107 -76 -182t-184 -75h-975q-108 0 -184.5 75.5t-76.5 181.5v986q0 106 76.5 181.5t184.5 75.5z" />
    <glyph glyph-name="uni1F176" unicode="G&#x20de;&#x25a0;" 
d="M1039 615q0 -46 -35.5 -76t-98.5 -30q-68 0 -109.5 59.5t-41.5 157.5q0 96 41.5 153.5t109.5 57.5q55 0 89 -23.5t39 -61.5h212q-16 118 -110 190t-232 72q-165 0 -267 -107t-102 -281t101.5 -281t266.5 -107q153 0 247 87.5t94 217.5v132h-335v-146h131v-14zM413 1472
h975q108 0 184 -75t76 -182v-986q0 -107 -76 -182t-184 -75h-975q-108 0 -184.5 75.5t-76.5 181.5v986q0 106 76.5 181.5t184.5 75.5z" />
    <glyph glyph-name="uni1F177" unicode="H&#x20de;&#x25a0;" 
d="M1237 352v752h-208v-283h-257v283h-208v-752h208v284h257v-284h208zM413 1472h975q108 0 184 -75t76 -182v-986q0 -107 -76 -182t-184 -75h-975q-108 0 -184.5 75.5t-76.5 181.5v986q0 106 76.5 181.5t184.5 75.5z" />
    <glyph glyph-name="uni1F178" unicode="I&#x20de;&#x25a0;" 
d="M1019 352v752h-237v-752h237zM413 1472h975q108 0 184 -75t76 -182v-986q0 -107 -76 -182t-184 -75h-975q-108 0 -184.5 75.5t-76.5 181.5v986q0 106 76.5 181.5t184.5 75.5z" />
    <glyph glyph-name="uni1F179" unicode="J&#x20de;&#x25a0;" 
d="M573 617q0 -131 79.5 -210t218.5 -79q137 0 216 77t79 214v475h-224v-472q0 -90 -76 -90q-75 0 -75 85h-218zM413 1472h975q108 0 184 -75t76 -182v-986q0 -107 -76 -182t-184 -75h-975q-108 0 -184.5 75.5t-76.5 181.5v986q0 106 76.5 181.5t184.5 75.5z" />
    <glyph glyph-name="uni1F17A" unicode="K&#x20de;&#x25a0;" 
d="M1262 1104h-239l-231 -293h-9v293h-203v-752h203v197l64 73l170 -270h251q-24 31 -127.5 203.5t-129.5 205.5zM413 1472h975q108 0 184 -75t76 -182v-986q0 -107 -76 -182t-184 -75h-975q-108 0 -184.5 75.5t-76.5 181.5v986q0 106 76.5 181.5t184.5 75.5z" />
    <glyph glyph-name="uni1F17B" unicode="L&#x20de;&#x25a0;" 
d="M1206 553h-307v562h-226v-752h533v190zM413 1472h975q108 0 184 -75t76 -182v-986q0 -107 -76 -182t-184 -75h-975q-108 0 -184.5 75.5t-76.5 181.5v986q0 106 76.5 181.5t184.5 75.5z" />
    <glyph glyph-name="uni1F17C" unicode="M&#x20de;&#x25a0;" 
d="M683 352v456h13l149 -412h109l151 410h13v-454h169v752h-208l-177 -485h-3l-176 485h-209v-752h169zM413 1472h975q108 0 184 -75t76 -182v-986q0 -107 -76 -182t-184 -75h-975q-108 0 -184.5 75.5t-76.5 181.5v986q0 106 76.5 181.5t184.5 75.5z" />
    <glyph glyph-name="uni1F17D" unicode="N&#x20de;&#x25a0;" 
d="M762 352v412h9l299 -412h160v752h-191v-408h-9l-299 408h-160v-752h191zM413 1472h975q108 0 184 -75t76 -182v-986q0 -107 -76 -182t-184 -75h-975q-108 0 -184.5 75.5t-76.5 181.5v986q0 106 76.5 181.5t184.5 75.5z" />
    <glyph glyph-name="uni1F17E" unicode="O&#x20de;&#x25a0;" 
d="M900 521q-65 0 -107.5 53.5t-42.5 151.5t42.5 151.5t107.5 53.5t107.5 -53t42.5 -152t-42.5 -152t-107.5 -53zM900 338q161 0 265 103.5t104 284.5t-104 284.5t-265 103.5q-160 0 -264 -103.5t-104 -284.5t104 -284.5t264 -103.5zM413 1472h975q108 0 184 -75t76 -182
v-986q0 -107 -76 -182t-184 -75h-975q-108 0 -184.5 75.5t-76.5 181.5v986q0 106 76.5 181.5t184.5 75.5z" />
    <glyph glyph-name="uni1F17F" unicode="P&#x20de;&#x25a0;" 
d="M971 1104h-344v-752h225v205h116q131 0 208 74t77 196q0 125 -76.5 201t-205.5 76zM1040 827q0 -52 -28 -80t-80 -28h-96v218h96q51 0 79.5 -28.5t28.5 -81.5zM413 1472h975q108 0 184 -75t76 -182v-986q0 -107 -76 -182t-184 -75h-975q-108 0 -184.5 75.5t-76.5 181.5
v986q0 106 76.5 181.5t184.5 75.5z" />
    <glyph glyph-name="uni1F180" unicode="Q&#x20de;&#x25a0;" 
d="M1251 288l-100 142q118 107 118 296q0 181 -104 284.5t-265 103.5q-160 0 -264 -103.5t-104 -284.5t104 -284.5t264 -103.5q56 0 102 13l35 -63h214zM900 521q-65 0 -107.5 53.5t-42.5 151.5t42.5 151.5t107.5 53.5t107.5 -53t42.5 -152q0 -74 -32 -124l-23 28h-126
l59 -106q-14 -3 -28 -3zM413 1472h975q108 0 184 -75t76 -182v-986q0 -107 -76 -182t-184 -75h-975q-108 0 -184.5 75.5t-76.5 181.5v986q0 106 76.5 181.5t184.5 75.5z" />
    <glyph glyph-name="uni1F181" unicode="R&#x20de;&#x25a0;" 
d="M792 754v186h118q51 0 79 -24t28 -70q0 -43 -29 -67.5t-80 -24.5h-116zM933 1104h-340v-752h205v256h95l125 -256h234l-162 295q66 24 104.5 79t38.5 132q0 117 -78 181.5t-222 64.5zM413 1472h975q108 0 184 -75t76 -182v-986q0 -107 -76 -182t-184 -75h-975
q-108 0 -184.5 75.5t-76.5 181.5v986q0 106 76.5 181.5t184.5 75.5z" />
    <glyph glyph-name="uni1F182" unicode="S&#x20de;&#x25a0;" 
d="M574 577q5 -110 91.5 -173t232.5 -63q150 0 239.5 68t89.5 182q0 182 -217 218l-105 18q-56 9 -80.5 24.5t-24.5 40.5q0 31 27.5 49t73.5 18q45 0 73.5 -19t33.5 -52h203q-7 104 -91.5 166.5t-218.5 62.5q-141 0 -227 -66.5t-86 -175.5q0 -88 56 -143.5t161 -73.5l98 -18
q65 -11 90 -25.5t25 -41.5q0 -32 -30.5 -51.5t-82.5 -19.5q-51 0 -83.5 20.5t-36.5 54.5h-211zM413 1472h975q108 0 184 -75t76 -182v-986q0 -107 -76 -182t-184 -75h-975q-108 0 -184.5 75.5t-76.5 181.5v986q0 106 76.5 181.5t184.5 75.5z" />
    <glyph glyph-name="uni1F183" unicode="T&#x20de;&#x25a0;" 
d="M1013 338v567h211v185h-647v-185h211v-567h225zM413 1472h975q108 0 184 -75t76 -182v-986q0 -107 -76 -182t-184 -75h-975q-108 0 -184.5 75.5t-76.5 181.5v986q0 106 76.5 181.5t184.5 75.5z" />
    <glyph glyph-name="uni1F184" unicode="U&#x20de;&#x25a0;" 
d="M900 510q-53 0 -84 29t-31 79v473h-219v-504q0 -118 91.5 -189.5t242.5 -71.5t243 72t92 189v504h-219v-473q0 -50 -31.5 -79t-84.5 -29zM413 1472h975q108 0 184 -75t76 -182v-986q0 -107 -76 -182t-184 -75h-975q-108 0 -184.5 75.5t-76.5 181.5v986q0 106 76.5 181.5
t184.5 75.5z" />
    <glyph glyph-name="uni1F185" unicode="V&#x20de;&#x25a0;" 
d="M1044 333l232 752h-242l-128 -537h-11l-128 537h-243l233 -752h287zM413 1472h975q108 0 184 -75t76 -182v-986q0 -107 -76 -182t-184 -75h-975q-108 0 -184.5 75.5t-76.5 181.5v986q0 106 76.5 181.5t184.5 75.5z" />
    <glyph glyph-name="uni1F186" unicode="W&#x20de;&#x25a0;" 
d="M899 792h3l112 -454h189l177 752h-202l-85 -497h-5l-109 497h-157l-109 -497h-5l-85 497h-202l178 -752h188zM413 1472h975q108 0 184 -75t76 -182v-986q0 -107 -76 -182t-184 -75h-975q-108 0 -184.5 75.5t-76.5 181.5v986q0 106 76.5 181.5t184.5 75.5z" />
    <glyph glyph-name="uni1F187" unicode="X&#x20de;&#x25a0;" 
d="M1266 1104h-233l-125 -240h-10l-126 240h-246l236 -374l-237 -378h239l128 239h9l129 -239h234l-233 375zM413 1472h975q108 0 184 -75t76 -182v-986q0 -107 -76 -182t-184 -75h-975q-108 0 -184.5 75.5t-76.5 181.5v986q0 106 76.5 181.5t184.5 75.5z" />
    <glyph glyph-name="uni1F188" unicode="Y&#x20de;&#x25a0;" 
d="M784 338h233v245l260 507h-245l-130 -294h-4l-129 294h-245l260 -507v-245zM413 1472h975q108 0 184 -75t76 -182v-986q0 -107 -76 -182t-184 -75h-975q-108 0 -184.5 75.5t-76.5 181.5v986q0 106 76.5 181.5t184.5 75.5z" />
    <glyph glyph-name="uni1F189" unicode="Z&#x20de;&#x25a0;" 
d="M602 352h602v181h-328v5l317 422v144h-590v-182h316v-3l-317 -423v-144zM413 1472h975q108 0 184 -75t76 -182v-986q0 -107 -76 -182t-184 -75h-975q-108 0 -184.5 75.5t-76.5 181.5v986q0 106 76.5 181.5t184.5 75.5z" />
    <glyph glyph-name="plus.uc.whitecircle" unicode="&#x2b;&#x20dd;" 
d="M987 641v-210h-173v210h-206v171h206v207h173v-207h205v-171h-205zM900 125q163 0 299 80t214 216.5t78 298.5t-78 298.5t-214 216.5t-299 80t-299 -80t-213.5 -216.5t-77.5 -298.5t77.5 -298.5t213.5 -216.5t299 -80zM900 -55q-159 0 -302.5 61t-247 164.5t-164.5 247
t-61 302.5t61 303t164.5 247.5t247 164.5t302.5 61t302.5 -61t247 -164.5t164.5 -247.5t61 -303t-61 -302.5t-164.5 -247t-247 -164.5t-302.5 -61z" />
    <glyph glyph-name="minus.uc.whitecircle" unicode="&#x2212;&#x20dd;" 
d="M1165 636h-530v178h530v-178zM900 125q163 0 299 80t214 216.5t78 298.5t-78 298.5t-214 216.5t-299 80t-299 -80t-213.5 -216.5t-77.5 -298.5t77.5 -298.5t213.5 -216.5t299 -80zM900 -55q-159 0 -302.5 61t-247 164.5t-164.5 247t-61 302.5t61 303t164.5 247.5
t247 164.5t302.5 61t302.5 -61t247 -164.5t164.5 -247.5t61 -303t-61 -302.5t-164.5 -247t-247 -164.5t-302.5 -61z" />
    <glyph glyph-name="multiply.uc.whitecircle" unicode="&#xd7;&#x20dd;" 
d="M900 851l159 155l123 -126l-159 -155l159 -156l-123 -124l-159 155l-160 -155l-121 124l159 156l-160 156l122 125zM900 125q163 0 299 80t214 216.5t78 298.5t-78 298.5t-214 216.5t-299 80t-299 -80t-213.5 -216.5t-77.5 -298.5t77.5 -298.5t213.5 -216.5t299 -80z
M900 -55q-159 0 -302.5 61t-247 164.5t-164.5 247t-61 302.5t61 303t164.5 247.5t247 164.5t302.5 61t302.5 -61t247 -164.5t164.5 -247.5t61 -303t-61 -302.5t-164.5 -247t-247 -164.5t-302.5 -61z" />
    <glyph glyph-name="divide.uc.whitecircle" unicode="&#xf7;&#x20dd;" 
d="M1165 656h-530v138h530v-138zM803 949q0 39 27.5 64.5t69.5 25.5t70.5 -25.5t28.5 -64.5q0 -37 -28.5 -62t-70.5 -25q-41 0 -69 25t-28 62zM803 502q0 39 27.5 64t69.5 25t70.5 -25t28.5 -64q0 -38 -28.5 -63t-70.5 -25q-41 0 -69 25t-28 63zM900 125q163 0 299 80
t214 216.5t78 298.5t-78 298.5t-214 216.5t-299 80t-299 -80t-213.5 -216.5t-77.5 -298.5t77.5 -298.5t213.5 -216.5t299 -80zM900 -55q-159 0 -302.5 61t-247 164.5t-164.5 247t-61 302.5t61 303t164.5 247.5t247 164.5t302.5 61t302.5 -61t247 -164.5t164.5 -247.5
t61 -303t-61 -302.5t-164.5 -247t-247 -164.5t-302.5 -61z" />
    <glyph glyph-name="equal.uc.whitecircle" unicode="&#x3d;&#x20dd;" 
d="M1173 514h-545v156h545v-156zM1173 779h-545v155h545v-155zM900 125q163 0 299 80t214 216.5t78 298.5t-78 298.5t-214 216.5t-299 80t-299 -80t-213.5 -216.5t-77.5 -298.5t77.5 -298.5t213.5 -216.5t299 -80zM900 -55q-159 0 -302.5 61t-247 164.5t-164.5 247
t-61 302.5t61 303t164.5 247.5t247 164.5t302.5 61t302.5 -61t247 -164.5t164.5 -247.5t61 -303t-61 -302.5t-164.5 -247t-247 -164.5t-302.5 -61z" />
    <glyph glyph-name="greater.uc.whitecircle" unicode="&#x3e;&#x20dd;" 
d="M1187 778v-112l-521 -252v189l284 118v8l-284 114v194zM900 125q163 0 299 80t214 216.5t78 298.5t-78 298.5t-214 216.5t-299 80t-299 -80t-213.5 -216.5t-77.5 -298.5t77.5 -298.5t213.5 -216.5t299 -80zM900 -55q-159 0 -302.5 61t-247 164.5t-164.5 247t-61 302.5
t61 303t164.5 247.5t247 164.5t302.5 61t302.5 -61t247 -164.5t164.5 -247.5t61 -303t-61 -302.5t-164.5 -247t-247 -164.5t-302.5 -61z" />
    <glyph glyph-name="less.uc.whitecircle" unicode="&#x3c;&#x20dd;" 
d="M614 666v112l521 259v-194l-285 -114v-8l285 -118v-189zM900 125q163 0 299 80t214 216.5t78 298.5t-78 298.5t-214 216.5t-299 80t-299 -80t-213.5 -216.5t-77.5 -298.5t77.5 -298.5t213.5 -216.5t299 -80zM900 -55q-159 0 -302.5 61t-247 164.5t-164.5 247t-61 302.5
t61 303t164.5 247.5t247 164.5t302.5 61t302.5 -61t247 -164.5t164.5 -247.5t61 -303t-61 -302.5t-164.5 -247t-247 -164.5t-302.5 -61z" />
    <glyph glyph-name="numbersign.whitecircle" unicode="&#x30;&#x20dd;" 
d="M1194 777h-99l-20 -94h99l-26 -133h-100l-35 -170h-139l35 170h-93l-35 -170h-139l36 170h-97l26 133h97l20 94h-97l25 134h97l33 161h139l-34 -161h94l32 161h139l-32 -161h99zM853 788l-26 -125h119l25 125h-118zM900 125q163 0 299 80t214 216.5t78 298.5t-78 298.5
t-214 216.5t-299 80t-299 -80t-213.5 -216.5t-77.5 -298.5t77.5 -298.5t213.5 -216.5t299 -80zM900 -55q-159 0 -302.5 61t-247 164.5t-164.5 247t-61 302.5t61 303t164.5 247.5t247 164.5t302.5 61t302.5 -61t247 -164.5t164.5 -247.5t61 -303t-61 -302.5t-164.5 -247
t-247 -164.5t-302.5 -61z" />
    <glyph glyph-name="uni25BC.whitecircle" unicode="&#x25bc;&#x20dd;" 
d="M1228 947l-328 -571l-327 571h655zM900 125q163 0 299 80t214 216.5t78 298.5t-78 298.5t-214 216.5t-299 80t-299 -80t-213.5 -216.5t-77.5 -298.5t77.5 -298.5t213.5 -216.5t299 -80zM900 -55q-159 0 -302.5 61t-247 164.5t-164.5 247t-61 302.5t61 303t164.5 247.5
t247 164.5t302.5 61t302.5 -61t247 -164.5t164.5 -247.5t61 -303t-61 -302.5t-164.5 -247t-247 -164.5t-302.5 -61z" />
    <glyph glyph-name="uni25B2.whitecircle" unicode="&#x25b2;&#x20dd;" 
d="M1228 504h-655l327 570zM900 125q163 0 299 80t214 216.5t78 298.5t-78 298.5t-214 216.5t-299 80t-299 -80t-213.5 -216.5t-77.5 -298.5t77.5 -298.5t213.5 -216.5t299 -80zM900 -55q-159 0 -302.5 61t-247 164.5t-164.5 247t-61 302.5t61 303t164.5 247.5t247 164.5
t302.5 61t302.5 -61t247 -164.5t164.5 -247.5t61 -303t-61 -302.5t-164.5 -247t-247 -164.5t-302.5 -61z" />
    <glyph glyph-name="uni25C0.whitecircle" unicode="&#x25c0;&#x20dd;" 
d="M1119 399l-568 329l568 328v-657zM900 125q163 0 299 80t214 216.5t78 298.5t-78 298.5t-214 216.5t-299 80t-299 -80t-213.5 -216.5t-77.5 -298.5t77.5 -298.5t213.5 -216.5t299 -80zM900 -55q-159 0 -302.5 61t-247 164.5t-164.5 247t-61 302.5t61 303t164.5 247.5
t247 164.5t302.5 61t302.5 -61t247 -164.5t164.5 -247.5t61 -303t-61 -302.5t-164.5 -247t-247 -164.5t-302.5 -61z" />
    <glyph glyph-name="uni25B6.whitecircle" unicode="&#x25b6;&#x20dd;" 
d="M682 399v657l568 -328zM900 125q163 0 299 80t214 216.5t78 298.5t-78 298.5t-214 216.5t-299 80t-299 -80t-213.5 -216.5t-77.5 -298.5t77.5 -298.5t213.5 -216.5t299 -80zM900 -55q-159 0 -302.5 61t-247 164.5t-164.5 247t-61 302.5t61 303t164.5 247.5t247 164.5
t302.5 61t302.5 -61t247 -164.5t164.5 -247.5t61 -303t-61 -302.5t-164.5 -247t-247 -164.5t-302.5 -61z" />
    <glyph glyph-name="question.whitecircle" unicode="&#x3f;&#x20dd;" 
d="M777 461q0 43 31 67t84 24t83.5 -24t30.5 -67q0 -41 -30.5 -65.5t-83.5 -24.5t-84 24.5t-31 65.5zM800 605q-2 5 -2 31q-3 92 87 149q46 30 64 49t18 43q0 29 -19.5 44t-49.5 15q-32 0 -51.5 -19.5t-20.5 -49.5h-175q-1 108 71 163t192 55q109 0 179 -53.5t70 -146.5
q0 -56 -26 -94t-76 -70q-59 -40 -75.5 -57.5t-16.5 -46.5v-12h-169zM900 125q163 0 299 80t214 216.5t78 298.5t-78 298.5t-214 216.5t-299 80t-299 -80t-213.5 -216.5t-77.5 -298.5t77.5 -298.5t213.5 -216.5t299 -80zM900 -55q-159 0 -302.5 61t-247 164.5t-164.5 247
t-61 302.5t61 303t164.5 247.5t247 164.5t302.5 61t302.5 -61t247 -164.5t164.5 -247.5t61 -303t-61 -302.5t-164.5 -247t-247 -164.5t-302.5 -61z" />
    <glyph glyph-name="exclam.whitecircle" unicode="&#x21;&#x20dd;" 
d="M789 461q0 43 31 67.5t84 24.5t83.5 -24.5t30.5 -67.5q0 -41 -30.5 -65.5t-83.5 -24.5t-84 24.5t-31 65.5zM798 1074h213l-23 -456h-168zM900 125q163 0 299 80t214 216.5t78 298.5t-78 298.5t-214 216.5t-299 80t-299 -80t-213.5 -216.5t-77.5 -298.5t77.5 -298.5
t213.5 -216.5t299 -80zM900 -55q-159 0 -302.5 61t-247 164.5t-164.5 247t-61 302.5t61 303t164.5 247.5t247 164.5t302.5 61t302.5 -61t247 -164.5t164.5 -247.5t61 -303t-61 -302.5t-164.5 -247t-247 -164.5t-302.5 -61z" />
    <glyph glyph-name="uni2717.whitecircle" unicode="&#x2717;&#x20dd;" 
d="M904 846l226 222l119 -122l-225 -223l225 -222l-119 -123l-226 221l-227 -222l-119 123l226 223l-225 223l118 123zM900 125q163 0 299 80t214 216.5t78 298.5t-78 298.5t-214 216.5t-299 80t-299 -80t-213.5 -216.5t-77.5 -298.5t77.5 -298.5t213.5 -216.5t299 -80z
M900 -55q-159 0 -302.5 61t-247 164.5t-164.5 247t-61 302.5t61 303t164.5 247.5t247 164.5t302.5 61t302.5 -61t247 -164.5t164.5 -247.5t61 -303t-61 -302.5t-164.5 -247t-247 -164.5t-302.5 -61z" />
    <glyph glyph-name="uni2713.whitecircle" unicode="&#x2713;&#x20dd;" 
d="M1328 907l-543 -532l-311 308l125 126l188 -187l419 415zM900 125q163 0 299 80t214 216.5t78 298.5t-78 298.5t-214 216.5t-299 80t-299 -80t-213.5 -216.5t-77.5 -298.5t77.5 -298.5t213.5 -216.5t299 -80zM900 -55q-159 0 -302.5 61t-247 164.5t-164.5 247t-61 302.5
t61 303t164.5 247.5t247 164.5t302.5 61t302.5 -61t247 -164.5t164.5 -247.5t61 -303t-61 -302.5t-164.5 -247t-247 -164.5t-302.5 -61z" />
    <glyph glyph-name="zero.whitesquare" unicode="&#x30;&#x20de;" 
d="M900 529q48 0 75.5 49t27.5 149q0 197 -103 197q-102 0 -102 -197q0 -198 102 -198zM898 370q-132 0 -211 95.5t-79 261.5t79 261.5t211 95.5t213 -95.5t81 -261.5t-81 -261.5t-213 -95.5zM413 1472h975q108 0 184 -75t76 -182v-986q0 -107 -76 -182t-184 -75h-975
q-108 0 -184.5 75.5t-76.5 181.5v986q0 106 76.5 181.5t184.5 75.5zM1468 1174q0 53 -38.5 90t-94.5 37h-870q-55 0 -94 -36.5t-39 -90.5v-904q0 -52 39.5 -89.5t93.5 -37.5h870q55 0 94 37.5t39 89.5v904z" />
    <glyph glyph-name="one.whitesquare" unicode="&#x31;&#x20de;" 
d="M1040 382h-201v510h-10l-157 -106v177l167 111h201v-692zM413 1472h975q108 0 184 -75t76 -182v-986q0 -107 -76 -182t-184 -75h-975q-108 0 -184.5 75.5t-76.5 181.5v986q0 106 76.5 181.5t184.5 75.5zM1468 1174q0 53 -38.5 90t-94.5 37h-870q-55 0 -94 -36.5
t-39 -90.5v-904q0 -52 39.5 -89.5t93.5 -37.5h870q55 0 94 37.5t39 89.5v904z" />
    <glyph glyph-name="two.whitesquare" unicode="&#x32;&#x20de;" 
d="M816 845h-186v3q0 104 72.5 170.5t199.5 66.5q118 0 190.5 -57.5t72.5 -148.5q0 -55 -31.5 -103.5t-99.5 -111.5l-121 -114v-8h263v-161h-534v127l249 235q41 39 59 64.5t18 53.5q0 29 -21 47t-53 18q-37 0 -58 -22t-20 -56v-3zM413 1472h975q108 0 184 -75t76 -182v-986
q0 -107 -76 -182t-184 -75h-975q-108 0 -184.5 75.5t-76.5 181.5v986q0 106 76.5 181.5t184.5 75.5zM1468 1174q0 53 -38.5 90t-94.5 37h-870q-55 0 -94 -36.5t-39 -90.5v-904q0 -52 39.5 -89.5t93.5 -37.5h870q55 0 94 37.5t39 89.5v904z" />
    <glyph glyph-name="three.whitesquare" unicode="&#x33;&#x20de;" 
d="M825 659v149h70q37 0 60.5 19t23.5 50q0 28 -23.5 45t-60.5 17q-40 0 -64.5 -21.5t-26.5 -53.5h-183q4 104 75.5 162.5t201.5 58.5q123 0 196.5 -51t75.5 -134q1 -57 -40.5 -99.5t-91.5 -49.5v-10q60 -5 104.5 -49t45.5 -114q1 -95 -80 -151t-212 -56q-129 0 -205 61.5
t-78 160.5h183q2 -32 29 -52t70 -21q45 0 72 19.5t27 50.5q-1 31 -27 50t-70 19h-72zM413 1472h975q108 0 184 -75t76 -182v-986q0 -107 -76 -182t-184 -75h-975q-108 0 -184.5 75.5t-76.5 181.5v986q0 106 76.5 181.5t184.5 75.5zM1468 1174q0 53 -38.5 90t-94.5 37h-870
q-55 0 -94 -36.5t-39 -90.5v-904q0 -52 39.5 -89.5t93.5 -37.5h870q55 0 94 37.5t39 89.5v904z" />
    <glyph glyph-name="four.whitesquare" unicode="&#x34;&#x20de;" 
d="M834 1074h271v-428h95v-152h-95v-112h-168v112h-346v155q75 145 243 425zM763 646h174v287h-14q-116 -199 -160 -285v-2zM413 1472h975q108 0 184 -75t76 -182v-986q0 -107 -76 -182t-184 -75h-975q-108 0 -184.5 75.5t-76.5 181.5v986q0 106 76.5 181.5t184.5 75.5z
M1468 1174q0 53 -38.5 90t-94.5 37h-870q-55 0 -94 -36.5t-39 -90.5v-904q0 -52 39.5 -89.5t93.5 -37.5h870q55 0 94 37.5t39 89.5v904z" />
    <glyph glyph-name="five.whitesquare" unicode="&#x35;&#x20de;" 
d="M631 591h185q6 -30 33 -46.5t62 -16.5q40 0 68.5 26.5t28.5 68.5q0 39 -28.5 64.5t-69.5 25.5q-31 0 -54 -13.5t-34 -33.5h-177l27 414h481v-147h-330l-12 -147h9q15 27 55.5 46t94.5 19q101 0 165 -60t64 -162q0 -116 -78.5 -184.5t-211.5 -68.5q-121 0 -198.5 60.5
t-79.5 154.5zM413 1472h975q108 0 184 -75t76 -182v-986q0 -107 -76 -182t-184 -75h-975q-108 0 -184.5 75.5t-76.5 181.5v986q0 106 76.5 181.5t184.5 75.5zM1468 1174q0 53 -38.5 90t-94.5 37h-870q-55 0 -94 -36.5t-39 -90.5v-904q0 -52 39.5 -89.5t93.5 -37.5h870
q55 0 94 37.5t39 89.5v904z" />
    <glyph glyph-name="six.whitesquare" unicode="&#x36;&#x20de;" 
d="M1190 631q0 -117 -79 -189t-208 -72q-131 0 -213 73.5t-82 191.5q0 127 94 263q33 53 136 177h232q-38 -42 -99.5 -118t-81.5 -105q-16 -22 -26 -41h9q48 33 110 33q89 0 148.5 -61t59.5 -152zM806 620q0 -40 27 -65.5t69 -25.5t69 25.5t27 65.5q0 39 -27 65t-69 26
t-69 -26t-27 -65zM413 1472h975q108 0 184 -75t76 -182v-986q0 -107 -76 -182t-184 -75h-975q-108 0 -184.5 75.5t-76.5 181.5v986q0 106 76.5 181.5t184.5 75.5zM1468 1174q0 53 -38.5 90t-94.5 37h-870q-55 0 -94 -36.5t-39 -90.5v-904q0 -52 39.5 -89.5t93.5 -37.5h870
q55 0 94 37.5t39 89.5v904z" />
    <glyph glyph-name="seven.whitesquare" unicode="&#x37;&#x20de;" 
d="M633 1074h543v-162l-274 -530h-213l284 524v8h-340v160zM413 1472h975q108 0 184 -75t76 -182v-986q0 -107 -76 -182t-184 -75h-975q-108 0 -184.5 75.5t-76.5 181.5v986q0 106 76.5 181.5t184.5 75.5zM1468 1174q0 53 -38.5 90t-94.5 37h-870q-55 0 -94 -36.5t-39 -90.5
v-904q0 -52 39.5 -89.5t93.5 -37.5h870q55 0 94 37.5t39 89.5v904z" />
    <glyph glyph-name="eight.whitesquare" unicode="&#x38;&#x20de;" 
d="M900 506q44 0 73 24.5t29 61.5q0 38 -28.5 63t-73.5 25q-44 0 -73 -25t-29 -63q0 -37 29 -61.5t73 -24.5zM900 803q37 0 60.5 21t23.5 53q0 31 -24 52t-60 21t-60 -21t-24 -52q0 -32 24 -53t60 -21zM899 370q-139 0 -221.5 56t-82.5 151q0 66 42.5 110.5t113.5 55.5v9
q-127 37 -127 147q0 84 75.5 135t200.5 51t200.5 -51t75.5 -135q0 -112 -127 -147v-9q71 -11 113.5 -55.5t42.5 -110.5q0 -95 -83 -151t-223 -56zM413 1472h975q108 0 184 -75t76 -182v-986q0 -107 -76 -182t-184 -75h-975q-108 0 -184.5 75.5t-76.5 181.5v986
q0 106 76.5 181.5t184.5 75.5zM1468 1174q0 53 -38.5 90t-94.5 37h-870q-55 0 -94 -36.5t-39 -90.5v-904q0 -52 39.5 -89.5t93.5 -37.5h870q55 0 94 37.5t39 89.5v904z" />
    <glyph glyph-name="nine.whitesquare" unicode="&#x39;&#x20de;" 
d="M609 824q0 118 78.5 190t208.5 72q131 0 213 -73.5t82 -191.5q0 -68 -23 -131t-75 -138q-34 -50 -132 -171h-232q137 159 178 218l29 45l-9 1q-46 -33 -110 -33q-89 0 -148.5 61t-59.5 151zM993 836q0 39 -27 65t-69 26t-69 -26t-27 -65t27 -65t69 -26t69 26t27 65z
M413 1472h975q108 0 184 -75t76 -182v-986q0 -107 -76 -182t-184 -75h-975q-108 0 -184.5 75.5t-76.5 181.5v986q0 106 76.5 181.5t184.5 75.5zM1468 1174q0 53 -38.5 90t-94.5 37h-870q-55 0 -94 -36.5t-39 -90.5v-904q0 -52 39.5 -89.5t93.5 -37.5h870q55 0 94 37.5
t39 89.5v904z" />
    <glyph glyph-name="plus.uc.whitesquare" unicode="&#x2b;&#x20de;" 
d="M987 641v-210h-173v210h-206v171h206v207h173v-207h205v-171h-205zM413 1472h975q108 0 184 -75t76 -182v-986q0 -107 -76 -182t-184 -75h-975q-108 0 -184.5 75.5t-76.5 181.5v986q0 106 76.5 181.5t184.5 75.5zM1468 1174q0 53 -38.5 90t-94.5 37h-870q-55 0 -94 -36.5
t-39 -90.5v-904q0 -52 39.5 -89.5t93.5 -37.5h870q55 0 94 37.5t39 89.5v904z" />
    <glyph glyph-name="minus.uc.whitesquare" unicode="&#x2212;&#x20de;" 
d="M1165 636h-530v178h530v-178zM413 1472h975q108 0 184 -75t76 -182v-986q0 -107 -76 -182t-184 -75h-975q-108 0 -184.5 75.5t-76.5 181.5v986q0 106 76.5 181.5t184.5 75.5zM1468 1174q0 53 -38.5 90t-94.5 37h-870q-55 0 -94 -36.5t-39 -90.5v-904q0 -52 39.5 -89.5
t93.5 -37.5h870q55 0 94 37.5t39 89.5v904z" />
    <glyph glyph-name="multiply.uc.whitesquare" unicode="&#xd7;&#x20de;" 
d="M900 851l159 156l123 -125l-160 -156l160 -156l-123 -126l-159 156l-160 -156l-122 126l159 156l-159 156l122 125zM413 1472h975q108 0 184 -75t76 -182v-986q0 -107 -76 -182t-184 -75h-975q-108 0 -184.5 75.5t-76.5 181.5v986q0 106 76.5 181.5t184.5 75.5z
M1468 1174q0 53 -38.5 90t-94.5 37h-870q-55 0 -94 -36.5t-39 -90.5v-904q0 -52 39.5 -89.5t93.5 -37.5h870q55 0 94 37.5t39 89.5v904z" />
    <glyph glyph-name="divide.uc.whitesquare" unicode="&#xf7;&#x20de;" 
d="M1165 656h-530v138h530v-138zM803 949q0 39 27.5 64.5t69.5 25.5t70.5 -25.5t28.5 -64.5q0 -37 -28.5 -62t-70.5 -25q-41 0 -69 25t-28 62zM803 502q0 39 27.5 64t69.5 25t70.5 -25t28.5 -64q0 -38 -28.5 -63t-70.5 -25q-41 0 -69 25t-28 63zM413 1472h975q108 0 184 -75
t76 -182v-986q0 -107 -76 -182t-184 -75h-975q-108 0 -184.5 75.5t-76.5 181.5v986q0 106 76.5 181.5t184.5 75.5zM1468 1174q0 53 -38.5 90t-94.5 37h-870q-55 0 -94 -36.5t-39 -90.5v-904q0 -52 39.5 -89.5t93.5 -37.5h870q55 0 94 37.5t39 89.5v904z" />
    <glyph glyph-name="equal.uc.whitesquare" unicode="&#x3d;&#x20de;" 
d="M1173 514h-545v156h545v-156zM1173 779h-545v155h545v-155zM413 1472h975q108 0 184 -75t76 -182v-986q0 -107 -76 -182t-184 -75h-975q-108 0 -184.5 75.5t-76.5 181.5v986q0 106 76.5 181.5t184.5 75.5zM1468 1174q0 53 -38.5 90t-94.5 37h-870q-55 0 -94 -36.5
t-39 -90.5v-904q0 -52 39.5 -89.5t93.5 -37.5h870q55 0 94 37.5t39 89.5v904z" />
    <glyph glyph-name="greater.uc.whitesquare" unicode="&#x3e;&#x20de;" 
d="M1187 778v-112l-521 -252v189l284 118v8l-284 114v194zM413 1472h975q108 0 184 -75t76 -182v-986q0 -107 -76 -182t-184 -75h-975q-108 0 -184.5 75.5t-76.5 181.5v986q0 106 76.5 181.5t184.5 75.5zM1468 1174q0 53 -38.5 90t-94.5 37h-870q-55 0 -94 -36.5t-39 -90.5
v-904q0 -52 39.5 -89.5t93.5 -37.5h870q55 0 94 37.5t39 89.5v904z" />
    <glyph glyph-name="less.uc.whitesquare" unicode="&#x3c;&#x20de;" 
d="M614 666v112l521 259v-194l-285 -114v-8l285 -118v-189zM413 1472h975q108 0 184 -75t76 -182v-986q0 -107 -76 -182t-184 -75h-975q-108 0 -184.5 75.5t-76.5 181.5v986q0 106 76.5 181.5t184.5 75.5zM1468 1174q0 53 -38.5 90t-94.5 37h-870q-55 0 -94 -36.5t-39 -90.5
v-904q0 -52 39.5 -89.5t93.5 -37.5h870q55 0 94 37.5t39 89.5v904z" />
    <glyph glyph-name="numbersign.whitesquare" unicode="&#x23;&#x20de;" 
d="M1194 777h-99l-20 -94h99l-26 -133h-100l-35 -170h-139l35 170h-93l-35 -170h-139l36 170h-97l26 133h97l20 94h-97l25 134h97l33 161h139l-34 -161h94l32 161h139l-32 -161h99zM853 788l-26 -125h119l25 125h-118zM413 1472h975q108 0 184 -75t76 -182v-986
q0 -107 -76 -182t-184 -75h-975q-108 0 -184.5 75.5t-76.5 181.5v986q0 106 76.5 181.5t184.5 75.5zM1468 1174q0 53 -38.5 90t-94.5 37h-870q-55 0 -94 -36.5t-39 -90.5v-904q0 -52 39.5 -89.5t93.5 -37.5h870q55 0 94 37.5t39 89.5v904z" />
    <glyph glyph-name="uni25BC.whitesquare" unicode="&#x25bc;&#x20de;" 
d="M1229 947l-328 -571l-328 571h656zM413 1472h975q108 0 184 -75t76 -182v-986q0 -107 -76 -182t-184 -75h-975q-108 0 -184.5 75.5t-76.5 181.5v986q0 106 76.5 181.5t184.5 75.5zM1468 1174q0 53 -38.5 90t-94.5 37h-870q-55 0 -94 -36.5t-39 -90.5v-904
q0 -52 39.5 -89.5t93.5 -37.5h870q55 0 94 37.5t39 89.5v904z" />
    <glyph glyph-name="uni25B2.whitesquare" unicode="&#x25b2;&#x20de;" 
d="M1228 504h-655l327 570zM413 1472h975q108 0 184 -75t76 -182v-986q0 -107 -76 -182t-184 -75h-975q-108 0 -184.5 75.5t-76.5 181.5v986q0 106 76.5 181.5t184.5 75.5zM1468 1174q0 53 -38.5 90t-94.5 37h-870q-55 0 -94 -36.5t-39 -90.5v-904q0 -52 39.5 -89.5
t93.5 -37.5h870q55 0 94 37.5t39 89.5v904z" />
    <glyph glyph-name="uni25C0.whitesquare" unicode="&#x25c0;&#x20de;" 
d="M1119 399l-568 329l568 328v-657zM413 1472h975q108 0 184 -75t76 -182v-986q0 -107 -76 -182t-184 -75h-975q-108 0 -184.5 75.5t-76.5 181.5v986q0 106 76.5 181.5t184.5 75.5zM1468 1174q0 53 -38.5 90t-94.5 37h-870q-55 0 -94 -36.5t-39 -90.5v-904
q0 -52 39.5 -89.5t93.5 -37.5h870q55 0 94 37.5t39 89.5v904z" />
    <glyph glyph-name="uni25B6.whitesquare" unicode="&#x25b6;&#x20de;" 
d="M682 399v657l568 -328zM413 1472h975q108 0 184 -75t76 -182v-986q0 -107 -76 -182t-184 -75h-975q-108 0 -184.5 75.5t-76.5 181.5v986q0 106 76.5 181.5t184.5 75.5zM1468 1174q0 53 -38.5 90t-94.5 37h-870q-55 0 -94 -36.5t-39 -90.5v-904q0 -52 39.5 -89.5
t93.5 -37.5h870q55 0 94 37.5t39 89.5v904z" />
    <glyph glyph-name="question.whitesquare" unicode="&#x3f;&#x20de;" 
d="M777 461q0 43 31 67t84 24t83.5 -24t30.5 -67q0 -41 -30.5 -65.5t-83.5 -24.5t-84 24.5t-31 65.5zM651 867q-1 108 71 163t192 55q109 0 179 -53.5t70 -146.5q0 -56 -26 -94t-76 -70q-59 -40 -75.5 -57.5t-16.5 -46.5v-12h-169q-2 5 -2 31q-3 92 87 149q46 30 64 49
t18 43q0 29 -19.5 44t-49.5 15q-32 0 -51.5 -19.5t-20.5 -49.5h-175zM413 1472h975q108 0 184 -75t76 -182v-986q0 -107 -76 -182t-184 -75h-975q-108 0 -184.5 75.5t-76.5 181.5v986q0 106 76.5 181.5t184.5 75.5zM1468 1174q0 53 -38.5 90t-94.5 37h-870q-55 0 -94 -36.5
t-39 -90.5v-904q0 -52 39.5 -89.5t93.5 -37.5h870q55 0 94 37.5t39 89.5v904z" />
    <glyph glyph-name="exclam.whitesquare" unicode="&#x21;&#x20de;" 
d="M789 461q0 43 31 67.5t84 24.5t83.5 -24.5t30.5 -67.5q0 -41 -30.5 -65.5t-83.5 -24.5t-84 24.5t-31 65.5zM798 1074h213l-23 -456h-168zM413 1472h975q108 0 184 -75t76 -182v-986q0 -107 -76 -182t-184 -75h-975q-108 0 -184.5 75.5t-76.5 181.5v986q0 106 76.5 181.5
t184.5 75.5zM1468 1174q0 53 -38.5 90t-94.5 37h-870q-55 0 -94 -36.5t-39 -90.5v-904q0 -52 39.5 -89.5t93.5 -37.5h870q55 0 94 37.5t39 89.5v904z" />
    <glyph glyph-name="uni2717.whitesquare" unicode="&#x2717;&#x20de;" 
d="M904 846l226 222l119 -122l-225 -223l225 -222l-119 -123l-226 221l-227 -222l-119 123l226 223l-225 223l118 123zM413 1472h975q108 0 184 -75t76 -182v-986q0 -107 -76 -182t-184 -75h-975q-108 0 -184.5 75.5t-76.5 181.5v986q0 106 76.5 181.5t184.5 75.5z
M1468 1174q0 53 -38.5 90t-94.5 37h-870q-55 0 -94 -36.5t-39 -90.5v-904q0 -52 39.5 -89.5t93.5 -37.5h870q55 0 94 37.5t39 89.5v904z" />
    <glyph glyph-name="uni2713.whitesquare" unicode="&#x2713;&#x20de;" 
d="M1328 907l-543 -532l-311 308l125 126l188 -187l419 415zM413 1472h975q108 0 184 -75t76 -182v-986q0 -107 -76 -182t-184 -75h-975q-108 0 -184.5 75.5t-76.5 181.5v986q0 106 76.5 181.5t184.5 75.5zM1468 1174q0 53 -38.5 90t-94.5 37h-870q-55 0 -94 -36.5
t-39 -90.5v-904q0 -52 39.5 -89.5t93.5 -37.5h870q55 0 94 37.5t39 89.5v904z" />
    <glyph glyph-name="plus.uc.blackcircle" unicode="&#x2b;&#x20dd;&#x25cf;" 
d="M996 632h222v188h-222v223h-192v-223h-222v-188h222v-226h192v226zM900 -53q-157 0 -300 61.5t-247 165.5t-165.5 247.5t-61.5 300.5q0 209 104 387.5t282.5 282.5t387.5 104q157 0 300.5 -61.5t247.5 -165.5t165.5 -247t61.5 -300t-61.5 -300.5t-165.5 -247.5
t-247.5 -165.5t-300.5 -61.5z" />
    <glyph glyph-name="minus.uc.blackcircle" unicode="&#x2212;&#x20dd;&#x25cf;" 
d="M1189 626v196h-578v-196h578zM900 -53q-157 0 -300 61.5t-247 165.5t-165.5 247.5t-61.5 300.5q0 209 104 387.5t282.5 282.5t387.5 104q157 0 300.5 -61.5t247.5 -165.5t165.5 -247t61.5 -300t-61.5 -300.5t-165.5 -247.5t-247.5 -165.5t-300.5 -61.5z" />
    <glyph glyph-name="multiply.uc.blackcircle" unicode="&#xd7;&#x20dd;&#x25cf;" 
d="M900 863l-173 169l-135 -139l172 -168l-172 -168l135 -138l173 167l172 -167l136 138l-173 168l173 168l-136 139zM900 -53q-157 0 -300 61.5t-247 165.5t-165.5 247.5t-61.5 300.5q0 209 104 387.5t282.5 282.5t387.5 104q157 0 300.5 -61.5t247.5 -165.5t165.5 -247
t61.5 -300t-61.5 -300.5t-165.5 -247.5t-247.5 -165.5t-300.5 -61.5z" />
    <glyph glyph-name="divide.uc.blackcircle" unicode="&#xf7;&#x20dd;&#x25cf;" 
d="M792 966q0 -42 31 -69.5t77 -27.5t77.5 27.5t31.5 69.5q0 43 -31 71t-78 28q-46 0 -77 -28t-31 -71zM1189 648v153h-578v-153h578zM792 484q0 -42 31 -69.5t77 -27.5q47 0 78 27.5t31 69.5q0 43 -31 71t-78 28q-46 0 -77 -28t-31 -71zM900 -53q-157 0 -300 61.5
t-247 165.5t-165.5 247.5t-61.5 300.5q0 209 104 387.5t282.5 282.5t387.5 104q157 0 300.5 -61.5t247.5 -165.5t165.5 -247t61.5 -300t-61.5 -300.5t-165.5 -247.5t-247.5 -165.5t-300.5 -61.5z" />
    <glyph glyph-name="equal.uc.blackcircle" unicode="&#x3d;&#x20dd;&#x25cf;" 
d="M1196 783v170h-592v-170h592zM1196 494v169h-592v-169h592zM900 -53q-157 0 -300 61.5t-247 165.5t-165.5 247.5t-61.5 300.5q0 209 104 387.5t282.5 282.5t387.5 104q157 0 300.5 -61.5t247.5 -165.5t165.5 -247t61.5 -300t-61.5 -300.5t-165.5 -247.5t-247.5 -165.5
t-300.5 -61.5z" />
    <glyph glyph-name="greater.uc.blackcircle" unicode="&#x3e;&#x20dd;&#x25cf;" 
d="M1207 783l-569 283v-205l308 -136v-3l-308 -140v-198l569 275v124zM900 -53q-157 0 -300 61.5t-247 165.5t-165.5 247.5t-61.5 300.5q0 209 104 387.5t282.5 282.5t387.5 104q157 0 300.5 -61.5t247.5 -165.5t165.5 -247t61.5 -300t-61.5 -300.5t-165.5 -247.5
t-247.5 -165.5t-300.5 -61.5z" />
    <glyph glyph-name="less.uc.blackcircle" unicode="&#x3c;&#x20dd;&#x25cf;" 
d="M590 659l568 -275v198l-307 140v3l307 136v205l-568 -283v-124zM900 -53q-157 0 -300 61.5t-247 165.5t-165.5 247.5t-61.5 300.5q0 209 104 387.5t282.5 282.5t387.5 104q157 0 300.5 -61.5t247.5 -165.5t165.5 -247t61.5 -300t-61.5 -300.5t-165.5 -247.5
t-247.5 -165.5t-300.5 -61.5z" />
    <glyph glyph-name="numbersign.blackcircle" unicode="&#x23;&#x20dd;&#x25cf;" 
d="M844 798h135l-29 -144h-135zM1218 778l29 150h-108l35 174h-158l-34 -174h-93l37 174h-159l-34 -174h-105l-29 -150h105l-20 -93h-105l-29 -152h103l-37 -183h157l39 183h91l-38 -183h158l37 183h109l29 152h-106q1 6 10 48.5t9 44.5h107zM900 -53q-157 0 -300 61.5
t-247 165.5t-165.5 247.5t-61.5 300.5q0 209 104 387.5t282.5 282.5t387.5 104q157 0 300.5 -61.5t247.5 -165.5t165.5 -247t61.5 -300t-61.5 -300.5t-165.5 -247.5t-247.5 -165.5t-300.5 -61.5z" />
    <glyph glyph-name="uni25BC.blackcircle" unicode="&#x25bc;&#x20dd;&#x25cf;" 
d="M1250 981h-698l348 -604zM900 -53q-157 0 -300 61.5t-247 165.5t-165.5 247.5t-61.5 300.5q0 209 104 387.5t282.5 282.5t387.5 104q157 0 300.5 -61.5t247.5 -165.5t165.5 -247t61.5 -300t-61.5 -300.5t-165.5 -247.5t-247.5 -165.5t-300.5 -61.5z" />
    <glyph glyph-name="uni25B2.blackcircle" unicode="&#x25b2;&#x20dd;&#x25cf;" 
d="M1250 488l-350 604l-348 -604h698zM900 -53q-157 0 -300 61.5t-247 165.5t-165.5 247.5t-61.5 300.5q0 209 104 387.5t282.5 282.5t387.5 104q157 0 300.5 -61.5t247.5 -165.5t165.5 -247t61.5 -300t-61.5 -300.5t-165.5 -247.5t-247.5 -165.5t-300.5 -61.5z" />
    <glyph glyph-name="uni25C0.blackcircle" unicode="&#x25c0;&#x20dd;&#x25cf;" 
d="M1137 386v697l-605 -348zM900 -53q-157 0 -300 61.5t-247 165.5t-165.5 247.5t-61.5 300.5q0 209 104 387.5t282.5 282.5t387.5 104q157 0 300.5 -61.5t247.5 -165.5t165.5 -247t61.5 -300t-61.5 -300.5t-165.5 -247.5t-247.5 -165.5t-300.5 -61.5z" />
    <glyph glyph-name="uni25B6.blackcircle" unicode="&#x25b6;&#x20dd;&#x25cf;" 
d="M663 386l605 349l-605 348v-697zM900 -53q-157 0 -300 61.5t-247 165.5t-165.5 247.5t-61.5 300.5q0 209 104 387.5t282.5 282.5t387.5 104q157 0 300.5 -61.5t247.5 -165.5t165.5 -247t61.5 -300t-61.5 -300.5t-165.5 -247.5t-247.5 -165.5t-300.5 -61.5z" />
    <glyph glyph-name="question.blackcircle" unicode="&#x3f;&#x20dd;&#x25cf;" 
d="M760 429q0 -48 34 -75t93 -27q60 0 93.5 27.5t33.5 74.5t-34 74.5t-93 27.5t-93 -27t-34 -75zM784 592h190v15q0 32 15.5 49.5t70.5 51.5q68 46 95 83.5t27 104.5q0 101 -76.5 160.5t-194.5 59.5q-131 0 -209.5 -60t-78.5 -180v-2l199 3q0 36 19.5 58t54.5 22
q32 0 52.5 -17t20.5 -49q0 -25 -16.5 -43t-49 -40.5t-49.5 -40.5q-76 -61 -72 -138q0 -31 2 -37zM901 -53q-157 0 -300 61.5t-247 165.5t-165.5 247.5t-61.5 300.5q0 209 104 387.5t282.5 282.5t387.5 104q157 0 300.5 -61.5t247.5 -165.5t165.5 -247t61.5 -300
t-61.5 -300.5t-165.5 -247.5t-247.5 -165.5t-300.5 -61.5z" />
    <glyph glyph-name="exclam.blackcircle" unicode="&#x21;&#x20dd;&#x25cf;" 
d="M783 1105l24 -500h189l25 500h-238zM776 429q0 -47 34 -74t93 -27t92.5 27t33.5 74t-34 74.5t-92 27.5q-59 0 -93 -27t-34 -75zM900 -53q-157 0 -300 61.5t-247 165.5t-165.5 247.5t-61.5 300.5q0 209 104 387.5t282.5 282.5t387.5 104q157 0 300.5 -61.5t247.5 -165.5
t165.5 -247t61.5 -300t-61.5 -300.5t-165.5 -247.5t-247.5 -165.5t-300.5 -61.5z" />
    <glyph glyph-name="uni2717.blackcircle" unicode="&#x2717;&#x20dd;&#x25cf;" 
d="M901 855l-244 241l-130 -133l245 -241l-245 -241l130 -134l244 240l244 -239l130 134l-244 240l244 240l-130 133zM900 -53q-157 0 -300 61.5t-247 165.5t-165.5 247.5t-61.5 300.5q0 209 104 387.5t282.5 282.5t387.5 104q157 0 300.5 -61.5t247.5 -165.5t165.5 -247
t61.5 -300t-61.5 -300.5t-165.5 -247.5t-247.5 -165.5t-300.5 -61.5z" />
    <glyph glyph-name="uni2713.blackcircle" unicode="&#x2713;&#x20dd;&#x25cf;" 
d="M772 358l593 582l-135 143l-456 -451l-205 203l-137 -139zM900 -53q-157 0 -300 61.5t-247 165.5t-165.5 247.5t-61.5 300.5q0 209 104 387.5t282.5 282.5t387.5 104q157 0 300.5 -61.5t247.5 -165.5t165.5 -247t61.5 -300t-61.5 -300.5t-165.5 -247.5t-247.5 -165.5
t-300.5 -61.5z" />
    <glyph glyph-name="zero.blacksquare" unicode="&#x30;&#x20de;&#x25a0;" 
d="M898 506q-105 0 -105 221q0 220 105 220t105 -220q0 -221 -105 -221zM896 338q147 0 234.5 104t87.5 285t-87.5 285t-234.5 104q-146 0 -231.5 -104t-85.5 -285t85.5 -285t231.5 -104zM413 1472h975q108 0 184 -75t76 -182v-986q0 -107 -76 -182t-184 -75h-975
q-108 0 -184.5 75.5t-76.5 181.5v986q0 106 76.5 181.5t184.5 75.5z" />
    <glyph glyph-name="one.blacksquare" unicode="&#x31;&#x20de;&#x25a0;" 
d="M1054 351v752h-221l-183 -121v-200l176 117h5v-548h223zM413 1472h975q108 0 184 -75t76 -182v-986q0 -107 -76 -182t-184 -75h-975q-108 0 -184.5 75.5t-76.5 181.5v986q0 106 76.5 181.5t184.5 75.5z" />
    <glyph glyph-name="two.blacksquare" unicode="&#x32;&#x20de;&#x25a0;" 
d="M802 849v5q0 42 23 68t65 26q36 0 59.5 -20t23.5 -51q0 -34 -21.5 -65t-74.5 -81l-263 -240v-141h583v180h-294v3l139 127q72 66 105.5 119t33.5 116q0 94 -79 157t-200 63q-140 0 -220.5 -73.5t-80.5 -187.5v-5h201zM413 1472h975q108 0 184 -75t76 -182v-986
q0 -107 -76 -182t-184 -75h-975q-108 0 -184.5 75.5t-76.5 181.5v986q0 106 76.5 181.5t184.5 75.5z" />
    <glyph glyph-name="three.blacksquare" unicode="&#x33;&#x20de;&#x25a0;" 
d="M812 657h82q47 0 75.5 -21t29.5 -56q0 -34 -29 -55.5t-77 -21.5q-47 1 -76.5 23t-32.5 57h-201q2 -107 86.5 -175.5t223.5 -68.5q141 0 230 62t88 166q-1 74 -49.5 122.5t-111.5 54.5v6q54 8 97.5 54t42.5 108q-2 91 -82.5 147t-212.5 56q-143 0 -221 -64t-83 -179h203
q2 37 27.5 59t69.5 22q39 0 64 -19.5t26 -50.5q0 -32 -25.5 -52t-66.5 -20h-77v-154zM413 1472h975q108 0 184 -75t76 -182v-986q0 -107 -76 -182t-184 -75h-975q-108 0 -184.5 75.5t-76.5 181.5v986q0 106 76.5 181.5t184.5 75.5z" />
    <glyph glyph-name="four.blacksquare" unicode="&#x34;&#x20de;&#x25a0;" 
d="M823 1103q-175 -284 -263 -461v-170h372v-121h189v121h102v170h-102v461h-298zM753 643q12 24 170 299h9v-300h-179v1zM413 1472h975q108 0 184 -75t76 -182v-986q0 -107 -76 -182t-184 -75h-975q-108 0 -184.5 75.5t-76.5 181.5v986q0 106 76.5 181.5t184.5 75.5z" />
    <glyph glyph-name="five.blacksquare" unicode="&#x35;&#x20de;&#x25a0;" 
d="M602 582q2 -106 85.5 -172t217.5 -66q144 0 230 75t86 202q0 111 -70.5 176.5t-180.5 65.5q-58 0 -101 -20t-61 -49h-5q1 15 6 78t6 78h356v159h-525l-29 -451h189q12 24 39 41t62 17q47 0 77.5 -28.5t30.5 -74.5q0 -48 -31.5 -77t-75.5 -29q-41 0 -71 20t-37 55h-198z
M413 1472h975q108 0 184 -75t76 -182v-986q0 -107 -76 -182t-184 -75h-975q-108 0 -184.5 75.5t-76.5 181.5v986q0 106 76.5 181.5t184.5 75.5z" />
    <glyph glyph-name="six.blacksquare" unicode="&#x36;&#x20de;&#x25a0;" 
d="M1219 623q0 98 -64.5 163.5t-161.5 65.5q-67 0 -120 -35l-10 1q7 14 32 47q82 113 193 238h-251q-104 -125 -145 -187q-56 -81 -80 -148.5t-24 -141.5q0 -128 88.5 -208t230.5 -80q141 0 226.5 78t85.5 207zM795 609q0 46 31.5 76.5t79.5 30.5q49 0 80.5 -30.5
t31.5 -76.5t-31.5 -76t-80.5 -30t-80 30t-31 76zM413 1472h975q108 0 184 -75t76 -182v-986q0 -107 -76 -182t-184 -75h-975q-108 0 -184.5 75.5t-76.5 181.5v986q0 106 76.5 181.5t184.5 75.5z" />
    <glyph glyph-name="seven.blacksquare" unicode="&#x37;&#x20de;&#x25a0;" 
d="M605 1103v-180h366v-3l-309 -569h237l297 573v179h-591zM413 1472h975q108 0 184 -75t76 -182v-986q0 -107 -76 -182t-184 -75h-975q-108 0 -184.5 75.5t-76.5 181.5v986q0 106 76.5 181.5t184.5 75.5z" />
    <glyph glyph-name="eight.blacksquare" unicode="&#x38;&#x20de;&#x25a0;" 
d="M898 801q-41 0 -67.5 24t-26.5 61q0 38 26 62.5t68 24.5q43 0 69 -24.5t26 -62.5t-26.5 -61.5t-68.5 -23.5zM898 482q-50 0 -82 27.5t-32 71.5q0 43 32 71t82 28t82.5 -28t32.5 -71t-32.5 -71t-82.5 -28zM898 338q153 0 242.5 61t89.5 166q0 71 -44.5 119t-122.5 61v3
q135 40 135 163q0 93 -81.5 148.5t-218.5 55.5q-136 0 -217.5 -55.5t-81.5 -148.5q0 -123 135 -163v-3q-78 -13 -122.5 -61t-44.5 -119q0 -104 89.5 -165.5t241.5 -61.5zM413 1472h975q108 0 184 -75t76 -182v-986q0 -107 -76 -182t-184 -75h-975q-108 0 -184.5 75.5
t-76.5 181.5v986q0 106 76.5 181.5t184.5 75.5z" />
    <glyph glyph-name="nine.blacksquare" unicode="&#x39;&#x20de;&#x25a0;" 
d="M578 832q0 -99 64.5 -164.5t161.5 -65.5q68 0 120 35l10 -1q-9 -17 -32 -48q-78 -106 -193 -237h251q118 148 142 184q57 81 82 149.5t25 143.5q0 129 -88.5 208.5t-230.5 79.5q-141 0 -226.5 -78t-85.5 -206zM1002 845q0 -46 -31.5 -76.5t-79.5 -30.5q-49 0 -80.5 30.5
t-31.5 76.5t31.5 76.5t80.5 30.5q48 0 79.5 -30.5t31.5 -76.5zM413 1472h975q108 0 184 -75t76 -182v-986q0 -107 -76 -182t-184 -75h-975q-108 0 -184.5 75.5t-76.5 181.5v986q0 106 76.5 181.5t184.5 75.5z" />
    <glyph glyph-name="plus.uc.blacksquare" unicode="&#x2b;&#x20de;&#x25a0;" 
d="M996 632h222v188h-222v223h-192v-223h-222v-188h222v-226h192v226zM413 1472h975q108 0 184 -75t76 -182v-986q0 -107 -76 -182t-184 -75h-975q-108 0 -184.5 75.5t-76.5 181.5v986q0 106 76.5 181.5t184.5 75.5z" />
    <glyph glyph-name="minus.uc.blacksquare" unicode="&#x2212;&#x20de;&#x25a0;" 
d="M1189 626v196h-578v-196h578zM413 1472h975q108 0 184 -75t76 -182v-986q0 -107 -76 -182t-184 -75h-975q-108 0 -184.5 75.5t-76.5 181.5v986q0 106 76.5 181.5t184.5 75.5z" />
    <glyph glyph-name="multiply.uc.blacksquare" unicode="&#xd7;&#x20de;&#x25a0;" 
d="M900 863l-173 169l-135 -139l172 -168l-172 -168l135 -138l173 167l172 -167l136 138l-173 168l173 168l-136 139zM413 1472h975q108 0 184 -75t76 -182v-986q0 -107 -76 -182t-184 -75h-975q-108 0 -184.5 75.5t-76.5 181.5v986q0 106 76.5 181.5t184.5 75.5z" />
    <glyph glyph-name="divide.uc.blacksquare" unicode="&#xf7;&#x20de;&#x25a0;" 
d="M792 966q0 -42 31 -69.5t77 -27.5t77.5 27.5t31.5 69.5q0 43 -31 71t-78 28q-46 0 -77 -28t-31 -71zM1189 648v153h-578v-153h578zM792 484q0 -42 31 -69.5t77 -27.5q47 0 78 27.5t31 69.5q0 43 -31 71t-78 28q-46 0 -77 -28t-31 -71zM413 1472h975q108 0 184 -75
t76 -182v-986q0 -107 -76 -182t-184 -75h-975q-108 0 -184.5 75.5t-76.5 181.5v986q0 106 76.5 181.5t184.5 75.5z" />
    <glyph glyph-name="equal.uc.blacksquare" unicode="&#x3d;&#x20de;&#x25a0;" 
d="M1196 783v170h-592v-170h592zM1196 494v169h-592v-169h592zM413 1472h975q108 0 184 -75t76 -182v-986q0 -107 -76 -182t-184 -75h-975q-108 0 -184.5 75.5t-76.5 181.5v986q0 106 76.5 181.5t184.5 75.5z" />
    <glyph glyph-name="greater.uc.blacksquare" unicode="&#x3e;&#x20de;&#x25a0;" 
d="M1207 783l-569 283v-205l308 -136v-3l-308 -140v-198l569 275v124zM413 1472h975q108 0 184 -75t76 -182v-986q0 -107 -76 -182t-184 -75h-975q-108 0 -184.5 75.5t-76.5 181.5v986q0 106 76.5 181.5t184.5 75.5z" />
    <glyph glyph-name="less.uc.blacksquare" unicode="&#x3c;&#x20de;&#x25a0;" 
d="M590 659l568 -275v198l-153.5 70l-153.5 70v3l307 136v205l-568 -283v-124zM413 1472h975q108 0 184 -75t76 -182v-986q0 -107 -76 -182t-184 -75h-975q-108 0 -184.5 75.5t-76.5 181.5v986q0 106 76.5 181.5t184.5 75.5z" />
    <glyph glyph-name="numbersign.blacksquare" unicode="&#x23;&#x20de;&#x25a0;" 
d="M844 798h135l-29 -144h-135zM1218 778l29 150h-108l35 174h-158l-34 -174h-93l37 174h-159l-34 -174h-105l-29 -150h105l-20 -93h-105l-29 -152h103l-37 -183h157l39 183h91l-38 -183h158l37 183h109l29 152h-106q1 6 10 48.5t9 44.5h107zM413 1472h975q108 0 184 -75
t76 -182v-986q0 -107 -76 -182t-184 -75h-975q-108 0 -184.5 75.5t-76.5 181.5v986q0 106 76.5 181.5t184.5 75.5z" />
    <glyph glyph-name="uni25BC.blacksquare" unicode="&#x25bc;&#x20de;&#x25a0;" 
d="M1250 979h-698l348 -605zM413 1472h975q108 0 184 -75t76 -182v-986q0 -107 -76 -182t-184 -75h-975q-108 0 -184.5 75.5t-76.5 181.5v986q0 106 76.5 181.5t184.5 75.5z" />
    <glyph glyph-name="uni25B2.blacksquare" unicode="&#x25b2;&#x20de;&#x25a0;" 
d="M1250 488l-350 604l-348 -604h698zM413 1472h975q108 0 184 -75t76 -182v-986q0 -107 -76 -182t-184 -75h-975q-108 0 -184.5 75.5t-76.5 181.5v986q0 106 76.5 181.5t184.5 75.5z" />
    <glyph glyph-name="uni25C0.blacksquare" unicode="&#x25c0;&#x20de;&#x25a0;" 
d="M1137 386v697l-605 -348zM413 1472h975q108 0 184 -75t76 -182v-986q0 -107 -76 -182t-184 -75h-975q-108 0 -184.5 75.5t-76.5 181.5v986q0 106 76.5 181.5t184.5 75.5z" />
    <glyph glyph-name="uni25B6.blacksquare" unicode="&#x25b6;&#x20de;&#x25a0;" 
d="M663 386l605 349l-605 348v-697zM413 1472h975q108 0 184 -75t76 -182v-986q0 -107 -76 -182t-184 -75h-975q-108 0 -184.5 75.5t-76.5 181.5v986q0 106 76.5 181.5t184.5 75.5z" />
    <glyph glyph-name="question.blacksquare" unicode="&#x3f;&#x20de;&#x25a0;" 
d="M760 429q0 -48 34 -75t93 -27q60 0 93.5 27.5t33.5 74.5t-34 74.5t-93 27.5t-93 -27t-34 -75zM911 1116q-131 0 -209.5 -60t-78.5 -180v-2l199 3q0 36 19.5 58t54.5 22q32 0 52.5 -17t20.5 -49q0 -25 -16.5 -43t-49 -40.5t-49.5 -40.5q-76 -61 -72 -138q0 -31 2 -37h190
v15q0 32 15.5 49.5t70.5 51.5q68 46 95 83.5t27 104.5q0 101 -76.5 160.5t-194.5 59.5zM413 1472h975q108 0 184 -75t76 -182v-986q0 -107 -76 -182t-184 -75h-975q-108 0 -184.5 75.5t-76.5 181.5v986q0 106 76.5 181.5t184.5 75.5z" />
    <glyph glyph-name="exclam.blacksquare" unicode="&#x21;&#x20de;&#x25a0;" 
d="M783 1105l24 -500h189l25 500h-238zM776 429q0 -47 34 -74t93 -27t92.5 27t33.5 74t-34 74.5t-92 27.5q-59 0 -93 -27t-34 -75zM413 1472h975q108 0 184 -75t76 -182v-986q0 -107 -76 -182t-184 -75h-975q-108 0 -184.5 75.5t-76.5 181.5v986q0 106 76.5 181.5
t184.5 75.5z" />
    <glyph glyph-name="uni2717.blacksquare" unicode="&#x2717;&#x20de;&#x25a0;" 
d="M527 963l245 -241l-245 -241l130 -134l244 240l244 -239l130 134l-244 240l244 240l-130 133l-244 -240l-244 241zM413 1472h975q108 0 184 -75t76 -182v-986q0 -107 -76 -182t-184 -75h-975q-108 0 -184.5 75.5t-76.5 181.5v986q0 106 76.5 181.5t184.5 75.5z" />
    <glyph glyph-name="uni2713.blacksquare" unicode="&#x2713;&#x20de;&#x25a0;" 
d="M772 358l593 582l-135 143l-456 -451l-205 203l-137 -139zM413 1472h975q108 0 184 -75t76 -182v-986q0 -107 -76 -182t-184 -75h-975q-108 0 -184.5 75.5t-76.5 181.5v986q0 106 76.5 181.5t184.5 75.5z" />
    <glyph glyph-name=".notdef" horiz-adv-x="2048" 
d="M100 -494v198h1848v-198h-1848zM100 -45v198h1848v-198h-1848zM100 404v199h1848v-199h-1848zM100 853v199h1848v-199h-1848zM100 1303v198h1848v-198h-1848zM100 1752v198h1848v-198h-1848z" />
    <glyph glyph-name=".null" horiz-adv-x="0" 
 />
    <glyph glyph-name="nonmarkingreturn" horiz-adv-x="0" 
 />
    <glyph glyph-name="space" unicode=" " horiz-adv-x="528" 
 />
    <glyph glyph-name="exclam" unicode="!" horiz-adv-x="730" 
d="M205 1443h320l-27 -968h-267zM365 -30q-84 0 -133 45.5t-49 124.5t49 125t133 46q85 0 133.5 -45.5t48.5 -125.5q0 -79 -48.5 -124.5t-133.5 -45.5z" />
    <glyph glyph-name="quotedbl" unicode="&#x22;" horiz-adv-x="1016" 
d="M402 831h-250v612h250v-612zM864 831h-250v612h250v-612z" />
    <glyph glyph-name="numbersign" unicode="#" horiz-adv-x="1360" 
d="M661 0l77 378h-260l-76 -378h-221l76 378h-225l41 222h227l54 262h-231l42 220h231l74 362h221l-72 -362h258l74 362h222l-73 -362h236l-41 -220h-239l-54 -262h241l-41 -222h-243l-76 -378h-222zM503 580h287l63 301h-288z" />
    <glyph glyph-name="dollar" unicode="$" horiz-adv-x="1415" 
d="M784 -135h-140v125q-235 13 -368.5 125t-134.5 295h286q5 -74 64.5 -125t152.5 -61v372l-105 25q-181 42 -275 144.5t-94 258.5q0 184 125 297t349 131v136h140v-136q209 -20 334 -133.5t128 -286.5h-279q-2 68 -53 119t-130 62v-356l107 -22q383 -82 383 -404
q0 -191 -127.5 -305t-362.5 -134v-127zM990 397q0 136 -206 174v-348q97 6 151.5 52t54.5 122zM460 1052q0 -63 47 -105.5t137 -60.5v328q-81 -4 -132.5 -49.5t-51.5 -112.5z" />
    <glyph glyph-name="percent" unicode="%" horiz-adv-x="1701" 
d="M741 1111q0 -165 -93 -266t-245 -101q-151 0 -244.5 101t-93.5 266q0 164 93.5 264.5t244.5 100.5q152 0 245 -100.5t93 -264.5zM403 936q53 0 84 47t31 128q0 82 -30.5 128.5t-84.5 46.5q-53 0 -84 -47t-31 -128t31 -128t84 -47zM506 0h-282l545 756l434 687h281
l-554 -762zM1636 333q0 -164 -93 -265t-245 -101q-151 0 -244 101t-93 265t93 265t244 101q152 0 245 -100.5t93 -265.5zM1298 159q53 0 84 47t31 128q0 82 -30.5 128t-84.5 46q-53 0 -84 -46.5t-31 -127.5t31 -128t84 -47z" />
    <glyph glyph-name="ampersand" unicode="&#x26;" horiz-adv-x="1525" 
d="M1172 0l-111 117q-80 -68 -198.5 -106.5t-250.5 -38.5q-230 0 -367.5 110t-137.5 295q0 124 64.5 216t204.5 169q3 1 32.5 17.5t31.5 17.5q-98 101 -138.5 176t-40.5 155q0 146 116.5 241.5t294.5 95.5q177 0 290 -92.5t113 -238.5q0 -112 -71.5 -204t-222.5 -174
l277 -287q51 90 51 263v71h245v-90q0 -265 -123 -431l268 -282h-327zM535 618q-155 -84 -155 -216q0 -94 72.5 -152.5t189.5 -58.5q79 0 151 26.5t115 71.5l-331 349q-16 -6 -42 -20zM646 897q99 49 142.5 100t43.5 115q0 68 -44 110.5t-115 42.5t-116 -43t-45 -110
q0 -49 29.5 -96.5t104.5 -118.5z" />
    <glyph glyph-name="quotesingle" unicode="'" horiz-adv-x="553" 
d="M402 831h-250v612h250v-612z" />
    <glyph glyph-name="parenleft" unicode="(" horiz-adv-x="878" 
d="M223 607q0 560 297 917h268q-112 -142 -188 -400.5t-76 -515.5t76 -515.5t188 -402.5h-268q-297 360 -297 917z" />
    <glyph glyph-name="parenright" unicode=")" horiz-adv-x="878" 
d="M655 607q0 -559 -296 -917h-269q113 143 188.5 401.5t75.5 516.5q0 257 -76 515.5t-188 400.5h269q296 -357 296 -917z" />
    <glyph glyph-name="asterisk" unicode="*" horiz-adv-x="1032" 
d="M808 783l-230 179l39 -288h-201l39 288l-231 -179l-100 178l272 109l-272 108l100 180l232 -185l-40 293h201l-41 -293l232 185l100 -180l-271 -108l271 -109z" />
    <glyph glyph-name="plus" unicode="+" horiz-adv-x="1415" 
d="M835 455v-409h-255v409h-412v258h412v408h255v-408h413v-258h-413z" />
    <glyph glyph-name="comma" unicode="," horiz-adv-x="712" 
d="M336 -391h-195l92 625h285z" />
    <glyph glyph-name="hyphen" unicode="&#x2011;" horiz-adv-x="992" 
d="M825 446h-657v273h657v-273z" />
    <glyph glyph-name="hyphen" unicode="-" horiz-adv-x="992" 
d="M825 446h-657v273h657v-273z" />
    <glyph glyph-name="period" unicode="." horiz-adv-x="712" 
d="M356 -27q-80 0 -128.5 48.5t-48.5 125.5q0 76 48.5 124.5t128.5 48.5t128.5 -48t48.5 -125t-48.5 -125.5t-128.5 -48.5z" />
    <glyph glyph-name="slash" unicode="/" horiz-adv-x="793" 
d="M271 -310h-271l522 1834h271z" />
    <glyph glyph-name="zero" unicode="0" horiz-adv-x="1402" 
d="M701 -37q-268 0 -420.5 201.5t-152.5 559.5q0 357 152.5 556.5t420.5 199.5q267 0 420 -200t153 -557t-152.5 -558.5t-420.5 -201.5zM701 209q126 0 196.5 132.5t70.5 382.5q0 248 -70.5 378.5t-196.5 130.5q-125 0 -196 -131t-71 -378q0 -249 70.5 -382t196.5 -133z" />
    <glyph glyph-name="one" unicode="1" horiz-adv-x="1051" 
d="M495 0v1149h-18l-354 -244v281l373 257h301v-1443h-302z" />
    <glyph glyph-name="two" unicode="2" horiz-adv-x="1318" 
d="M129 1011q0 209 146 339t380 130q226 0 368.5 -117.5t142.5 -303.5q0 -118 -74 -234.5t-261 -292.5l-276 -263v-18h632v-251h-1041v211l471 461q152 148 203 222t51 145q0 87 -63.5 142.5t-162.5 55.5q-105 0 -170.5 -62.5t-65.5 -162.5v-6h-280v5z" />
    <glyph glyph-name="three" unicode="3" horiz-adv-x="1370" 
d="M498 626v225h176q103 0 166.5 55t63.5 143q0 87 -62.5 138.5t-168.5 51.5q-105 0 -170 -55t-71 -149h-279q8 205 150 325t378 120q222 0 365.5 -109.5t143.5 -279.5q0 -125 -72.5 -215t-193.5 -115v-18q149 -17 235.5 -109.5t86.5 -234.5q0 -125 -72.5 -224.5
t-202.5 -155.5t-292 -56q-241 0 -392 123t-161 327h289q7 -92 79 -145.5t188 -53.5q113 0 184.5 58t71.5 150q0 95 -70 149.5t-191 54.5h-179z" />
    <glyph glyph-name="four" unicode="4" horiz-adv-x="1410" 
d="M820 0v252h-706v267q169 319 571 924h423v-940h189v-251h-189v-252h-288zM385 510v-16h442v714h-16q-231 -345 -426 -698z" />
    <glyph glyph-name="five" unicode="5" horiz-adv-x="1359" 
d="M691 -37q-233 0 -381.5 125.5t-155.5 321.5h279q13 -90 85 -145t175 -55q117 0 189.5 72t72.5 189q0 119 -73 192t-188 73q-167 0 -247 -130h-270l72 837h907v-251h-673l-32 -371h18q98 141 306 141q205 0 336.5 -136t131.5 -348q0 -230 -152 -372.5t-400 -142.5z" />
    <glyph glyph-name="six" unicode="6" horiz-adv-x="1401" 
d="M722 -37q-157 0 -279.5 67t-196.5 194q-121 186 -121 487q0 359 160 564t442 205q206 0 351.5 -111t176.5 -292h-299q-21 71 -83.5 113t-147.5 42q-148 0 -232.5 -132.5t-79.5 -357.5h18q49 102 145.5 157.5t222.5 55.5q205 0 340 -136t135 -343q0 -225 -155 -369
t-397 -144zM719 211q111 0 186.5 73.5t75.5 182.5q0 110 -74 182.5t-187 72.5t-187.5 -72t-74.5 -180q0 -110 75 -184.5t186 -74.5z" />
    <glyph glyph-name="seven" unicode="7" horiz-adv-x="1239" 
d="M210 0l615 1177v18h-728v249h1032v-252l-603 -1192h-316z" />
    <glyph glyph-name="eight" unicode="8" horiz-adv-x="1421" 
d="M710 -37q-260 0 -421 117t-161 305q0 136 86.5 236.5t231.5 132.5v18q-118 27 -189 113t-71 201q0 173 147.5 283.5t377.5 110.5q229 0 376.5 -110.5t147.5 -283.5q0 -115 -70.5 -200.5t-189.5 -113.5v-18q144 -27 231.5 -127.5t87.5 -238.5q0 -190 -162 -307.5
t-422 -117.5zM710 191q119 0 194 62t75 160q0 99 -75 161t-194 62t-193.5 -62t-74.5 -161q0 -98 74.5 -160t193.5 -62zM710 859q100 0 163.5 55.5t63.5 142.5q0 88 -63.5 143.5t-163.5 55.5t-163 -55.5t-63 -143.5q0 -87 63 -142.5t163 -55.5z" />
    <glyph glyph-name="nine" unicode="9" horiz-adv-x="1401" 
d="M674 -37q-205 0 -351 111.5t-177 291.5h299q21 -71 83.5 -113t147.5 -42q148 0 232.5 133t79.5 358h-9h-7h-2q-49 -102 -145.5 -157.5t-222.5 -55.5q-206 0 -340.5 135.5t-134.5 342.5q0 225 155 369t397 144q156 0 278.5 -66.5t197.5 -193.5q121 -188 121 -487
q0 -360 -160 -565t-442 -205zM681 722q113 0 187.5 71.5t74.5 180.5q0 110 -75 184.5t-186 74.5t-186.5 -74t-75.5 -182q0 -111 74 -183t187 -72z" />
    <glyph glyph-name="colon" unicode=":" horiz-adv-x="712" 
d="M356 -27q-80 0 -128.5 48.5t-48.5 125.5q0 76 48.5 124.5t128.5 48.5t128.5 -48t48.5 -125t-48.5 -125.5t-128.5 -48.5zM356 711q-80 0 -128.5 48.5t-48.5 125.5q0 76 48.5 124.5t128.5 48.5t128.5 -48t48.5 -125t-48.5 -125.5t-128.5 -48.5z" />
    <glyph glyph-name="semicolon" unicode=";" horiz-adv-x="712" 
d="M356 711q-80 0 -128.5 48.5t-48.5 125.5q0 76 48.5 124.5t128.5 48.5t128.5 -48t48.5 -125t-48.5 -125.5t-128.5 -48.5zM326 -391h-204l96 625h286z" />
    <glyph glyph-name="less" unicode="&#x3c;" horiz-adv-x="1415" 
d="M1184 904l-657 -303v-19l657 -303v-301l-953 496v235l953 496v-301z" />
    <glyph glyph-name="equal" unicode="=" horiz-adv-x="1415" 
d="M1244 216h-1073v259h1073v-259zM1244 695h-1073v259h1073v-259z" />
    <glyph glyph-name="greater" unicode="&#x3e;" horiz-adv-x="1415" 
d="M231 904v301l953 -496v-235l-953 -496v301l657 303v19z" />
    <glyph glyph-name="question" unicode="?" horiz-adv-x="1141" 
d="M78 1035q4 191 132 306t354 115q214 0 344.5 -108t130.5 -282q0 -111 -53 -193t-161 -145q-100 -58 -135 -104t-35 -118v-53h-265l-2 55q-10 118 32.5 193.5t147.5 137.5q98 58 133 103.5t35 114.5q0 70 -52.5 114.5t-137.5 44.5q-86 0 -139 -49t-58 -132h-271zM533 -30
q-84 0 -133 45.5t-49 124.5t49 125t133 46t132.5 -46t48.5 -125t-48.5 -124.5t-132.5 -45.5z" />
    <glyph glyph-name="at" unicode="@" horiz-adv-x="1899" 
d="M940 837q-79 0 -124 -60.5t-45 -167.5t44.5 -167.5t123.5 -60.5q80 0 127 61t47 167t-46.5 167t-126.5 61zM972 1450q237 0 420.5 -93.5t285 -262.5t101.5 -387q0 -239 -106 -378t-287 -139q-94 0 -157.5 42t-80.5 114h-18q-64 -153 -240 -153q-156 0 -251 116t-95 306
q0 182 93 295t243 113q80 0 142 -37t92 -104h18v119h202v-530q0 -53 25 -82.5t71 -29.5q76 0 121 89.5t45 241.5q0 271 -172.5 434.5t-457.5 163.5q-290 0 -473 -189t-183 -488q0 -304 187.5 -483t506.5 -179q180 0 272 33v-163q-122 -36 -287 -36q-258 0 -453.5 103
t-302 292t-106.5 438q0 244 106.5 434t299 295t439.5 105z" />
    <glyph glyph-name="A" unicode="A" horiz-adv-x="1500" 
d="M1102 0l-109 344h-507l-111 -344h-303l501 1443h355l501 -1443h-327zM732 1143l-181 -566h378l-179 566h-18z" />
    <glyph glyph-name="B" unicode="B" horiz-adv-x="1420" 
d="M823 0h-648v1443h631q209 0 328 -96t119 -264q0 -115 -75 -203t-186 -105v-18q143 -11 236.5 -108t93.5 -236q0 -190 -134 -301.5t-365 -111.5zM477 1212v-367h227q122 0 187 48t65 135t-59.5 135.5t-167.5 48.5h-252zM477 231h269q130 0 199 53.5t69 154.5
q0 99 -70.5 150.5t-204.5 51.5h-262v-410z" />
    <glyph glyph-name="C" unicode="C" horiz-adv-x="1518" 
d="M788 -37q-314 0 -495.5 203.5t-181.5 555.5t181.5 555t495.5 203q256 0 432.5 -152.5t193.5 -388.5h-294q-22 125 -112.5 200t-219.5 75q-170 0 -269 -132t-99 -360t99 -360.5t270 -132.5q130 0 220 71t112 190h294q-19 -234 -192.5 -380.5t-434.5 -146.5z" />
    <glyph glyph-name="D" unicode="D" horiz-adv-x="1530" 
d="M175 1444h568q322 0 499.5 -186.5t177.5 -525.5q0 -351 -176.5 -541.5t-500.5 -190.5h-568v1444zM477 1186v-928h218q201 0 309 120.5t108 348.5q0 218 -110 338.5t-307 120.5h-218z" />
    <glyph glyph-name="E" unicode="E" horiz-adv-x="1274" 
d="M1131 258v-258h-956v1443h956v-258h-654v-337h617v-239h-617v-351h654z" />
    <glyph glyph-name="F" unicode="F" horiz-adv-x="1224" 
d="M477 0h-302v1443h945v-258h-643v-376h587v-247h-587v-562z" />
    <glyph glyph-name="G" unicode="G" horiz-adv-x="1557" 
d="M1443 589q0 -289 -172 -457.5t-468 -168.5q-322 0 -507 203t-185 557q0 349 185 553t500 204q256 0 429 -136t205 -361h-300q-34 110 -121 170.5t-213 60.5q-175 0 -275.5 -130.5t-100.5 -357.5q0 -231 104.5 -364t283.5 -133q148 0 242 80t99 211l1 26h-313v227h606
v-184z" />
    <glyph glyph-name="H" unicode="H" horiz-adv-x="1604" 
d="M1429 0h-302v603h-650v-603h-302v1443h302v-582h650v582h302v-1443z" />
    <glyph glyph-name="I" unicode="I" horiz-adv-x="652" 
d="M477 0h-302v1443h302v-1443z" />
    <glyph glyph-name="J" unicode="J" horiz-adv-x="1231" 
d="M76 424h292q2 -87 54.5 -139t139.5 -52q93 0 142.5 55.5t49.5 161.5v993h302v-995q0 -232 -129.5 -358.5t-360.5 -126.5q-223 0 -356.5 125t-133.5 336z" />
    <glyph glyph-name="K" unicode="K" horiz-adv-x="1453" 
d="M477 0h-302v1443h302v-643h18l533 643h336l-526 -633l563 -810h-362l-419 604l-143 -169v-435z" />
    <glyph glyph-name="L" unicode="L" horiz-adv-x="1218" 
d="M1119 263v-263h-944v1443h302v-1180h642z" />
    <glyph glyph-name="M" unicode="M" horiz-adv-x="1878" 
d="M1703 0h-280v965h-16l-367 -882h-201l-368 882h-16v-965h-280v1443h356l399 -970h18l400 970h355v-1443z" />
    <glyph glyph-name="N" unicode="N" horiz-adv-x="1573" 
d="M464 0h-289v1443h252l664 -899h18v899h289v-1443h-250l-666 903h-18v-903z" />
    <glyph glyph-name="O" unicode="O" horiz-adv-x="1610" 
d="M806 1480q320 0 506.5 -204t186.5 -554q0 -351 -186.5 -555t-506.5 -204q-321 0 -508 204t-187 555q0 350 188 554t507 204zM806 1215q-176 0 -281 -133.5t-105 -359.5t104.5 -360t281.5 -134q176 0 280.5 134t104.5 360t-104.5 359.5t-280.5 133.5z" />
    <glyph glyph-name="P" unicode="P" horiz-adv-x="1380" 
d="M175 1443h602q223 0 361.5 -137.5t138.5 -361.5q0 -222 -143 -359t-372 -137h-285v-448h-302v1443zM477 1195v-502h219q131 0 202.5 64.5t71.5 185.5q0 122 -71 187t-202 65h-220z" />
    <glyph glyph-name="Q" unicode="Q" horiz-adv-x="1610" 
d="M806 -37q-321 0 -508 203.5t-187 555.5q0 350 188 554t507 204t506 -204t187 -554q0 -194 -58.5 -345.5t-168.5 -245.5l179 -272h-292l-100 142q-116 -38 -253 -38zM807 228q49 0 104 13l-164 240h274l67 -81q103 111 103 322q0 226 -105 359.5t-280 133.5
q-176 0 -281 -133.5t-105 -359.5q0 -228 105 -361t282 -133z" />
    <glyph glyph-name="R" unicode="R" horiz-adv-x="1422" 
d="M477 1199v-444h265q114 0 177.5 58.5t63.5 162.5q0 103 -66 163t-178 60h-262zM477 523v-523h-302v1443h606q238 0 375 -124t137 -339q0 -140 -69.5 -250.5t-192.5 -159.5l304 -570h-342l-269 523h-247z" />
    <glyph glyph-name="S" unicode="S" horiz-adv-x="1383" 
d="M110 401h292q10 -88 92 -140t210 -52q118 0 193 51.5t75 133.5q0 69 -58 112t-191 71l-188 40q-392 82 -392 412q0 204 151 327.5t401 123.5q238 0 391.5 -121t160.5 -314h-284q-11 86 -84 138t-182 52q-114 0 -182.5 -49t-68.5 -131q0 -67 55.5 -108t182.5 -68l174 -37
q217 -46 316 -144t99 -266q0 -218 -156.5 -343.5t-428.5 -125.5q-258 0 -414 118t-164 320z" />
    <glyph glyph-name="T" unicode="T" horiz-adv-x="1352" 
d="M827 0h-302v1185h-433v258h1168v-258h-433v-1185z" />
    <glyph glyph-name="U" unicode="U" horiz-adv-x="1564" 
d="M480 1443v-914q0 -138 79.5 -218t222.5 -80q144 0 223.5 80t79.5 218v914h302v-945q0 -241 -164.5 -388t-440.5 -147q-275 0 -439.5 147t-164.5 388v945h302z" />
    <glyph glyph-name="V" unicode="V" horiz-adv-x="1477" 
d="M925 0h-365l-488 1443h341l328 -1103h18l322 1103h325z" />
    <glyph glyph-name="W" unicode="W" horiz-adv-x="2067" 
d="M1025 955l-270 -955h-285l-382 1443h314l225 -1017h16l263 1017h255l268 -1017h16l223 1017h312l-383 -1443h-283l-273 955h-16z" />
    <glyph glyph-name="X" unicode="X" horiz-adv-x="1494" 
d="M88 0l461 727l-458 716h355l301 -505h18l304 505h338l-475 -721l468 -722h-344l-310 489h-18l-314 -489h-326z" />
    <glyph glyph-name="Y" unicode="Y" horiz-adv-x="1451" 
d="M877 0h-302v531l-503 912h327l318 -604h18l317 604h327l-502 -912v-531z" />
    <glyph glyph-name="Z" unicode="Z" horiz-adv-x="1384" 
d="M135 0v204l726 963v18h-709v258h1077v-203l-724 -964v-18h744v-258h-1114z" />
    <glyph glyph-name="bracketleft" unicode="[" horiz-adv-x="878" 
d="M252 1524h554v-223h-274v-1388h274v-223h-554v1834z" />
    <glyph glyph-name="backslash" unicode="\" horiz-adv-x="793" 
d="M517 -310l-517 1834h276l517 -1834h-276z" />
    <glyph glyph-name="bracketright" unicode="]" horiz-adv-x="878" 
d="M627 1524v-1834h-554v223h273v1388h-273v223h554z" />
    <glyph glyph-name="asciicircum" unicode="^" horiz-adv-x="1066" 
d="M524 1182l-182 -410h-257l319 636h259l319 -636h-257l-183 410h-18z" />
    <glyph glyph-name="underscore" unicode="_" horiz-adv-x="945" 
d="M947 -334h-949v227h949v-227z" />
    <glyph glyph-name="grave" unicode="`" horiz-adv-x="1098" 
d="M826 1281h-269l-287 353h309z" />
    <glyph glyph-name="a" unicode="a" horiz-adv-x="1208" 
d="M544 202q101 0 169 57t68 141v81l-223 -14q-186 -13 -186 -133q0 -61 47.5 -96.5t124.5 -35.5zM448 -17q-160 0 -260.5 91t-100.5 241q0 149 110.5 234.5t316.5 97.5l267 16v90q0 69 -48 106.5t-138 37.5q-162 0 -199 -102h-268q14 153 144.5 242.5t338.5 89.5
q218 0 337.5 -98t119.5 -276v-753h-282v144h-18q-43 -76 -128 -118.5t-192 -42.5z" />
    <glyph glyph-name="b" unicode="b" horiz-adv-x="1334" 
d="M796 -17q-117 0 -206.5 50t-133.5 140h-18v-173h-282v1524h291v-597h18q42 91 130 142.5t201 51.5q209 0 328 -151t119 -418q0 -265 -119.5 -417t-327.5 -152zM695 877q-115 0 -182.5 -87.5t-68.5 -238.5q1 -150 68.5 -237.5t182.5 -87.5q116 0 182.5 87t66.5 239
q0 151 -67 238t-182 87z" />
    <glyph glyph-name="c" unicode="c" horiz-adv-x="1203" 
d="M1122 714h-272q-15 81 -71.5 127.5t-147.5 46.5q-118 0 -181.5 -86t-63.5 -248q0 -164 63.5 -251.5t181.5 -87.5q90 0 146.5 43t72.5 124h272q-18 -187 -148 -296.5t-343 -109.5q-258 0 -398.5 150.5t-140.5 427.5q0 275 140 424t399 149q216 0 344.5 -111t146.5 -302z
" />
    <glyph glyph-name="d" unicode="d" horiz-adv-x="1334" 
d="M541 -17q-208 0 -328.5 153t-120.5 417q0 263 120.5 415.5t328.5 152.5q112 0 199 -51.5t130 -142.5h17v597h291v-1524h-282v173h-18q-44 -89 -133 -139.5t-204 -50.5zM640 877q-116 0 -182.5 -86.5t-66.5 -238.5q0 -153 66 -239.5t183 -86.5t183.5 86.5t66.5 238.5
q0 151 -67 238.5t-183 87.5z" />
    <glyph glyph-name="e" unicode="e" horiz-adv-x="1231" 
d="M623 904q-101 0 -166.5 -65t-73.5 -172h470q-5 110 -66.5 173.5t-163.5 63.5zM859 314h271q-33 -157 -167.5 -247.5t-336.5 -90.5q-252 0 -393 150.5t-141 419.5t142 425t388 156q244 0 380.5 -147t136.5 -410v-89h-757v-15q3 -123 70.5 -194.5t181.5 -71.5
q86 0 144 29.5t81 84.5z" />
    <glyph glyph-name="f" unicode="f" horiz-adv-x="836" 
d="M231 0v863h-178v229h178v112q0 167 90.5 248.5t287.5 81.5q84 0 150 -11v-206q-48 5 -87 5q-84 0 -120 -33.5t-36 -105.5v-91h234v-229h-228v-863h-291z" />
    <glyph glyph-name="g" unicode="g" horiz-adv-x="1322" 
d="M636 246q118 0 185 84.5t67 230.5t-67.5 231t-184.5 85t-182.5 -84.5t-65.5 -230.5q0 -147 65 -231.5t183 -84.5zM632 -418q-218 0 -354.5 88.5t-150.5 234.5h288q11 -51 70 -81t153 -30q117 0 182 51.5t65 144.5v204h-18q-94 -178 -332 -178q-206 0 -326 147.5
t-120 397.5q0 257 121.5 408.5t330.5 151.5q112 0 201.5 -52t133.5 -143h18v177h282v-1099q0 -194 -147 -308t-397 -114z" />
    <glyph glyph-name="h" unicode="h" horiz-adv-x="1307" 
d="M156 0v1524h286v-602h18q39 95 125.5 148.5t207.5 53.5q179 0 278.5 -108t99.5 -306v-710h-291v641q0 114 -52 173t-151 59q-108 0 -169 -65.5t-61 -174.5v-633h-291z" />
    <glyph glyph-name="i" unicode="i" horiz-adv-x="587" 
d="M148 0v1103h291v-1103h-291zM294 1257q-78 0 -125 41t-47 106q0 66 47 106.5t125 40.5t125 -40.5t47 -106.5q0 -65 -47.5 -106t-124.5 -41z" />
    <glyph glyph-name="j" unicode="j" horiz-adv-x="587" 
d="M439 1103v-1137q0 -169 -99 -255.5t-291 -86.5q-54 0 -78 4v223q6 -1 37 -1q76 0 108 29t32 95v1129h291zM294 1257q-78 0 -125 41t-47 106q0 66 47 106.5t125 40.5t125 -40.5t47 -106.5q0 -65 -47.5 -106t-124.5 -41z" />
    <glyph glyph-name="k" unicode="k" horiz-adv-x="1232" 
d="M465 672l369 431h331l-420 -473l449 -630h-345l-322 448l-80 -82v-366h-291v1524h291v-852h18z" />
    <glyph glyph-name="l" unicode="l" horiz-adv-x="603" 
d="M156 0v1524h291v-1524h-291z" />
    <glyph glyph-name="m" unicode="m" horiz-adv-x="1899" 
d="M146 0v1103h282v-180h18q34 95 115.5 149.5t189.5 54.5q115 0 193.5 -53.5t111.5 -150.5h18q39 93 128 148.5t204 55.5q165 0 261 -100t96 -270v-757h-291v680q0 196 -184 196q-88 0 -141 -56t-53 -145v-675h-280v692q0 87 -48 135.5t-134 48.5q-85 0 -140 -60t-55 -152
v-664h-291z" />
    <glyph glyph-name="n" unicode="n" horiz-adv-x="1285" 
d="M146 0v1103h282v-177h18q39 95 122.5 148t203.5 53q183 0 280 -107.5t97 -306.5v-713h-291v644q0 232 -203 232q-101 0 -159.5 -65.5t-58.5 -174.5v-636h-291z" />
    <glyph glyph-name="o" unicode="o" horiz-adv-x="1269" 
d="M635 -24q-254 0 -398.5 153t-144.5 423q0 268 145.5 421.5t397.5 153.5t397.5 -153.5t145.5 -421.5q0 -270 -144.5 -423t-398.5 -153zM635 214q116 0 180 88.5t64 249.5q0 159 -64.5 248t-179.5 89q-116 0 -180 -89t-64 -248q0 -161 63.5 -249.5t180.5 -88.5z" />
    <glyph glyph-name="p" unicode="p" horiz-adv-x="1324" 
d="M783 1121q210 0 330 -151t120 -418q0 -266 -119 -417.5t-326 -151.5q-118 0 -205 49t-128 137h-18v-535h-291v1469h282v-181h18q45 93 134 146t203 53zM684 226q118 0 184 86.5t66 239.5q0 152 -66.5 238.5t-182.5 86.5t-183.5 -87.5t-67.5 -238.5t67 -238t183 -87z" />
    <glyph glyph-name="q" unicode="q" horiz-adv-x="1324" 
d="M543 1121q111 0 200.5 -53.5t133.5 -145.5h18v181h283v-1469h-292v535h-18q-45 -89 -130 -137.5t-201 -48.5q-207 0 -326 152.5t-119 417.5q0 263 121.5 415.5t329.5 152.5zM638 226q117 0 184.5 87t67.5 238t-67.5 238.5t-183.5 87.5t-182 -86.5t-66 -238.5
q0 -153 65.5 -239.5t181.5 -86.5z" />
    <glyph glyph-name="r" unicode="r" horiz-adv-x="891" 
d="M146 0v1103h282v-176h18q22 84 100.5 139t182.5 55q75 0 114 -14v-265q-46 18 -138 18q-121 0 -194.5 -67t-73.5 -182v-611h-291z" />
    <glyph glyph-name="s" unicode="s" horiz-adv-x="1160" 
d="M121 779q0 157 126.5 252.5t332.5 95.5q210 0 329.5 -85t131.5 -243h-269q-11 54 -60.5 84.5t-129.5 30.5q-79 0 -130 -32.5t-51 -84.5q0 -40 36 -66.5t113 -43.5l207 -45q161 -35 235.5 -107t74.5 -195q0 -164 -134 -264t-352 -100t-345 86t-142 245h284
q35 -118 209 -118q85 0 138 32.5t53 85.5q0 41 -33 66.5t-106 41.5l-200 45q-161 35 -239.5 113.5t-78.5 205.5z" />
    <glyph glyph-name="t" unicode="t" horiz-adv-x="845" 
d="M229 1365h291v-273h229v-229h-229v-496q0 -72 34.5 -106t108.5 -34q49 0 86 4v-222q-67 -13 -146 -13q-201 0 -287.5 70t-86.5 232v565h-172v229h172v273z" />
    <glyph glyph-name="u" unicode="u" horiz-adv-x="1290" 
d="M1144 1103v-1103h-282v177h-18q-82 -201 -322 -201q-179 0 -282.5 108.5t-103.5 299.5v719h291v-644q0 -230 203 -230q107 0 165 63t58 175v636h291z" />
    <glyph glyph-name="v" unicode="v" horiz-adv-x="1194" 
d="M1143 1103l-381 -1103h-328l-383 1103h313l228 -822h18l226 822h307z" />
    <glyph glyph-name="w" unicode="w" horiz-adv-x="1735" 
d="M1674 1103l-293 -1103h-310l-197 761h-18l-195 -761h-306l-294 1103h295l164 -791h18l193 791h278l194 -791h18l164 791h289z" />
    <glyph glyph-name="x" unicode="x" horiz-adv-x="1190" 
d="M598 360h-18l-205 -360h-309l346 545l-348 558h334l195 -362h18l195 362h318l-346 -545l349 -558h-324z" />
    <glyph glyph-name="y" unicode="y" horiz-adv-x="1223" 
d="M283 -401q-93 0 -111 3v234q10 -2 66 -2q83 0 130 28.5t65 90.5l10 40l-387 1110h321l232 -836h18l232 836h308l-380 -1120q-70 -212 -183.5 -298t-320.5 -86z" />
    <glyph glyph-name="z" unicode="z" horiz-adv-x="1160" 
d="M121 0v172l558 681v18h-550v232h898v-192l-526 -661v-18h539v-232h-919z" />
    <glyph glyph-name="braceleft" unicode="{" horiz-adv-x="878" 
d="M326 593q128 -14 195 -78t67 -173v-242q0 -104 39.5 -147.5t134.5 -43.5h44v-219h-74q-223 0 -323 90.5t-100 290.5v192q0 109 -53.5 155t-182.5 48v287q128 1 182 47t54 156v192q0 198 100 287t323 89h74v-220h-44q-95 0 -134.5 -43.5t-39.5 -147.5v-237
q0 -108 -67 -172t-195 -78v-33z" />
    <glyph glyph-name="bar" unicode="|" horiz-adv-x="793" 
d="M533 -310h-273v1834h273v-1834z" />
    <glyph glyph-name="braceright" unicode="}" horiz-adv-x="878" 
d="M553 593v33q-128 14 -195 78t-67 172v237q0 104 -39.5 147.5t-134.5 43.5h-44v220h74q223 0 322.5 -89t99.5 -287v-192q0 -110 54 -156t183 -47v-287q-129 -2 -183 -48t-54 -155v-192q0 -200 -100 -290.5t-322 -90.5h-74v219h44q95 0 134.5 43.5t39.5 147.5v242
q0 109 67 173t195 78z" />
    <glyph glyph-name="asciitilde" unicode="~" horiz-adv-x="1225" 
d="M566 622q-47 46 -76.5 63.5t-60.5 17.5q-115 0 -119 -178h-228q-2 432 321 432q68 0 127 -30t132 -101q44 -43 74.5 -61t60.5 -18q113 0 119 178h227q1 -219 -76.5 -325.5t-239.5 -106.5q-70 0 -130 29.5t-131 99.5z" />
    <glyph glyph-name="nonbreakingspace" unicode="&#xa0;" horiz-adv-x="528" 
 />
    <glyph glyph-name="exclamdown" unicode="&#xa1;" horiz-adv-x="730" 
d="M205 -322l26 969h267l27 -969h-320zM365 811q-84 0 -133 46t-49 125t49 124.5t133 45.5q85 0 133.5 -45.5t48.5 -124.5q0 -80 -48.5 -125.5t-133.5 -45.5z" />
    <glyph glyph-name="cent" unicode="&#xa2;" horiz-adv-x="1415" 
d="M1253 528q-16 -160 -127.5 -264.5t-285.5 -131.5v-184h-242v188q-200 39 -320 188.5t-120 375.5q0 224 120.5 373t319.5 187v189h242v-185q171 -29 284 -137t129 -267h-272q-22 80 -89 127t-159 47q-122 0 -201.5 -90t-79.5 -244q0 -156 79.5 -247t200.5 -91
q100 0 165 44t84 122h272z" />
    <glyph glyph-name="sterling" unicode="&#xa3;" horiz-adv-x="1415" 
d="M551 257h714v-257h-1124v240q134 19 218.5 109t84.5 215q0 35 -6 68h-293v213h224q-59 148 -59 243q0 186 146.5 289t411.5 103q90 0 184 -14.5t146 -35.5v-244q-49 22 -131 36.5t-161 14.5q-139 0 -216 -52t-77 -146q0 -72 44 -194h415v-213h-348q3 -24 3 -49
q0 -100 -49.5 -185t-126.5 -122v-19z" />
    <glyph glyph-name="currency" unicode="&#xa4;" horiz-adv-x="1415" 
d="M474 648q0 -95 69 -163.5t165 -68.5t165.5 68.5t69.5 163.5t-69.5 164t-165.5 69t-165 -69t-69 -164zM1248 1021l-147 -149q58 -103 58 -224q0 -122 -59 -224l148 -149l-166 -172l-149 150q-103 -61 -225 -61t-225 61l-149 -150l-166 172l148 149q-58 105 -58 224
q0 121 58 224l-148 149l166 172l148 -150q104 62 226 62t225 -61l149 149z" />
    <glyph glyph-name="yen" unicode="&#xa5;" horiz-adv-x="1415" 
d="M1130 206h-271v-206h-302v206h-271v169h271v133h-271v169h195l-427 766h327l318 -604h18l317 604h327l-426 -766h195v-169h-271v-133h271v-169z" />
    <glyph glyph-name="brokenbar" unicode="&#xa6;" horiz-adv-x="793" 
d="M533 791h-273v733h273v-733zM533 -310h-273v732h273v-732z" />
    <glyph glyph-name="section" unicode="&#xa7;" horiz-adv-x="1032" 
d="M464 454l109 -38q59 9 99 48.5t40 89.5q0 47 -37 83.5t-104 55.5l-109 38q-59 -9 -99.5 -49t-40.5 -89q0 -47 37.5 -83.5t104.5 -55.5zM515 -286q-187 0 -308 92.5t-128 241.5h253q7 -55 59.5 -89.5t127.5 -34.5q77 0 125.5 35.5t48.5 91.5q0 42 -35 71.5t-114 52.5
l-175 60q-158 51 -229.5 122.5t-71.5 178.5q0 94 57.5 165.5t157.5 102.5v18q-107 49 -156 114.5t-49 159.5q0 152 120 244.5t318 92.5q184 0 301.5 -90t128.5 -239h-251q-8 53 -58 86t-123 33q-76 0 -123.5 -35t-47.5 -91q0 -42 34 -70.5t113 -53.5l171 -60
q160 -55 232 -125.5t72 -173.5q0 -97 -63.5 -172.5t-167.5 -103.5v-19q116 -45 169.5 -108t53.5 -159q0 -151 -122 -244.5t-320 -93.5z" />
    <glyph glyph-name="dieresis" unicode="&#xa8;" horiz-adv-x="1176" 
d="M354 1267q-67 0 -111 43t-44 109t43.5 108.5t111.5 42.5t111.5 -42.5t43.5 -108.5t-44 -109t-111 -43zM822 1267q-67 0 -111 43t-44 109t44 108.5t111 42.5q68 0 112 -42.5t44 -108.5t-44 -109t-112 -43z" />
    <glyph glyph-name="copyright" unicode="&#xa9;" horiz-adv-x="1742" 
d="M871 -136q-162 0 -308 62t-251 167t-167 251t-62 308t61.5 308.5t167 251.5t251.5 167t308 62q163 0 309 -62t251.5 -167t167 -251.5t61.5 -308.5t-62 -308t-167 -251t-251.5 -167t-308.5 -62zM871 30q129 0 245 48.5t199 132t132 198.5t49 243q0 172 -82.5 315
t-226.5 225.5t-316 82.5q-129 0 -244.5 -49t-198.5 -132t-132 -198.5t-49 -243.5t49 -243t132 -198t198.5 -132t244.5 -49zM1238 759h-188q-11 58 -55 92t-107 34q-85 0 -133.5 -61.5t-48.5 -169.5q0 -110 48.5 -172t133.5 -62q66 0 108.5 31.5t53.5 88.5h188
q-14 -132 -108 -208t-243 -76q-177 0 -279.5 107t-102.5 291q0 182 103 288.5t278 106.5q146 0 242 -79t110 -211z" />
    <glyph glyph-name="ordfeminine" unicode="&#xaa;" horiz-adv-x="1031" 
d="M491 693q75 0 124 44t49 111v70l-167 -12q-143 -9 -143 -107q0 -49 36.5 -77.5t100.5 -28.5zM392 497q-137 0 -219 78t-82 208q0 127 93 199t271 83l207 11v75q1 50 -37.5 78.5t-106.5 28.5q-59 0 -96 -21.5t-45 -60.5h-252q10 135 117.5 212t285.5 77q185 0 291 -85
t106 -234v-631h-256v113h-18q-33 -61 -101.5 -96t-157.5 -35z" />
    <glyph glyph-name="guillemotleft" unicode="&#xab;" horiz-adv-x="1447" 
d="M431 572v-11l347 -410h-276l-344 411v8l349 411h271zM942 572v-11l347 -410h-276l-344 411v8l349 411h271z" />
    <glyph glyph-name="logicalnot" unicode="&#xac;" horiz-adv-x="1415" 
d="M1230 713v-654h-255v396h-790v258h1045z" />
    <glyph glyph-name="registered" unicode="&#xae;" horiz-adv-x="1260" 
d="M630 438q-144 0 -266 71t-193 193t-71 267t71 267t193 193t266 71q145 0 267 -71t192.5 -193t70.5 -267t-70.5 -267t-192.5 -193t-267 -71zM630 574q166 0 281.5 115.5t115.5 279.5q0 165 -115.5 280t-281.5 115q-165 0 -281 -115t-116 -280q0 -164 116 -279.5
t281 -115.5zM546 733h-125v487h256q80 0 130 -43t50 -113q0 -56 -27 -95t-76 -53l127 -183h-149l-111 165h-75v-165zM546 1116v-121h99q78 0 78 60q0 61 -76 61h-101z" />
    <glyph glyph-name="macron" unicode="&#xaf;" horiz-adv-x="1048" 
d="M892 1496v-180h-735v180h735z" />
    <glyph glyph-name="degree" unicode="&#xb0;" horiz-adv-x="924" 
d="M462 742q-154 0 -257 104t-103 256t103 256t257 104t257 -104t103 -256t-103 -256t-257 -104zM462 918q81 0 132 52.5t51 131.5t-51 131t-132 52t-131.5 -52t-50.5 -131t50.5 -131.5t131.5 -52.5z" />
    <glyph glyph-name="plusminus" unicode="&#xb1;" horiz-adv-x="1415" 
d="M1205 71h-997v225h997v-225zM832 650v-234h-249v234h-375v224h375v234h249v-234h375v-224h-375z" />
    <glyph glyph-name="two.sups" unicode="&#xb2;" horiz-adv-x="914" 
d="M80 1530q0 145 102 232.5t271 87.5q163 0 260.5 -77t97.5 -206q0 -89 -54.5 -168t-184.5 -175l-114 -97v-18h368v-213h-727v189l277 239q107 89 141.5 132t34.5 86t-31 70.5t-80 27.5q-52 0 -84 -30t-32 -79v-6h-245v5z" />
    <glyph glyph-name="three.sups" unicode="&#xb3;" horiz-adv-x="950" 
d="M354 1278v177h113q53 0 84.5 25.5t31.5 68.5q0 40 -32.5 65.5t-85.5 25.5q-56 0 -90.5 -28t-37.5 -76h-243q1 142 103 226.5t273 84.5q162 0 261.5 -71t99.5 -186q0 -79 -48.5 -135.5t-127.5 -69.5v-19q97 -8 153.5 -66t56.5 -147q0 -127 -109.5 -205.5t-285.5 -78.5
q-175 0 -279.5 87t-105.5 233h246q2 -49 39.5 -77.5t97.5 -28.5q59 0 95 27.5t36 71.5q0 46 -34 71t-96 25h-115z" />
    <glyph glyph-name="acute" unicode="&#xb4;" horiz-adv-x="1098" 
d="M529 1281h-269l247 353h309z" />
    <glyph glyph-name="mugreek" unicode="&#x3bc;" horiz-adv-x="1365" 
d="M146 -366v1469h291v-644q0 -230 201 -230q96 0 155.5 65t59.5 171v638h291v-760q0 -70 20 -96.5t69 -26.5q19 0 54 8v-221q-61 -18 -130 -18q-116 0 -178.5 43.5t-87.5 144.5l-3 14h-19q-44 -215 -244 -215q-122 0 -170 78h-18v-420h-291z" />
    <glyph glyph-name="mugreek" unicode="&#xb5;" horiz-adv-x="1365" 
d="M146 -366v1469h291v-644q0 -230 201 -230q96 0 155.5 65t59.5 171v638h291v-760q0 -70 20 -96.5t69 -26.5q19 0 54 8v-221q-61 -18 -130 -18q-116 0 -178.5 43.5t-87.5 144.5l-3 14h-19q-44 -215 -244 -215q-122 0 -170 78h-18v-420h-291z" />
    <glyph glyph-name="paragraph" unicode="&#xb6;" horiz-adv-x="1580" 
d="M966 -259h-280v702h-20q-224 0 -374 143t-150 353q0 219 147 361.5t378 142.5h299v-1702zM1135 -259v1702h280v-1702h-280z" />
    <glyph glyph-name="periodcentered" unicode="&#xb7;" horiz-adv-x="723" 
d="M362 556q-81 0 -131 50t-50 127q0 78 50 127.5t131 49.5t130.5 -49.5t49.5 -127.5q0 -77 -49.5 -127t-130.5 -50z" />
    <glyph glyph-name="cedilla" unicode="&#xb8;" horiz-adv-x="1098" 
d="M405 -237v116l64 148h161v-27l-45 -108q95 -5 145.5 -50.5t50.5 -126.5q0 -97 -70 -151t-197 -54q-86 0 -147 18v134q42 -14 116 -14q112 0 112 59q0 30 -30.5 43t-99.5 13h-60z" />
    <glyph glyph-name="one.sups" unicode="&#xb9;" horiz-adv-x="761" 
d="M322 896v679h-18q-7 -4 -111.5 -72t-105.5 -69v235q91 68 232 155h270v-928h-267z" />
    <glyph glyph-name="ordmasculine" unicode="&#xba;" horiz-adv-x="1107" 
d="M553 497q-215 0 -336.5 128t-121.5 355q0 223 123 352.5t335 129.5q214 0 336 -128.5t122 -353.5q0 -228 -121 -355.5t-337 -127.5zM553 710q89 0 137.5 70.5t48.5 199.5q0 128 -49 198.5t-137 70.5t-137 -71t-49 -198q0 -129 48.5 -199.5t137.5 -70.5z" />
    <glyph glyph-name="guillemotright" unicode="&#xbb;" horiz-adv-x="1447" 
d="M505 572l-347 409h271l349 -411v-8l-344 -411h-276l347 410v11zM1016 572l-347 409h271l349 -411v-8l-344 -411h-276l347 410v11z" />
    <glyph glyph-name="onequarter" unicode="&#xbc;" horiz-adv-x="2242" 
d="M322 515v679h-18q-7 -4 -111.5 -72t-105.5 -69v235q91 68 232 155h270v-928h-267zM843 0h-274l394 749l305 694h274l-399 -742zM1799 0v134h-481v214q49 100 125.5 224.5t233.5 355.5h367v-588h110v-196h-119v-144h-236zM1546 337v-3h254v393h-14q-191 -295 -240 -390z
" />
    <glyph glyph-name="onehalf" unicode="&#xbd;" horiz-adv-x="2243" 
d="M322 515v679h-18q-7 -4 -111.5 -72t-105.5 -69v235q91 68 232 155h270v-928h-267zM843 0h-274l394 749l305 694h274l-399 -742zM1410 634q0 145 102 232.5t271 87.5q163 0 260.5 -77t97.5 -206q0 -89 -54.5 -168t-184.5 -175l-114 -97v-18h368v-213h-727v189l277 239
q107 89 141.5 132t34.5 86t-31 70.5t-80 27.5q-52 0 -84 -30t-32 -79v-6h-245v5z" />
    <glyph glyph-name="threequarters" unicode="&#xbe;" horiz-adv-x="2402" 
d="M354 897v177h113q53 0 84.5 25.5t31.5 68.5q0 40 -32.5 65.5t-85.5 25.5q-56 0 -90.5 -28t-37.5 -76h-243q1 142 103 226.5t273 84.5q162 0 261.5 -71t99.5 -186q0 -79 -48.5 -135.5t-127.5 -69.5v-19q97 -8 153.5 -66t56.5 -147q0 -127 -109.5 -205.5t-285.5 -78.5
q-175 0 -279.5 87t-105.5 233h246q2 -49 39.5 -77.5t97.5 -28.5q59 0 95 27.5t36 71.5q0 46 -34 71t-96 25h-115zM1003 0h-274l394 749l305 694h274l-399 -742zM1959 0v134h-481v214q49 100 125.5 224.5t233.5 355.5h367v-588h110v-196h-119v-144h-236zM1706 337v-3h254v393
h-14q-191 -295 -240 -390z" />
    <glyph glyph-name="questiondown" unicode="&#xbf;" horiz-adv-x="1141" 
d="M1064 87q-4 -191 -132 -306.5t-353 -115.5q-214 0 -345 108t-131 283q0 110 53.5 191.5t160.5 145.5q100 59 135 104.5t35 117.5v53h264l2 -54q10 -119 -32 -194.5t-148 -137.5q-97 -58 -132.5 -103.5t-35.5 -113.5q0 -71 53 -115.5t138 -44.5t138 49.5t58 132.5h272z
M609 811q-84 0 -133 45.5t-49 124.5t49 124.5t133 45.5q85 0 133.5 -45.5t48.5 -124.5t-48.5 -124.5t-133.5 -45.5z" />
    <glyph glyph-name="Agrave" unicode="&#xc0;" horiz-adv-x="1500" 
d="M1102 0l-109 344h-507l-111 -344h-303l501 1443h355l501 -1443h-327zM732 1143l-181 -566h378l-179 566h-18zM623 1590l-314 318h315l276 -318h-277z" />
    <glyph glyph-name="Aacute" unicode="&#xc1;" horiz-adv-x="1500" 
d="M1102 0l-109 344h-507l-111 -344h-303l501 1443h355l501 -1443h-327zM732 1143l-181 -566h378l-179 566h-18zM887 1590h-278l277 318h315z" />
    <glyph glyph-name="Acircumflex" unicode="&#xc2;" horiz-adv-x="1500" 
d="M1102 0l-109 344h-507l-111 -344h-303l501 1443h355l501 -1443h-327zM732 1143l-181 -566h378l-179 566h-18zM614 1925h272l284 -335h-265l-146 187h-18l-146 -187h-265z" />
    <glyph glyph-name="Atilde" unicode="&#xc3;" horiz-adv-x="1500" 
d="M1102 0l-109 344h-507l-111 -344h-303l501 1443h355l501 -1443h-327zM732 1143l-181 -566h378l-179 566h-18zM896 1572q-42 0 -79 15t-62.5 36t-48 42t-45 36t-43.5 15q-86 0 -88 -141h-187q0 145 71.5 233t189.5 88q42 0 79 -15t62.5 -36t48 -42t45 -36t43.5 -15
q87 0 88 138h187q0 -144 -71.5 -231t-189.5 -87z" />
    <glyph glyph-name="Adieresis" unicode="&#xc4;" horiz-adv-x="1500" 
d="M1102 0l-109 344h-507l-111 -344h-303l501 1443h355l501 -1443h-327zM732 1143l-181 -566h378l-179 566h-18zM516 1579q-67 0 -111 43t-44 109t43.5 108.5t111.5 42.5t111.5 -42.5t43.5 -108.5t-44 -109t-111 -43zM984 1579q-67 0 -111 43t-44 109t44 108.5t111 42.5
q68 0 112 -42.5t44 -108.5t-44 -109t-112 -43z" />
    <glyph glyph-name="Aring" unicode="&#xc5;" horiz-adv-x="1500" 
d="M1102 0l-109 344h-507l-111 -344h-303l501 1443h355l501 -1443h-327zM732 1143l-181 -566h378l-179 566h-18zM751 1546q-89 0 -147.5 56.5t-58.5 143.5q0 86 58.5 142.5t147.5 56.5q87 0 145.5 -56.5t58.5 -142.5q0 -87 -58.5 -143.5t-145.5 -56.5zM750 1652
q42 0 68.5 26.5t26.5 66.5q0 41 -27 67.5t-68 26.5t-68 -26.5t-27 -67.5q0 -40 27 -66.5t68 -26.5z" />
    <glyph glyph-name="AE" unicode="&#xc6;" horiz-adv-x="2059" 
d="M861 1202l-249 -604h378v604h-129zM990 0v364h-465l-154 -364h-299l595 1443h1250v-258h-651v-341h614v-239h-614v-347h651v-258h-927z" />
    <glyph glyph-name="Ccedilla" unicode="&#xc7;" horiz-adv-x="1518" 
d="M1121 490h294q-17 -215 -166.5 -357.5t-379.5 -165.5l-31 -74q95 -5 145.5 -50.5t50.5 -126.5q0 -97 -70 -151t-197 -54q-86 0 -147 18v134q42 -14 116 -14q112 0 112 59q0 30 -30.5 43t-99.5 13h-60v116l38 88q-274 30 -429.5 229.5t-155.5 524.5q0 352 181.5 555
t495.5 203q256 0 432.5 -152.5t193.5 -388.5h-294q-22 125 -112.5 200t-219.5 75q-170 0 -269 -132t-99 -360t99 -360.5t270 -132.5q130 0 220 71t112 190z" />
    <glyph glyph-name="Egrave" unicode="&#xc8;" horiz-adv-x="1274" 
d="M1131 258v-258h-956v1443h956v-258h-654v-337h617v-239h-617v-351h654zM526 1590l-314 318h315l276 -318h-277z" />
    <glyph glyph-name="Eacute" unicode="&#xc9;" horiz-adv-x="1274" 
d="M1131 258v-258h-956v1443h956v-258h-654v-337h617v-239h-617v-351h654zM790 1590h-278l277 318h315z" />
    <glyph glyph-name="Ecircumflex" unicode="&#xca;" horiz-adv-x="1274" 
d="M1131 258v-258h-956v1443h956v-258h-654v-337h617v-239h-617v-351h654zM517 1925h272l284 -335h-265l-146 187h-18l-146 -187h-265z" />
    <glyph glyph-name="Edieresis" unicode="&#xcb;" horiz-adv-x="1274" 
d="M1131 258v-258h-956v1443h956v-258h-654v-337h617v-239h-617v-351h654zM419 1579q-67 0 -111 43t-44 109t43.5 108.5t111.5 42.5t111.5 -42.5t43.5 -108.5t-44 -109t-111 -43zM887 1579q-67 0 -111 43t-44 109t44 108.5t111 42.5q68 0 112 -42.5t44 -108.5t-44 -109
t-112 -43z" />
    <glyph glyph-name="Igrave" unicode="&#xcc;" horiz-adv-x="652" 
d="M477 0h-302v1443h302v-1443zM199 1590l-314 318h315l276 -318h-277z" />
    <glyph glyph-name="Iacute" unicode="&#xcd;" horiz-adv-x="652" 
d="M477 0h-302v1443h302v-1443zM463 1590h-278l277 318h315z" />
    <glyph glyph-name="Icircumflex" unicode="&#xce;" horiz-adv-x="652" 
d="M477 0h-302v1443h302v-1443zM190 1925h272l284 -335h-265l-146 187h-18l-146 -187h-265z" />
    <glyph glyph-name="Idieresis" unicode="&#xcf;" horiz-adv-x="652" 
d="M477 0h-302v1443h302v-1443zM92 1579q-67 0 -111 43t-44 109t43.5 108.5t111.5 42.5t111.5 -42.5t43.5 -108.5t-44 -109t-111 -43zM560 1579q-67 0 -111 43t-44 109t44 108.5t111 42.5q68 0 112 -42.5t44 -108.5t-44 -109t-112 -43z" />
    <glyph glyph-name="Eth" unicode="&#xd0;" horiz-adv-x="1530" 
d="M477 258h218q201 0 309 120.5t108 348.5q0 218 -110 338.5t-307 120.5h-218v-341h228v-227h-228v-360zM175 1444h568q322 0 499.5 -186.5t177.5 -525.5q0 -351 -176.5 -541.5t-500.5 -190.5h-568v618h-125v227h125v599z" />
    <glyph glyph-name="Ntilde" unicode="&#xd1;" horiz-adv-x="1573" 
d="M464 0h-289v1443h252l664 -899h18v899h289v-1443h-250l-666 903h-18v-903zM929 1572q-42 0 -79 15t-62.5 36t-48 42t-45 36t-43.5 15q-86 0 -88 -141h-187q0 145 71.5 233t189.5 88q42 0 79 -15t62.5 -36t48 -42t45 -36t43.5 -15q87 0 88 138h187q0 -144 -71.5 -231
t-189.5 -87z" />
    <glyph glyph-name="Ograve" unicode="&#xd2;" horiz-adv-x="1610" 
d="M806 1480q320 0 506.5 -204t186.5 -554q0 -351 -186.5 -555t-506.5 -204q-321 0 -508 204t-187 555q0 350 188 554t507 204zM806 1215q-176 0 -281 -133.5t-105 -359.5t104.5 -360t281.5 -134q176 0 280.5 134t104.5 360t-104.5 359.5t-280.5 133.5zM679 1590l-314 318
h315l276 -318h-277z" />
    <glyph glyph-name="Oacute" unicode="&#xd3;" horiz-adv-x="1610" 
d="M806 1480q320 0 506.5 -204t186.5 -554q0 -351 -186.5 -555t-506.5 -204q-321 0 -508 204t-187 555q0 350 188 554t507 204zM806 1215q-176 0 -281 -133.5t-105 -359.5t104.5 -360t281.5 -134q176 0 280.5 134t104.5 360t-104.5 359.5t-280.5 133.5zM943 1590h-278
l277 318h315z" />
    <glyph glyph-name="Ocircumflex" unicode="&#xd4;" horiz-adv-x="1610" 
d="M806 1480q320 0 506.5 -204t186.5 -554q0 -351 -186.5 -555t-506.5 -204q-321 0 -508 204t-187 555q0 350 188 554t507 204zM806 1215q-176 0 -281 -133.5t-105 -359.5t104.5 -360t281.5 -134q176 0 280.5 134t104.5 360t-104.5 359.5t-280.5 133.5zM670 1925h272
l284 -335h-265l-146 187h-18l-146 -187h-265z" />
    <glyph glyph-name="Otilde" unicode="&#xd5;" horiz-adv-x="1610" 
d="M806 1480q320 0 506.5 -204t186.5 -554q0 -351 -186.5 -555t-506.5 -204q-321 0 -508 204t-187 555q0 350 188 554t507 204zM806 1215q-176 0 -281 -133.5t-105 -359.5t104.5 -360t281.5 -134q176 0 280.5 134t104.5 360t-104.5 359.5t-280.5 133.5zM952 1572
q-42 0 -79 15t-62.5 36t-48 42t-45 36t-43.5 15q-86 0 -88 -141h-187q0 145 71.5 233t189.5 88q42 0 79 -15t62.5 -36t48 -42t45 -36t43.5 -15q87 0 88 138h187q0 -144 -71.5 -231t-189.5 -87z" />
    <glyph glyph-name="Odieresis" unicode="&#xd6;" horiz-adv-x="1610" 
d="M806 1480q320 0 506.5 -204t186.5 -554q0 -351 -186.5 -555t-506.5 -204q-321 0 -508 204t-187 555q0 350 188 554t507 204zM806 1215q-176 0 -281 -133.5t-105 -359.5t104.5 -360t281.5 -134q176 0 280.5 134t104.5 360t-104.5 359.5t-280.5 133.5zM572 1579
q-67 0 -111 43t-44 109t43.5 108.5t111.5 42.5t111.5 -42.5t43.5 -108.5t-44 -109t-111 -43zM1040 1579q-67 0 -111 43t-44 109t44 108.5t111 42.5q68 0 112 -42.5t44 -108.5t-44 -109t-112 -43z" />
    <glyph glyph-name="multiply" unicode="&#xd7;" horiz-adv-x="1415" 
d="M708 402l-305 -304l-175 182l304 304l-304 305l175 182l305 -304l304 304l175 -182l-304 -305l304 -304l-175 -182z" />
    <glyph glyph-name="Oslash" unicode="&#xd8;" horiz-adv-x="1592" 
d="M1097 1067l-510 -768q93 -71 219 -71q176 0 280.5 134t104.5 360q0 216 -94 345zM503 392l506 763q-88 60 -203 60q-176 0 -281 -133.5t-105 -359.5q0 -201 83 -330zM1350 1448l-84 -127q113 -98 173 -251t60 -348q0 -351 -186.5 -555t-506.5 -204q-217 0 -377 97
l-85 -128l-102 66l90 135q-107 100 -164 249.5t-57 339.5q0 350 188 554t507 204q207 0 360 -88l76 115z" />
    <glyph glyph-name="Ugrave" unicode="&#xd9;" horiz-adv-x="1565" 
d="M480 1443v-914q0 -138 79.5 -218t222.5 -80q144 0 223.5 80t79.5 218v914h302v-945q0 -241 -164.5 -388t-440.5 -147q-275 0 -439.5 147t-164.5 388v945h302zM655 1590l-314 318h315l276 -318h-277z" />
    <glyph glyph-name="Uacute" unicode="&#xda;" horiz-adv-x="1565" 
d="M480 1443v-914q0 -138 79.5 -218t222.5 -80q144 0 223.5 80t79.5 218v914h302v-945q0 -241 -164.5 -388t-440.5 -147q-275 0 -439.5 147t-164.5 388v945h302zM919 1590h-278l277 318h315z" />
    <glyph glyph-name="Ucircumflex" unicode="&#xdb;" horiz-adv-x="1565" 
d="M480 1443v-914q0 -138 79.5 -218t222.5 -80q144 0 223.5 80t79.5 218v914h302v-945q0 -241 -164.5 -388t-440.5 -147q-275 0 -439.5 147t-164.5 388v945h302zM646 1925h272l284 -335h-265l-146 187h-18l-146 -187h-265z" />
    <glyph glyph-name="Udieresis" unicode="&#xdc;" horiz-adv-x="1565" 
d="M480 1443v-914q0 -138 79.5 -218t222.5 -80q144 0 223.5 80t79.5 218v914h302v-945q0 -241 -164.5 -388t-440.5 -147q-275 0 -439.5 147t-164.5 388v945h302zM548 1579q-67 0 -111 43t-44 109t43.5 108.5t111.5 42.5t111.5 -42.5t43.5 -108.5t-44 -109t-111 -43z
M1016 1579q-67 0 -111 43t-44 109t44 108.5t111 42.5q68 0 112 -42.5t44 -108.5t-44 -109t-112 -43z" />
    <glyph glyph-name="Yacute" unicode="&#xdd;" horiz-adv-x="1452" 
d="M877 0h-302v531l-503 912h327l318 -604h18l317 604h327l-502 -912v-531zM863 1590h-278l277 318h315z" />
    <glyph glyph-name="Thorn" unicode="&#xde;" horiz-adv-x="1378" 
d="M175 1443h304v-232h307q209 0 342 -125t133 -337q0 -211 -138 -336t-352 -125h-294v-288h-302v1443zM477 963v-430h226q117 0 184 55.5t67 160.5q0 104 -66.5 159t-183.5 55h-227z" />
    <glyph glyph-name="germandbls" unicode="&#xdf;" horiz-adv-x="1402" 
d="M482 0h-290v1079q0 186 135.5 294t364.5 108q219 0 356.5 -105t137.5 -272q0 -119 -60.5 -207t-157.5 -115v-19q151 -10 243 -107.5t92 -254.5q0 -187 -132 -301.5t-353 -114.5q-114 0 -181 16v241q54 -18 129 -18q115 0 178 52.5t63 142.5q0 91 -72.5 143.5t-201.5 52.5
h-72v245h49q88 0 140.5 51t52.5 141q0 83 -55.5 134t-150.5 51q-104 0 -159.5 -56.5t-55.5 -163.5v-1017z" />
    <glyph glyph-name="agrave" unicode="&#xe0;" horiz-adv-x="1208" 
d="M544 202q101 0 169 57t68 141v81l-223 -14q-186 -13 -186 -133q0 -61 47.5 -96.5t124.5 -35.5zM448 -17q-160 0 -260.5 91t-100.5 241q0 149 110.5 234.5t316.5 97.5l267 16v90q0 69 -48 106.5t-138 37.5q-162 0 -199 -102h-268q14 153 144.5 242.5t338.5 89.5
q218 0 337.5 -98t119.5 -276v-753h-282v144h-18q-43 -76 -128 -118.5t-192 -42.5zM770 1281h-269l-287 353h309z" />
    <glyph glyph-name="aacute" unicode="&#xe1;" horiz-adv-x="1208" 
d="M544 202q101 0 169 57t68 141v81l-223 -14q-186 -13 -186 -133q0 -61 47.5 -96.5t124.5 -35.5zM448 -17q-160 0 -260.5 91t-100.5 241q0 149 110.5 234.5t316.5 97.5l267 16v90q0 69 -48 106.5t-138 37.5q-162 0 -199 -102h-268q14 153 144.5 242.5t338.5 89.5
q218 0 337.5 -98t119.5 -276v-753h-282v144h-18q-43 -76 -128 -118.5t-192 -42.5zM725 1281h-269l247 353h309z" />
    <glyph glyph-name="acircumflex" unicode="&#xe2;" horiz-adv-x="1208" 
d="M544 202q101 0 169 57t68 141v81l-223 -14q-186 -13 -186 -133q0 -61 47.5 -96.5t124.5 -35.5zM448 -17q-160 0 -260.5 91t-100.5 241q0 149 110.5 234.5t316.5 97.5l267 16v90q0 69 -48 106.5t-138 37.5q-162 0 -199 -102h-268q14 153 144.5 242.5t338.5 89.5
q218 0 337.5 -98t119.5 -276v-753h-282v144h-18q-43 -76 -128 -118.5t-192 -42.5zM756 1605l275 -354h-263l-148 209h-18l-149 -209h-263l275 354h291z" />
    <glyph glyph-name="atilde" unicode="&#xe3;" horiz-adv-x="1208" 
d="M544 202q101 0 169 57t68 141v81l-223 -14q-186 -13 -186 -133q0 -61 47.5 -96.5t124.5 -35.5zM448 -17q-160 0 -260.5 91t-100.5 241q0 149 110.5 234.5t316.5 97.5l267 16v90q0 69 -48 106.5t-138 37.5q-162 0 -199 -102h-268q14 153 144.5 242.5t338.5 89.5
q218 0 337.5 -98t119.5 -276v-753h-282v144h-18q-43 -76 -128 -118.5t-192 -42.5zM762 1253q-42 0 -79 15t-62.5 36t-48 42t-45 36t-43.5 15q-86 0 -88 -141h-187q0 145 71.5 233t189.5 88q42 0 79 -15t62.5 -36t48 -42t45 -36t43.5 -15q87 0 88 138h187q0 -144 -71.5 -231
t-189.5 -87z" />
    <glyph glyph-name="adieresis" unicode="&#xe4;" horiz-adv-x="1208" 
d="M544 202q101 0 169 57t68 141v81l-223 -14q-186 -13 -186 -133q0 -61 47.5 -96.5t124.5 -35.5zM448 -17q-160 0 -260.5 91t-100.5 241q0 149 110.5 234.5t316.5 97.5l267 16v90q0 69 -48 106.5t-138 37.5q-162 0 -199 -102h-268q14 153 144.5 242.5t338.5 89.5
q218 0 337.5 -98t119.5 -276v-753h-282v144h-18q-43 -76 -128 -118.5t-192 -42.5zM377 1251q-67 0 -111 43t-44 109t43.5 108.5t111.5 42.5t111.5 -42.5t43.5 -108.5t-44 -109t-111 -43zM845 1251q-67 0 -111 43t-44 109t44 108.5t111 42.5q68 0 112 -42.5t44 -108.5
t-44 -109t-112 -43z" />
    <glyph glyph-name="aring" unicode="&#xe5;" horiz-adv-x="1208" 
d="M544 202q101 0 169 57t68 141v81l-223 -14q-186 -13 -186 -133q0 -61 47.5 -96.5t124.5 -35.5zM448 -17q-160 0 -260.5 91t-100.5 241q0 149 110.5 234.5t316.5 97.5l267 16v90q0 69 -48 106.5t-138 37.5q-162 0 -199 -102h-268q14 153 144.5 242.5t338.5 89.5
q218 0 337.5 -98t119.5 -276v-753h-282v144h-18q-43 -76 -128 -118.5t-192 -42.5zM611 1251q-105 0 -175.5 68.5t-70.5 172.5q0 102 70.5 170t175.5 68t175 -67.5t70 -170.5q0 -104 -70 -172.5t-175 -68.5zM611 1387q46 0 75.5 29.5t29.5 74.5q0 44 -30 73.5t-75 29.5
q-46 0 -76 -29.5t-30 -73.5q0 -46 30 -75t76 -29z" />
    <glyph glyph-name="ae" unicode="&#xe6;" horiz-adv-x="1894" 
d="M1315 -24q-130 0 -235 53.5t-156 144.5h-18q-64 -93 -169.5 -145.5t-237.5 -52.5q-187 0 -299.5 94t-112.5 245q0 149 110.5 234.5t316.5 97.5l267 16v73q0 80 -49.5 120.5t-136.5 40.5q-162 0 -199 -102h-268q13 146 139 239t313 93q251 0 357 -158h18q58 72 151.5 115
t204.5 43q228 0 360 -148t132 -401v-94h-747v-26q4 -117 74 -187.5t182 -70.5q155 0 212 114h269q-33 -156 -161 -247t-317 -91zM1293 904q-102 0 -166.5 -64.5t-70.5 -170.5h462q-4 105 -66.5 170t-158.5 65zM549 199q103 0 167.5 58t64.5 140v84l-223 -14
q-186 -13 -186 -135q0 -62 48.5 -97.5t128.5 -35.5z" />
    <glyph glyph-name="ccedilla" unicode="&#xe7;" horiz-adv-x="1203" 
d="M1122 714h-272q-15 81 -71.5 127.5t-147.5 46.5q-118 0 -181.5 -86t-63.5 -248q0 -164 63.5 -251.5t181.5 -87.5q90 0 146.5 43t72.5 124h272q-16 -167 -122 -273t-282 -128l-37 -88q95 -5 145.5 -50.5t50.5 -126.5q0 -97 -70 -151t-197 -54q-86 0 -147 18v134
q42 -14 116 -14q112 0 112 59q0 30 -30.5 43t-99.5 13h-60v116l44 101q-218 24 -335.5 172t-117.5 401q0 275 140 424t399 149q216 0 344.5 -111t146.5 -302z" />
    <glyph glyph-name="egrave" unicode="&#xe8;" horiz-adv-x="1231" 
d="M623 904q-101 0 -166.5 -65t-73.5 -172h470q-5 110 -66.5 173.5t-163.5 63.5zM859 314h271q-33 -157 -167.5 -247.5t-336.5 -90.5q-252 0 -393 150.5t-141 419.5t142 425t388 156q244 0 380.5 -147t136.5 -410v-89h-757v-15q3 -123 70.5 -194.5t181.5 -71.5
q86 0 144 29.5t81 84.5zM781 1281h-269l-287 353h309z" />
    <glyph glyph-name="eacute" unicode="&#xe9;" horiz-adv-x="1231" 
d="M623 904q-101 0 -166.5 -65t-73.5 -172h470q-5 110 -66.5 173.5t-163.5 63.5zM859 314h271q-33 -157 -167.5 -247.5t-336.5 -90.5q-252 0 -393 150.5t-141 419.5t142 425t388 156q244 0 380.5 -147t136.5 -410v-89h-757v-15q3 -123 70.5 -194.5t181.5 -71.5
q86 0 144 29.5t81 84.5zM736 1281h-269l247 353h309z" />
    <glyph glyph-name="ecircumflex" unicode="&#xea;" horiz-adv-x="1231" 
d="M623 904q-101 0 -166.5 -65t-73.5 -172h470q-5 110 -66.5 173.5t-163.5 63.5zM859 314h271q-33 -157 -167.5 -247.5t-336.5 -90.5q-252 0 -393 150.5t-141 419.5t142 425t388 156q244 0 380.5 -147t136.5 -410v-89h-757v-15q3 -123 70.5 -194.5t181.5 -71.5
q86 0 144 29.5t81 84.5zM767 1605l275 -354h-263l-148 209h-18l-149 -209h-263l275 354h291z" />
    <glyph glyph-name="edieresis" unicode="&#xeb;" horiz-adv-x="1231" 
d="M623 904q-101 0 -166.5 -65t-73.5 -172h470q-5 110 -66.5 173.5t-163.5 63.5zM859 314h271q-33 -157 -167.5 -247.5t-336.5 -90.5q-252 0 -393 150.5t-141 419.5t142 425t388 156q244 0 380.5 -147t136.5 -410v-89h-757v-15q3 -123 70.5 -194.5t181.5 -71.5
q86 0 144 29.5t81 84.5zM388 1251q-67 0 -111 43t-44 109t43.5 108.5t111.5 42.5t111.5 -42.5t43.5 -108.5t-44 -109t-111 -43zM856 1251q-67 0 -111 43t-44 109t44 108.5t111 42.5q68 0 112 -42.5t44 -108.5t-44 -109t-112 -43z" />
    <glyph glyph-name="igrave" unicode="&#xec;" horiz-adv-x="587" 
d="M148 0v1103h291v-1103h-291zM453 1281h-269l-287 353h309z" />
    <glyph glyph-name="iacute" unicode="&#xed;" horiz-adv-x="587" 
d="M148 0v1103h291v-1103h-291zM408 1281h-269l247 353h309z" />
    <glyph glyph-name="icircumflex" unicode="&#xee;" horiz-adv-x="587" 
d="M148 0v1103h291v-1103h-291zM439 1605l275 -354h-263l-148 209h-18l-149 -209h-263l275 354h291z" />
    <glyph glyph-name="idieresis" unicode="&#xef;" horiz-adv-x="587" 
d="M148 0v1103h291v-1103h-291zM60 1251q-67 0 -111 43t-44 109t43.5 108.5t111.5 42.5t111.5 -42.5t43.5 -108.5t-44 -109t-111 -43zM528 1251q-67 0 -111 43t-44 109t44 108.5t111 42.5q68 0 112 -42.5t44 -108.5t-44 -109t-112 -43z" />
    <glyph glyph-name="eth" unicode="&#xf0;" horiz-adv-x="1277" 
d="M638 -17q-245 0 -393 151t-148 402q0 230 127 373.5t331 143.5q90 0 166.5 -34t116.5 -91h17q-20 65 -65.5 140.5t-105.5 140.5l-285 -95l-55 143l228 76q-78 69 -242 183h363q61 -45 119 -100l265 89l57 -143l-205 -68q124 -146 188.5 -322.5t64.5 -367.5
q0 -283 -148 -452t-396 -169zM645 843q-115 0 -182 -83.5t-67 -225.5t67 -225t182 -83q116 0 183 83t67 225q0 141 -68 225t-182 84z" />
    <glyph glyph-name="ntilde" unicode="&#xf1;" horiz-adv-x="1285" 
d="M146 0v1103h282v-177h18q39 95 122.5 148t203.5 53q183 0 280 -107.5t97 -306.5v-713h-291v644q0 232 -203 232q-101 0 -159.5 -65.5t-58.5 -174.5v-636h-291zM806 1253q-42 0 -79 15t-62.5 36t-48 42t-45 36t-43.5 15q-86 0 -88 -141h-187q0 145 71.5 233t189.5 88
q42 0 79 -15t62.5 -36t48 -42t45 -36t43.5 -15q87 0 88 138h187q0 -144 -71.5 -231t-189.5 -87z" />
    <glyph glyph-name="ograve" unicode="&#xf2;" horiz-adv-x="1269" 
d="M635 -24q-254 0 -398.5 153t-144.5 423q0 268 145.5 421.5t397.5 153.5t397.5 -153.5t145.5 -421.5q0 -270 -144.5 -423t-398.5 -153zM635 214q116 0 180 88.5t64 249.5q0 159 -64.5 248t-179.5 89q-116 0 -180 -89t-64 -248q0 -161 63.5 -249.5t180.5 -88.5zM794 1281
h-269l-287 353h309z" />
    <glyph glyph-name="oacute" unicode="&#xf3;" horiz-adv-x="1269" 
d="M635 -24q-254 0 -398.5 153t-144.5 423q0 268 145.5 421.5t397.5 153.5t397.5 -153.5t145.5 -421.5q0 -270 -144.5 -423t-398.5 -153zM635 214q116 0 180 88.5t64 249.5q0 159 -64.5 248t-179.5 89q-116 0 -180 -89t-64 -248q0 -161 63.5 -249.5t180.5 -88.5zM749 1281
h-269l247 353h309z" />
    <glyph glyph-name="ocircumflex" unicode="&#xf4;" horiz-adv-x="1269" 
d="M635 -24q-254 0 -398.5 153t-144.5 423q0 268 145.5 421.5t397.5 153.5t397.5 -153.5t145.5 -421.5q0 -270 -144.5 -423t-398.5 -153zM635 214q116 0 180 88.5t64 249.5q0 159 -64.5 248t-179.5 89q-116 0 -180 -89t-64 -248q0 -161 63.5 -249.5t180.5 -88.5zM780 1605
l275 -354h-263l-148 209h-18l-149 -209h-263l275 354h291z" />
    <glyph glyph-name="otilde" unicode="&#xf5;" horiz-adv-x="1269" 
d="M635 -24q-254 0 -398.5 153t-144.5 423q0 268 145.5 421.5t397.5 153.5t397.5 -153.5t145.5 -421.5q0 -270 -144.5 -423t-398.5 -153zM635 214q116 0 180 88.5t64 249.5q0 159 -64.5 248t-179.5 89q-116 0 -180 -89t-64 -248q0 -161 63.5 -249.5t180.5 -88.5zM786 1253
q-42 0 -79 15t-62.5 36t-48 42t-45 36t-43.5 15q-86 0 -88 -141h-187q0 145 71.5 233t189.5 88q42 0 79 -15t62.5 -36t48 -42t45 -36t43.5 -15q87 0 88 138h187q0 -144 -71.5 -231t-189.5 -87z" />
    <glyph glyph-name="odieresis" unicode="&#xf6;" horiz-adv-x="1269" 
d="M635 -24q-254 0 -398.5 153t-144.5 423q0 268 145.5 421.5t397.5 153.5t397.5 -153.5t145.5 -421.5q0 -270 -144.5 -423t-398.5 -153zM635 214q116 0 180 88.5t64 249.5q0 159 -64.5 248t-179.5 89q-116 0 -180 -89t-64 -248q0 -161 63.5 -249.5t180.5 -88.5zM401 1251
q-67 0 -111 43t-44 109t43.5 108.5t111.5 42.5t111.5 -42.5t43.5 -108.5t-44 -109t-111 -43zM869 1251q-67 0 -111 43t-44 109t44 108.5t111 42.5q68 0 112 -42.5t44 -108.5t-44 -109t-112 -43z" />
    <glyph glyph-name="divide" unicode="&#xf7;" horiz-adv-x="1415" 
d="M708 815q-74 0 -120.5 45t-46.5 117t46.5 116.5t120.5 44.5t120.5 -44.5t46.5 -116.5t-46.5 -117t-120.5 -45zM708 30q-74 0 -120.5 45t-46.5 117t46.5 117t120.5 45t120.5 -45t46.5 -117t-46.5 -117t-120.5 -45zM1248 472h-1080v225h1080v-225z" />
    <glyph glyph-name="oslash" unicode="&#xf8;" horiz-adv-x="1269" 
d="M841 755l-320 -513q49 -28 114 -28q116 0 180 88.5t64 249.5q0 121 -38 203zM436 333l324 520q-52 36 -125 36q-116 0 -180 -89t-64 -248q0 -136 45 -219zM1065 1114l-67 -107q180 -155 180 -455q0 -270 -144.5 -423t-398.5 -153q-139 0 -249 48l-61 -97l-103 63l60 96
q-190 153 -190 466q0 268 145.5 421.5t397.5 153.5q147 0 262 -55l62 100z" />
    <glyph glyph-name="ugrave" unicode="&#xf9;" horiz-adv-x="1290" 
d="M1144 1103v-1103h-282v177h-18q-82 -201 -322 -201q-179 0 -282.5 108.5t-103.5 299.5v719h291v-644q0 -230 203 -230q107 0 165 63t58 175v636h291zM799 1281h-269l-287 353h309z" />
    <glyph glyph-name="uacute" unicode="&#xfa;" horiz-adv-x="1290" 
d="M1144 1103v-1103h-282v177h-18q-82 -201 -322 -201q-179 0 -282.5 108.5t-103.5 299.5v719h291v-644q0 -230 203 -230q107 0 165 63t58 175v636h291zM754 1281h-269l247 353h309z" />
    <glyph glyph-name="ucircumflex" unicode="&#xfb;" horiz-adv-x="1290" 
d="M1144 1103v-1103h-282v177h-18q-82 -201 -322 -201q-179 0 -282.5 108.5t-103.5 299.5v719h291v-644q0 -230 203 -230q107 0 165 63t58 175v636h291zM785 1605l275 -354h-263l-148 209h-18l-149 -209h-263l275 354h291z" />
    <glyph glyph-name="udieresis" unicode="&#xfc;" horiz-adv-x="1290" 
d="M1144 1103v-1103h-282v177h-18q-82 -201 -322 -201q-179 0 -282.5 108.5t-103.5 299.5v719h291v-644q0 -230 203 -230q107 0 165 63t58 175v636h291zM406 1251q-67 0 -111 43t-44 109t43.5 108.5t111.5 42.5t111.5 -42.5t43.5 -108.5t-44 -109t-111 -43zM874 1251
q-67 0 -111 43t-44 109t44 108.5t111 42.5q68 0 112 -42.5t44 -108.5t-44 -109t-112 -43z" />
    <glyph glyph-name="yacute" unicode="&#xfd;" horiz-adv-x="1223" 
d="M283 -401q-93 0 -111 3v234q10 -2 66 -2q83 0 130 28.5t65 90.5l10 40l-387 1110h321l232 -836h18l232 836h308l-380 -1120q-70 -212 -183.5 -298t-320.5 -86zM730 1281h-269l247 353h309z" />
    <glyph glyph-name="thorn" unicode="&#xfe;" horiz-adv-x="1339" 
d="M790 1121q210 0 329 -151t119 -418q0 -266 -119 -417.5t-326 -151.5q-118 0 -205 49t-128 137h-18v-514h-291v1852h287v-585h18q45 93 133 146t201 53zM689 226q118 0 184 86.5t66 239.5q0 152 -66.5 238.5t-182.5 86.5t-183.5 -87.5t-67.5 -238.5t67 -238t183 -87z" />
    <glyph glyph-name="ydieresis" unicode="&#xff;" horiz-adv-x="1223" 
d="M283 -401q-93 0 -111 3v234q10 -2 66 -2q83 0 130 28.5t65 90.5l10 40l-387 1110h321l232 -836h18l232 836h308l-380 -1120q-70 -212 -183.5 -298t-320.5 -86zM382 1251q-67 0 -111 43t-44 109t43.5 108.5t111.5 42.5t111.5 -42.5t43.5 -108.5t-44 -109t-111 -43z
M850 1251q-67 0 -111 43t-44 109t44 108.5t111 42.5q68 0 112 -42.5t44 -108.5t-44 -109t-112 -43z" />
    <glyph glyph-name="Amacron" unicode="&#x100;" horiz-adv-x="1500" 
d="M1102 0l-109 344h-507l-111 -344h-303l501 1443h355l501 -1443h-327zM732 1143l-181 -566h378l-179 566h-18zM1123 1813v-181h-746v181h746z" />
    <glyph glyph-name="amacron" unicode="&#x101;" horiz-adv-x="1208" 
d="M544 202q101 0 169 57t68 141v81l-223 -14q-186 -13 -186 -133q0 -61 47.5 -96.5t124.5 -35.5zM448 -17q-160 0 -260.5 91t-100.5 241q0 149 110.5 234.5t316.5 97.5l267 16v90q0 69 -48 106.5t-138 37.5q-162 0 -199 -102h-268q14 153 144.5 242.5t338.5 89.5
q218 0 337.5 -98t119.5 -276v-753h-282v144h-18q-43 -76 -128 -118.5t-192 -42.5zM979 1496v-180h-735v180h735z" />
    <glyph glyph-name="Abreve" unicode="&#x102;" horiz-adv-x="1500" 
d="M1102 0l-109 344h-507l-111 -344h-303l501 1443h355l501 -1443h-327zM732 1143l-181 -566h378l-179 566h-18zM350 1915h208q2 -75 53.5 -119.5t138.5 -44.5t138.5 44.5t53.5 119.5h208q0 -150 -108.5 -243t-291.5 -93t-291.5 93t-108.5 243z" />
    <glyph glyph-name="abreve" unicode="&#x103;" horiz-adv-x="1208" 
d="M544 202q101 0 169 57t68 141v81l-223 -14q-186 -13 -186 -133q0 -61 47.5 -96.5t124.5 -35.5zM448 -17q-160 0 -260.5 91t-100.5 241q0 149 110.5 234.5t316.5 97.5l267 16v90q0 69 -48 106.5t-138 37.5q-162 0 -199 -102h-268q14 153 144.5 242.5t338.5 89.5
q218 0 337.5 -98t119.5 -276v-753h-282v144h-18q-43 -76 -128 -118.5t-192 -42.5zM211 1602h207q2 -81 53 -129.5t139 -48.5t139 48.5t53 129.5h208q0 -156 -108.5 -253.5t-291.5 -97.5t-291 97.5t-108 253.5z" />
    <glyph glyph-name="Aogonek" unicode="&#x104;" horiz-adv-x="1500" 
d="M732 1143l-181 -566h378l-179 566h-18zM1359 -445q-54 -21 -138 -21q-123 0 -199 63t-76 161q0 69 44 133t114 102l-111 351h-507l-111 -344h-303l501 1443h355l501 -1443l-50 -6q-81 -18 -144 -69.5t-63 -114.5q0 -45 32 -70.5t86 -25.5q47 0 69 8v-167z" />
    <glyph glyph-name="aogonek" unicode="&#x105;" horiz-adv-x="1208" 
d="M544 202q101 0 169 57t68 141v81l-223 -14q-186 -13 -186 -133q0 -60 47 -96t125 -36zM1032 -445q-57 -21 -138 -21q-122 0 -198.5 62.5t-76.5 161.5q0 73 47 137.5t120 98.5v150h-18q-43 -76 -128 -118.5t-192 -42.5q-161 0 -261 91.5t-100 240.5t110 234.5t317 97.5
l267 16v90q0 69 -48.5 106.5t-137.5 37.5q-162 0 -199 -102h-268q14 153 144.5 242.5t338.5 89.5q217 0 337 -98t120 -276v-753l-36 -7q-81 -21 -134 -71.5t-53 -111.5q0 -43 31 -69.5t87 -26.5q50 0 69 8v-167z" />
    <glyph glyph-name="Cacute" unicode="&#x106;" horiz-adv-x="1518" 
d="M788 -37q-314 0 -495.5 203.5t-181.5 555.5t181.5 555t495.5 203q256 0 432.5 -152.5t193.5 -388.5h-294q-22 125 -112.5 200t-219.5 75q-170 0 -269 -132t-99 -360t99 -360.5t270 -132.5q130 0 220 71t112 190h294q-19 -234 -192.5 -380.5t-434.5 -146.5zM925 1591h-278
l277 318h315z" />
    <glyph glyph-name="cacute" unicode="&#x107;" horiz-adv-x="1203" 
d="M1122 714h-272q-15 81 -71.5 127.5t-147.5 46.5q-118 0 -181.5 -86t-63.5 -248q0 -164 63.5 -251.5t181.5 -87.5q90 0 146.5 43t72.5 124h272q-18 -187 -148 -296.5t-343 -109.5q-258 0 -398.5 150.5t-140.5 427.5q0 275 140 424t399 149q216 0 344.5 -111t146.5 -302z
M744 1281h-269l247 353h309z" />
    <glyph glyph-name="Ccircumflex" unicode="&#x108;" horiz-adv-x="1518" 
d="M788 -37q-314 0 -495.5 203.5t-181.5 555.5t181.5 555t495.5 203q256 0 432.5 -152.5t193.5 -388.5h-294q-22 125 -112.5 200t-219.5 75q-170 0 -269 -132t-99 -360t99 -360.5t270 -132.5q130 0 220 71t112 190h294q-19 -234 -192.5 -380.5t-434.5 -146.5zM652 1926h272
l284 -335h-265l-146 187h-18l-146 -187h-265z" />
    <glyph glyph-name="ccircumflex" unicode="&#x109;" horiz-adv-x="1203" 
d="M1122 714h-272q-15 81 -71.5 127.5t-147.5 46.5q-118 0 -181.5 -86t-63.5 -248q0 -164 63.5 -251.5t181.5 -87.5q90 0 146.5 43t72.5 124h272q-18 -187 -148 -296.5t-343 -109.5q-258 0 -398.5 150.5t-140.5 427.5q0 275 140 424t399 149q216 0 344.5 -111t146.5 -302z
M775 1605l275 -354h-263l-148 209h-18l-149 -209h-263l275 354h291z" />
    <glyph glyph-name="Cdotaccent" unicode="&#x10a;" horiz-adv-x="1518" 
d="M788 -37q-314 0 -495.5 203.5t-181.5 555.5t181.5 555t495.5 203q256 0 432.5 -152.5t193.5 -388.5h-294q-22 125 -112.5 200t-219.5 75q-170 0 -269 -132t-99 -360t99 -360.5t270 -132.5q130 0 220 71t112 190h294q-19 -234 -192.5 -380.5t-434.5 -146.5zM788 1580
q-69 0 -113.5 45t-44.5 113t44.5 113t113.5 45t113 -45t44 -113t-44 -113t-113 -45z" />
    <glyph glyph-name="cdotaccent" unicode="&#x10b;" horiz-adv-x="1203" 
d="M1122 714h-272q-15 81 -71.5 127.5t-147.5 46.5q-118 0 -181.5 -86t-63.5 -248q0 -164 63.5 -251.5t181.5 -87.5q90 0 146.5 43t72.5 124h272q-18 -187 -148 -296.5t-343 -109.5q-258 0 -398.5 150.5t-140.5 427.5q0 275 140 424t399 149q216 0 344.5 -111t146.5 -302z
M630 1278q-70 0 -115.5 45.5t-45.5 114.5t45.5 115t115.5 46t115.5 -46t45.5 -115t-45.5 -114.5t-115.5 -45.5z" />
    <glyph glyph-name="Ccaron" unicode="&#x10c;" horiz-adv-x="1518" 
d="M788 -37q-314 0 -495.5 203.5t-181.5 555.5t181.5 555t495.5 203q256 0 432.5 -152.5t193.5 -388.5h-294q-22 125 -112.5 200t-219.5 75q-170 0 -269 -132t-99 -360t99 -360.5t270 -132.5q130 0 220 71t112 190h294q-19 -234 -192.5 -380.5t-434.5 -146.5zM661 1591
l-281 318h253l145 -173h20l145 173h253l-281 -318h-254z" />
    <glyph glyph-name="ccaron" unicode="&#x10d;" horiz-adv-x="1203" 
d="M1122 714h-272q-15 81 -71.5 127.5t-147.5 46.5q-118 0 -181.5 -86t-63.5 -248q0 -164 63.5 -251.5t181.5 -87.5q90 0 146.5 43t72.5 124h272q-18 -187 -148 -296.5t-343 -109.5q-258 0 -398.5 150.5t-140.5 427.5q0 275 140 424t399 149q216 0 344.5 -111t146.5 -302z
M775 1251h-291l-275 354h263l149 -209h18l148 209h263z" />
    <glyph glyph-name="Dcaron" unicode="&#x10e;" horiz-adv-x="1530" 
d="M175 1444h568q322 0 499.5 -186.5t177.5 -525.5q0 -351 -176.5 -541.5t-500.5 -190.5h-568v1444zM477 1186v-928h218q201 0 309 120.5t108 348.5q0 218 -110 338.5t-307 120.5h-218zM512 1590l-281 318h253l145 -173h20l145 173h253l-281 -318h-254z" />
    <glyph glyph-name="dcaron" unicode="&#x10f;" horiz-adv-x="1535" 
d="M1314 1524h251l-50 -505h-201v505zM541 -17q-208 0 -328.5 153t-120.5 417q0 263 120.5 415.5t328.5 152.5q112 0 199 -51.5t130 -142.5h17v597h291v-1524h-282v173h-18q-44 -89 -133 -139.5t-204 -50.5zM640 877q-116 0 -182.5 -86.5t-66.5 -238.5q0 -153 66 -239.5
t183 -86.5t183.5 86.5t66.5 238.5q0 151 -67 238.5t-183 87.5z" />
    <glyph glyph-name="Dcroat" unicode="&#x110;" horiz-adv-x="1533" 
d="M480 258h218q201 0 309 120.5t108 348.5q0 218 -110 338.5t-307 120.5h-218v-341h225v-227h-225v-360zM178 1444h568q322 0 499.5 -186.5t177.5 -525.5q0 -351 -176.5 -541.5t-500.5 -190.5h-568v618h-128v227h128v599z" />
    <glyph glyph-name="dcroat" unicode="&#x111;" horiz-adv-x="1346" 
d="M652 226q117 0 183.5 86.5t66.5 238.5q0 151 -67 238.5t-183 87.5t-182.5 -86.5t-66.5 -238.5q0 -153 66 -239.5t183 -86.5zM1334 1408v-153h-144v-1255h-282v173h-18q-44 -89 -133 -139.5t-204 -50.5q-208 0 -328.5 153t-120.5 417q0 263 120.5 415.5t328.5 152.5
q112 0 199 -51.5t130 -142.5h17v328h-233v153h233v116h291v-116h144z" />
    <glyph glyph-name="Emacron" unicode="&#x112;" horiz-adv-x="1274" 
d="M1131 258v-258h-956v1443h956v-258h-654v-337h617v-239h-617v-351h654zM1026 1813v-181h-746v181h746z" />
    <glyph glyph-name="emacron" unicode="&#x113;" horiz-adv-x="1231" 
d="M623 904q-101 0 -166.5 -65t-73.5 -172h470q-5 110 -66.5 173.5t-163.5 63.5zM859 314h271q-33 -157 -167.5 -247.5t-336.5 -90.5q-252 0 -393 150.5t-141 419.5t142 425t388 156q244 0 380.5 -147t136.5 -410v-89h-757v-15q3 -123 70.5 -194.5t181.5 -71.5
q86 0 144 29.5t81 84.5zM990 1496v-180h-735v180h735z" />
    <glyph glyph-name="Ebreve" unicode="&#x114;" horiz-adv-x="1274" 
d="M1131 258v-258h-956v1443h956v-258h-654v-337h617v-239h-617v-351h654zM253 1915h208q2 -75 53.5 -119.5t138.5 -44.5t138.5 44.5t53.5 119.5h208q0 -150 -108.5 -243t-291.5 -93t-291.5 93t-108.5 243z" />
    <glyph glyph-name="ebreve" unicode="&#x115;" horiz-adv-x="1231" 
d="M623 904q-101 0 -166.5 -65t-73.5 -172h470q-5 110 -66.5 173.5t-163.5 63.5zM859 314h271q-33 -157 -167.5 -247.5t-336.5 -90.5q-252 0 -393 150.5t-141 419.5t142 425t388 156q244 0 380.5 -147t136.5 -410v-89h-757v-15q3 -123 70.5 -194.5t181.5 -71.5
q86 0 144 29.5t81 84.5zM222 1602h207q2 -81 53 -129.5t139 -48.5t139 48.5t53 129.5h208q0 -156 -108.5 -253.5t-291.5 -97.5t-291 97.5t-108 253.5z" />
    <glyph glyph-name="Edotaccent" unicode="&#x116;" horiz-adv-x="1274" 
d="M1131 258v-258h-956v1443h956v-258h-654v-337h617v-239h-617v-351h654zM653 1579q-69 0 -113.5 45t-44.5 113t44.5 113t113.5 45t113 -45t44 -113t-44 -113t-113 -45z" />
    <glyph glyph-name="edotaccent" unicode="&#x117;" horiz-adv-x="1231" 
d="M623 904q-101 0 -166.5 -65t-73.5 -172h470q-5 110 -66.5 173.5t-163.5 63.5zM859 314h271q-33 -157 -167.5 -247.5t-336.5 -90.5q-252 0 -393 150.5t-141 419.5t142 425t388 156q244 0 380.5 -147t136.5 -410v-89h-757v-15q3 -123 70.5 -194.5t181.5 -71.5
q86 0 144 29.5t81 84.5zM622 1278q-70 0 -115.5 45.5t-45.5 114.5t45.5 115t115.5 46t115.5 -46t45.5 -115t-45.5 -114.5t-115.5 -45.5z" />
    <glyph glyph-name="Eogonek" unicode="&#x118;" horiz-adv-x="1274" 
d="M175 0v1443h956v-258h-654v-337h617v-239h-617v-351h654v-253l-46 -11q-75 -20 -133.5 -71t-58.5 -113q0 -45 32 -70.5t86 -25.5q49 0 69 8v-167q-54 -21 -138 -21q-122 0 -198 63t-76 161q0 67 39 127.5t102 96.5v18h-634z" />
    <glyph glyph-name="eogonek" unicode="&#x119;" horiz-adv-x="1231" 
d="M844 -466q-122 0 -198 63t-76 161q0 62 35.5 117.5t95.5 90.5v18q-26 -8 -75 -8q-252 0 -393 150.5t-141 419.5t142 425t388 156q244 0 380.5 -147t136.5 -410v-89h-757v-15q3 -123 70.5 -194.5t181.5 -71.5q86 0 144 29.5t81 84.5h271q-10 -64 -59 -141.5t-117 -132.5
q-82 -66 -120.5 -119.5t-38.5 -105.5q0 -48 32 -74.5t86 -26.5q49 0 69 8v-167q-54 -21 -138 -21zM623 904q-101 0 -166.5 -65t-73.5 -172h470q-5 110 -66.5 173.5t-163.5 63.5z" />
    <glyph glyph-name="Ecaron" unicode="&#x11a;" horiz-adv-x="1274" 
d="M1131 258v-258h-956v1443h956v-258h-654v-337h617v-239h-617v-351h654zM526 1590l-281 318h253l145 -173h20l145 173h253l-281 -318h-254z" />
    <glyph glyph-name="ecaron" unicode="&#x11b;" horiz-adv-x="1231" 
d="M623 904q-101 0 -166.5 -65t-73.5 -172h470q-5 110 -66.5 173.5t-163.5 63.5zM859 314h271q-33 -157 -167.5 -247.5t-336.5 -90.5q-252 0 -393 150.5t-141 419.5t142 425t388 156q244 0 380.5 -147t136.5 -410v-89h-757v-15q3 -123 70.5 -194.5t181.5 -71.5
q86 0 144 29.5t81 84.5zM767 1251h-291l-275 354h263l149 -209h18l148 209h263z" />
    <glyph glyph-name="Gcircumflex" unicode="&#x11c;" horiz-adv-x="1557" 
d="M1443 589q0 -289 -172 -457.5t-468 -168.5q-322 0 -507 203t-185 557q0 349 185 553t500 204q256 0 429 -136t205 -361h-300q-34 110 -121 170.5t-213 60.5q-175 0 -275.5 -130.5t-100.5 -357.5q0 -231 104.5 -364t283.5 -133q148 0 242 80t99 211l1 26h-313v227h606
v-184zM660 1926h272l284 -335h-265l-146 187h-18l-146 -187h-265z" />
    <glyph glyph-name="gcircumflex" unicode="&#x11d;" horiz-adv-x="1322" 
d="M636 246q118 0 185 84.5t67 230.5t-67.5 231t-184.5 85t-182.5 -84.5t-65.5 -230.5q0 -147 65 -231.5t183 -84.5zM632 -418q-218 0 -354.5 88.5t-150.5 234.5h288q11 -51 70 -81t153 -30q117 0 182 51.5t65 144.5v204h-18q-94 -178 -332 -178q-206 0 -326 147.5
t-120 397.5q0 257 121.5 408.5t330.5 151.5q112 0 201.5 -52t133.5 -143h18v177h282v-1099q0 -194 -147 -308t-397 -114zM789 1605l275 -354h-263l-148 209h-18l-149 -209h-263l275 354h291z" />
    <glyph glyph-name="Gbreve" unicode="&#x11e;" horiz-adv-x="1557" 
d="M1443 589q0 -289 -172 -457.5t-468 -168.5q-322 0 -507 203t-185 557q0 349 185 553t500 204q256 0 429 -136t205 -361h-300q-34 110 -121 170.5t-213 60.5q-175 0 -275.5 -130.5t-100.5 -357.5q0 -231 104.5 -364t283.5 -133q148 0 242 80t99 211l1 26h-313v227h606
v-184zM396 1916h208q2 -75 53.5 -119.5t138.5 -44.5t138.5 44.5t53.5 119.5h208q0 -150 -108.5 -243t-291.5 -93t-291.5 93t-108.5 243z" />
    <glyph glyph-name="gbreve" unicode="&#x11f;" horiz-adv-x="1322" 
d="M636 246q118 0 185 84.5t67 230.5t-67.5 231t-184.5 85t-182.5 -84.5t-65.5 -230.5q0 -147 65 -231.5t183 -84.5zM632 -418q-218 0 -354.5 88.5t-150.5 234.5h288q11 -51 70 -81t153 -30q117 0 182 51.5t65 144.5v204h-18q-94 -178 -332 -178q-206 0 -326 147.5
t-120 397.5q0 257 121.5 408.5t330.5 151.5q112 0 201.5 -52t133.5 -143h18v177h282v-1099q0 -194 -147 -308t-397 -114zM244 1602h207q2 -81 53 -129.5t139 -48.5t139 48.5t53 129.5h208q0 -156 -108.5 -253.5t-291.5 -97.5t-291 97.5t-108 253.5z" />
    <glyph glyph-name="Gdotaccent" unicode="&#x120;" horiz-adv-x="1557" 
d="M1443 589q0 -289 -172 -457.5t-468 -168.5q-322 0 -507 203t-185 557q0 349 185 553t500 204q256 0 429 -136t205 -361h-300q-34 110 -121 170.5t-213 60.5q-175 0 -275.5 -130.5t-100.5 -357.5q0 -231 104.5 -364t283.5 -133q148 0 242 80t99 211l1 26h-313v227h606
v-184zM796 1580q-69 0 -113.5 45t-44.5 113t44.5 113t113.5 45t113 -45t44 -113t-44 -113t-113 -45z" />
    <glyph glyph-name="gdotaccent" unicode="&#x121;" horiz-adv-x="1322" 
d="M636 246q118 0 185 84.5t67 230.5t-67.5 231t-184.5 85t-182.5 -84.5t-65.5 -230.5q0 -147 65 -231.5t183 -84.5zM632 -418q-218 0 -354.5 88.5t-150.5 234.5h288q11 -51 70 -81t153 -30q117 0 182 51.5t65 144.5v204h-18q-94 -178 -332 -178q-206 0 -326 147.5
t-120 397.5q0 257 121.5 408.5t330.5 151.5q112 0 201.5 -52t133.5 -143h18v177h282v-1099q0 -194 -147 -308t-397 -114zM644 1278q-70 0 -115.5 45.5t-45.5 114.5t45.5 115t115.5 46t115.5 -46t45.5 -115t-45.5 -114.5t-115.5 -45.5z" />
    <glyph glyph-name="Gcommaaccent" unicode="&#x122;" horiz-adv-x="1557" 
d="M1443 589q0 -289 -172 -457.5t-468 -168.5q-322 0 -507 203t-185 557q0 349 185 553t500 204q256 0 429 -136t205 -361h-300q-34 110 -121 170.5t-213 60.5q-175 0 -275.5 -130.5t-100.5 -357.5q0 -231 104.5 -364t283.5 -133q148 0 242 80t99 211l1 26h-313v227h606
v-184zM807 -509h-258l132 358h292z" />
    <glyph glyph-name="gcommaaccent" unicode="&#x123;" horiz-adv-x="1322" 
d="M636 246q118 0 185 84.5t67 230.5t-67.5 231t-184.5 85t-182.5 -84.5t-65.5 -230.5q0 -147 65 -231.5t183 -84.5zM632 -418q-218 0 -354.5 88.5t-150.5 234.5h288q11 -51 70 -81t153 -30q117 0 182 51.5t65 144.5v204h-18q-94 -178 -332 -178q-206 0 -326 147.5
t-120 397.5q0 257 121.5 408.5t330.5 151.5q112 0 201.5 -52t133.5 -143h18v177h282v-1099q0 -194 -147 -308t-397 -114zM669 1649h258l-132 -358h-292z" />
    <glyph glyph-name="Hcircumflex" unicode="&#x124;" horiz-adv-x="1604" 
d="M1429 0h-302v603h-650v-603h-302v1443h302v-582h650v582h302v-1443zM666 1925h272l284 -335h-265l-146 187h-18l-146 -187h-265z" />
    <glyph glyph-name="hcircumflex" unicode="&#x125;" horiz-adv-x="1307" 
d="M156 0v1524h286v-602h18q39 95 125.5 148.5t207.5 53.5q179 0 278.5 -108t99.5 -306v-710h-291v641q0 114 -52 173t-151 59q-108 0 -169 -65.5t-61 -174.5v-633h-291zM163 2006h272l284 -335h-265l-146 187h-18l-146 -187h-265z" />
    <glyph glyph-name="Hbar" unicode="&#x126;" horiz-adv-x="1604" 
d="M1127 861v194h-650v-194h650zM1557 1261v-206h-128v-1055h-302v603h-650v-603h-302v1055h-128v206h128v182h302v-182h650v182h302v-182h128z" />
    <glyph glyph-name="hbar" unicode="&#x127;" horiz-adv-x="1307" 
d="M442 922h18q39 95 125.5 148.5t207.5 53.5q179 0 278.5 -108t99.5 -306v-710h-291v641q0 114 -52 173t-151 59q-108 0 -169 -65.5t-61 -174.5v-633h-291v1255h-144v153h144v116h286v-116h233v-153h-233v-333z" />
    <glyph glyph-name="Itilde" unicode="&#x128;" horiz-adv-x="652" 
d="M477 0h-302v1443h302v-1443zM472 1572q-42 0 -79 15t-62.5 36t-48 42t-45 36t-43.5 15q-86 0 -88 -141h-187q0 145 71.5 233t189.5 88q42 0 79 -15t62.5 -36t48 -42t45 -36t43.5 -15q87 0 88 138h187q0 -144 -71.5 -231t-189.5 -87z" />
    <glyph glyph-name="itilde" unicode="&#x129;" horiz-adv-x="587" 
d="M148 0v1103h291v-1103h-291zM445 1253q-42 0 -79 15t-62.5 36t-48 42t-45 36t-43.5 15q-86 0 -88 -141h-187q0 145 71.5 233t189.5 88q42 0 79 -15t62.5 -36t48 -42t45 -36t43.5 -15q87 0 88 138h187q0 -144 -71.5 -231t-189.5 -87z" />
    <glyph glyph-name="Imacron" unicode="&#x12a;" horiz-adv-x="652" 
d="M477 0h-302v1443h302v-1443zM699 1813v-181h-746v181h746z" />
    <glyph glyph-name="imacron" unicode="&#x12b;" horiz-adv-x="587" 
d="M148 0v1103h291v-1103h-291zM607 1496v-180h-625v180h625z" />
    <glyph glyph-name="Ibreve" unicode="&#x12c;" horiz-adv-x="652" 
d="M477 0h-302v1443h302v-1443zM-74 1915h208q2 -75 53.5 -119.5t138.5 -44.5t138.5 44.5t53.5 119.5h208q0 -150 -108.5 -243t-291.5 -93t-291.5 93t-108.5 243z" />
    <glyph glyph-name="ibreve" unicode="&#x12d;" horiz-adv-x="587" 
d="M148 0v1103h291v-1103h-291zM-106 1602h207q2 -81 53 -129.5t139 -48.5t139 48.5t53 129.5h208q0 -156 -108.5 -253.5t-291.5 -97.5t-291 97.5t-108 253.5z" />
    <glyph glyph-name="Iogonek" unicode="&#x12e;" horiz-adv-x="652" 
d="M175 -33v1476h302v-1443l-22 -6q-74 -28 -122.5 -75t-48.5 -104q0 -46 32.5 -73.5t90.5 -27.5q42 0 69 8v-167q-56 -21 -143 -21q-121 0 -197.5 62.5t-76.5 161.5q0 64 31 119t85 90z" />
    <glyph glyph-name="iogonek" unicode="&#x12f;" horiz-adv-x="587" 
d="M294 1257q-78 0 -125 41t-47 106q0 66 47 106.5t125 40.5t125 -40.5t47 -106.5q0 -65 -47.5 -106t-124.5 -41zM148 -20v1123h291v-1103l-32 -6q-72 -25 -116.5 -73t-44.5 -106q0 -47 33.5 -74t89.5 -27q34 0 69 7v-166q-52 -21 -135 -21q-129 0 -205.5 64t-76.5 165
q0 63 33 120t94 97z" />
    <glyph glyph-name="Idotaccent" unicode="&#x130;" horiz-adv-x="652" 
d="M477 0h-302v1443h302v-1443zM326 1579q-69 0 -113.5 45t-44.5 113t44.5 113t113.5 45t113 -45t44 -113t-44 -113t-113 -45z" />
    <glyph glyph-name="dotlessi" unicode="&#x131;" horiz-adv-x="587" 
d="M148 0v1103h291v-1103h-291z" />
    <glyph glyph-name="IJ" unicode="&#x132;" horiz-adv-x="1883" 
d="M477 0h-302v1443h302v-1443zM728 424h292q2 -87 54.5 -139t139.5 -52q93 0 142.5 55.5t49.5 161.5v993h302v-995q0 -232 -129.5 -358.5t-360.5 -126.5q-223 0 -356.5 125t-133.5 336z" />
    <glyph glyph-name="ij" unicode="&#x133;" horiz-adv-x="1194" 
d="M148 0v1103h291v-1103h-291zM294 1257q-78 0 -125 41t-47 106q0 66 47 106.5t125 40.5t125 -40.5t47 -106.5q0 -65 -47.5 -106t-124.5 -41zM1036 1103v-1137q0 -169 -99 -255.5t-291 -86.5q-54 0 -78 4v223q6 -1 37 -1q76 0 108 29t32 95v1129h291zM891 1257
q-78 0 -125 41t-47 106q0 66 47 106.5t125 40.5t125 -40.5t47 -106.5q0 -65 -47.5 -106t-124.5 -41z" />
    <glyph glyph-name="Jcircumflex" unicode="&#x134;" horiz-adv-x="1231" 
d="M76 424h292q2 -87 54.5 -139t139.5 -52q93 0 142.5 55.5t49.5 161.5v993h302v-995q0 -232 -129.5 -358.5t-360.5 -126.5q-223 0 -356.5 125t-133.5 336zM769 1925h272l284 -335h-265l-146 187h-18l-146 -187h-265z" />
    <glyph glyph-name="jcircumflex" unicode="&#x135;" horiz-adv-x="587" 
d="M436 1103v-1137q0 -169 -99 -255.5t-291 -86.5q-54 0 -78 4v223q6 -1 37 -1q76 0 108 29t32 95v1129h291zM440 1605l275 -354h-263l-148 209h-18l-149 -209h-263l275 354h291z" />
    <glyph glyph-name="Kcommaaccent" unicode="&#x136;" horiz-adv-x="1453" 
d="M477 0h-302v1443h302v-643h18l533 643h336l-526 -633l563 -810h-362l-419 604l-143 -169v-435zM696 -509h-258l132 358h292z" />
    <glyph glyph-name="kcommaaccent" unicode="&#x137;" horiz-adv-x="1232" 
d="M465 672l369 431h331l-420 -473l449 -630h-345l-322 448l-80 -82v-366h-291v1524h291v-852h18zM645 -509h-258l132 358h292z" />
    <glyph glyph-name="Lacute" unicode="&#x139;" horiz-adv-x="1218" 
d="M1119 263v-263h-944v1443h302v-1180h642zM463 1590h-278l277 318h315z" />
    <glyph glyph-name="lacute" unicode="&#x13a;" horiz-adv-x="603" 
d="M156 0v1524h291v-1524h-291zM439 1671h-278l277 318h315z" />
    <glyph glyph-name="Lcommaaccent" unicode="&#x13b;" horiz-adv-x="1218" 
d="M1119 263v-263h-944v1443h302v-1180h642zM636 -509h-258l132 358h292z" />
    <glyph glyph-name="lcommaaccent" unicode="&#x13c;" horiz-adv-x="603" 
d="M156 0v1524h291v-1524h-291zM296 -509h-258l132 358h292z" />
    <glyph glyph-name="Lcaron" unicode="&#x13d;" horiz-adv-x="1218" 
d="M675 1443h246l-50 -504h-196v504zM1119 263v-263h-944v1443h302v-1180h642z" />
    <glyph glyph-name="lcaron" unicode="&#x13e;" horiz-adv-x="804" 
d="M583 1524h251l-50 -505h-201v505zM156 0v1524h291v-1524h-291z" />
    <glyph glyph-name="Lslash" unicode="&#x141;" horiz-adv-x="1218" 
d="M477 263h642v-263h-944v661l-152 -78v205l152 78v577h302v-423l238 122v-205l-238 -122v-552z" />
    <glyph glyph-name="lslash" unicode="&#x142;" horiz-adv-x="603" 
d="M571 1094v-205l-124 -66v-823h-291v668l-124 -66v205l124 66v651h291v-496z" />
    <glyph glyph-name="Nacute" unicode="&#x143;" horiz-adv-x="1573" 
d="M464 0h-289v1443h252l664 -899h18v899h289v-1443h-250l-666 903h-18v-903zM920 1590h-278l277 318h315z" />
    <glyph glyph-name="nacute" unicode="&#x144;" horiz-adv-x="1285" 
d="M146 0v1103h282v-177h18q39 95 122.5 148t203.5 53q183 0 280 -107.5t97 -306.5v-713h-291v644q0 232 -203 232q-101 0 -159.5 -65.5t-58.5 -174.5v-636h-291zM769 1281h-269l247 353h309z" />
    <glyph glyph-name="Ncommaaccent" unicode="&#x145;" horiz-adv-x="1573" 
d="M464 0h-289v1443h252l664 -899h18v899h289v-1443h-250l-666 903h-18v-903zM777 -509h-258l132 358h292z" />
    <glyph glyph-name="ncommaaccent" unicode="&#x146;" horiz-adv-x="1285" 
d="M146 0v1103h282v-177h18q39 95 122.5 148t203.5 53q183 0 280 -107.5t97 -306.5v-713h-291v644q0 232 -203 232q-101 0 -159.5 -65.5t-58.5 -174.5v-636h-291zM649 -509h-258l132 358h292z" />
    <glyph glyph-name="Ncaron" unicode="&#x147;" horiz-adv-x="1573" 
d="M464 0h-289v1443h252l664 -899h18v899h289v-1443h-250l-666 903h-18v-903zM656 1590l-281 318h253l145 -173h20l145 173h253l-281 -318h-254z" />
    <glyph glyph-name="ncaron" unicode="&#x148;" horiz-adv-x="1285" 
d="M146 0v1103h282v-177h18q39 95 122.5 148t203.5 53q183 0 280 -107.5t97 -306.5v-713h-291v644q0 232 -203 232q-101 0 -159.5 -65.5t-58.5 -174.5v-636h-291zM800 1251h-291l-275 354h263l149 -209h18l148 209h263z" />
    <glyph glyph-name="Omacron" unicode="&#x14c;" horiz-adv-x="1610" 
d="M806 1480q320 0 506.5 -204t186.5 -554q0 -351 -186.5 -555t-506.5 -204q-321 0 -508 204t-187 555q0 350 188 554t507 204zM806 1215q-176 0 -281 -133.5t-105 -359.5t104.5 -360t281.5 -134q176 0 280.5 134t104.5 360t-104.5 359.5t-280.5 133.5zM1179 1813v-181h-746
v181h746z" />
    <glyph glyph-name="omacron" unicode="&#x14d;" horiz-adv-x="1269" 
d="M635 -24q-254 0 -398.5 153t-144.5 423q0 268 145.5 421.5t397.5 153.5t397.5 -153.5t145.5 -421.5q0 -270 -144.5 -423t-398.5 -153zM635 214q116 0 180 88.5t64 249.5q0 159 -64.5 248t-179.5 89q-116 0 -180 -89t-64 -248q0 -161 63.5 -249.5t180.5 -88.5zM1003 1496
v-180h-735v180h735z" />
    <glyph glyph-name="Obreve" unicode="&#x14e;" horiz-adv-x="1610" 
d="M806 1480q320 0 506.5 -204t186.5 -554q0 -351 -186.5 -555t-506.5 -204q-321 0 -508 204t-187 555q0 350 188 554t507 204zM806 1215q-176 0 -281 -133.5t-105 -359.5t104.5 -360t281.5 -134q176 0 280.5 134t104.5 360t-104.5 359.5t-280.5 133.5zM406 1915h208
q2 -75 53.5 -119.5t138.5 -44.5t138.5 44.5t53.5 119.5h208q0 -150 -108.5 -243t-291.5 -93t-291.5 93t-108.5 243z" />
    <glyph glyph-name="obreve" unicode="&#x14f;" horiz-adv-x="1269" 
d="M635 -24q-254 0 -398.5 153t-144.5 423q0 268 145.5 421.5t397.5 153.5t397.5 -153.5t145.5 -421.5q0 -270 -144.5 -423t-398.5 -153zM635 214q116 0 180 88.5t64 249.5q0 159 -64.5 248t-179.5 89q-116 0 -180 -89t-64 -248q0 -161 63.5 -249.5t180.5 -88.5zM235 1602
h207q2 -81 53 -129.5t139 -48.5t139 48.5t53 129.5h208q0 -156 -108.5 -253.5t-291.5 -97.5t-291 97.5t-108 253.5z" />
    <glyph glyph-name="Ohungarumlaut" unicode="&#x150;" horiz-adv-x="1610" 
d="M806 1480q320 0 506.5 -204t186.5 -554q0 -351 -186.5 -555t-506.5 -204q-321 0 -508 204t-187 555q0 350 188 554t507 204zM806 1215q-176 0 -281 -133.5t-105 -359.5t104.5 -360t281.5 -134q176 0 280.5 134t104.5 360t-104.5 359.5t-280.5 133.5zM1119 1590h-244
l252 318h270zM682 1590h-244l251 318h271z" />
    <glyph glyph-name="ohungarumlaut" unicode="&#x151;" horiz-adv-x="1269" 
d="M635 -24q-254 0 -398.5 153t-144.5 423q0 268 145.5 421.5t397.5 153.5t397.5 -153.5t145.5 -421.5q0 -270 -144.5 -423t-398.5 -153zM635 214q116 0 180 88.5t64 249.5q0 159 -64.5 248t-179.5 89q-116 0 -180 -89t-64 -248q0 -161 63.5 -249.5t180.5 -88.5zM712 1281
l212 353h259l-242 -353h-229zM276 1281l212 353h259l-242 -353h-229z" />
    <glyph glyph-name="OE" unicode="&#x152;" horiz-adv-x="2271" 
d="M821 1215q-179 0 -285 -133.5t-106 -359.5q0 -227 105.5 -360.5t285.5 -133.5q175 0 278 133.5t103 360.5t-103 360t-278 133zM1254 0v232h-18q-55 -121 -183 -195t-282 -74q-305 0 -477.5 201t-172.5 558t172.5 557.5t477.5 200.5q152 0 282.5 -73.5t182.5 -188.5h18
v225h916v-258h-663v-337h626v-239h-626v-351h663v-258h-916z" />
    <glyph glyph-name="oe" unicode="&#x153;" horiz-adv-x="2017" 
d="M1427 -24q-128 0 -232.5 49.5t-160.5 136.5h-18q-55 -87 -157.5 -136.5t-232.5 -49.5q-245 0 -387 154t-142 420q0 269 141.5 423t388.5 154q129 0 229.5 -49t160.5 -141h18q58 90 160 140t231 50q228 0 364.5 -151t136.5 -406v-88h-757v-16q3 -123 71 -194.5t181 -71.5
q177 0 225 114h269q-33 -156 -165.5 -247t-323.5 -91zM1641 667q-5 110 -66.5 173.5t-163.5 63.5q-101 0 -167 -64.5t-73 -172.5h470zM396 551q0 -161 64 -249t180 -88t180 88t64 249q0 160 -64.5 249t-179.5 89t-179.5 -89t-64.5 -249z" />
    <glyph glyph-name="Racute" unicode="&#x154;" horiz-adv-x="1422" 
d="M477 1199v-444h265q114 0 177.5 58.5t63.5 162.5q0 103 -66 163t-178 60h-262zM477 523v-523h-302v1443h606q238 0 375 -124t137 -339q0 -140 -69.5 -250.5t-192.5 -159.5l304 -570h-342l-269 523h-247zM789 1590h-278l277 318h315z" />
    <glyph glyph-name="racute" unicode="&#x155;" horiz-adv-x="891" 
d="M146 0v1103h282v-176h18q22 84 100.5 139t182.5 55q75 0 114 -14v-265q-46 18 -138 18q-121 0 -194.5 -67t-73.5 -182v-611h-291zM562 1281h-269l247 353h309z" />
    <glyph glyph-name="Rcommaaccent" unicode="&#x156;" horiz-adv-x="1422" 
d="M477 1199v-444h265q114 0 177.5 58.5t63.5 162.5q0 103 -66 163t-178 60h-262zM477 523v-523h-302v1443h606q238 0 375 -124t137 -339q0 -140 -69.5 -250.5t-192.5 -159.5l304 -570h-342l-269 523h-247zM646 -509h-258l132 358h292z" />
    <glyph glyph-name="rcommaaccent" unicode="&#x157;" horiz-adv-x="891" 
d="M146 0v1103h282v-176h18q22 84 100.5 139t182.5 55q75 0 114 -14v-265q-46 18 -138 18q-121 0 -194.5 -67t-73.5 -182v-611h-291zM283 -509h-258l132 358h292z" />
    <glyph glyph-name="Rcaron" unicode="&#x158;" horiz-adv-x="1422" 
d="M477 1199v-444h265q114 0 177.5 58.5t63.5 162.5q0 103 -66 163t-178 60h-262zM477 523v-523h-302v1443h606q238 0 375 -124t137 -339q0 -140 -69.5 -250.5t-192.5 -159.5l304 -570h-342l-269 523h-247zM525 1590l-281 318h253l145 -173h20l145 173h253l-281 -318h-254z
" />
    <glyph glyph-name="rcaron" unicode="&#x159;" horiz-adv-x="891" 
d="M146 0v1103h282v-176h18q22 84 100.5 139t182.5 55q75 0 114 -14v-265q-46 18 -138 18q-121 0 -194.5 -67t-73.5 -182v-611h-291zM593 1251h-291l-275 354h263l149 -209h18l148 209h263z" />
    <glyph glyph-name="Sacute" unicode="&#x15a;" horiz-adv-x="1383" 
d="M110 401h292q10 -88 92 -140t210 -52q118 0 193 51.5t75 133.5q0 69 -58 112t-191 71l-188 40q-392 82 -392 412q0 204 151 327.5t401 123.5q238 0 391.5 -121t160.5 -314h-284q-11 86 -84 138t-182 52q-114 0 -182.5 -49t-68.5 -131q0 -67 55.5 -108t182.5 -68l174 -37
q217 -46 316 -144t99 -266q0 -218 -156.5 -343.5t-428.5 -125.5q-258 0 -414 118t-164 320zM833 1590h-278l277 318h315z" />
    <glyph glyph-name="sacute" unicode="&#x15b;" horiz-adv-x="1160" 
d="M121 779q0 157 126.5 252.5t332.5 95.5q210 0 329.5 -85t131.5 -243h-269q-11 54 -60.5 84.5t-129.5 30.5q-79 0 -130 -32.5t-51 -84.5q0 -40 36 -66.5t113 -43.5l207 -45q161 -35 235.5 -107t74.5 -195q0 -164 -134 -264t-352 -100t-345 86t-142 245h284
q35 -118 209 -118q85 0 138 32.5t53 85.5q0 41 -33 66.5t-106 41.5l-200 45q-161 35 -239.5 113.5t-78.5 205.5zM694 1281h-269l247 353h309z" />
    <glyph glyph-name="Scircumflex" unicode="&#x15c;" horiz-adv-x="1383" 
d="M110 401h292q10 -88 92 -140t210 -52q118 0 193 51.5t75 133.5q0 69 -58 112t-191 71l-188 40q-392 82 -392 412q0 204 151 327.5t401 123.5q238 0 391.5 -121t160.5 -314h-284q-11 86 -84 138t-182 52q-114 0 -182.5 -49t-68.5 -131q0 -67 55.5 -108t182.5 -68l174 -37
q217 -46 316 -144t99 -266q0 -218 -156.5 -343.5t-428.5 -125.5q-258 0 -414 118t-164 320zM560 1925h272l284 -335h-265l-146 187h-18l-146 -187h-265z" />
    <glyph glyph-name="scircumflex" unicode="&#x15d;" horiz-adv-x="1160" 
d="M121 779q0 157 126.5 252.5t332.5 95.5q210 0 329.5 -85t131.5 -243h-269q-11 54 -60.5 84.5t-129.5 30.5q-79 0 -130 -32.5t-51 -84.5q0 -40 36 -66.5t113 -43.5l207 -45q161 -35 235.5 -107t74.5 -195q0 -164 -134 -264t-352 -100t-345 86t-142 245h284
q35 -118 209 -118q85 0 138 32.5t53 85.5q0 41 -33 66.5t-106 41.5l-200 45q-161 35 -239.5 113.5t-78.5 205.5zM725 1605l275 -354h-263l-148 209h-18l-149 -209h-263l275 354h291z" />
    <glyph glyph-name="Scedilla" unicode="&#x15e;" horiz-adv-x="1383" 
d="M684 879l174 -37q217 -46 316 -144t99 -266q0 -201 -134 -324t-370 -142l-31 -74q95 -5 145.5 -50.5t50.5 -126.5q0 -97 -70 -151t-197 -54q-86 0 -147 18v134q42 -14 116 -14q112 0 112 59q0 30 -30.5 43t-99.5 13h-60v116l38 88q-219 21 -349 136.5t-137 297.5h292
q10 -88 92 -140t210 -52q118 0 193 51.5t75 133.5q0 69 -58 112t-191 71l-188 40q-392 82 -392 412q0 204 151 327.5t401 123.5q238 0 391.5 -121t160.5 -314h-284q-11 86 -84 138t-182 52q-114 0 -182.5 -49t-68.5 -131q0 -67 55.5 -108t182.5 -68z" />
    <glyph glyph-name="scedilla" unicode="&#x15f;" horiz-adv-x="1160" 
d="M550 687l207 -45q161 -35 235.5 -107t74.5 -195q0 -147 -108.5 -243t-291.5 -116l-36 -88q95 -5 145.5 -50.5t50.5 -126.5q0 -97 -70 -151t-197 -54q-86 0 -147 18v134q42 -14 116 -14q112 0 112 59q0 30 -30.5 43t-99.5 13h-60v116l43 100q-180 17 -283.5 101
t-116.5 226h284q35 -118 209 -118q85 0 138 32.5t53 85.5q0 41 -33 66.5t-106 41.5l-200 45q-161 35 -239.5 113.5t-78.5 205.5q0 157 126.5 252.5t332.5 95.5q210 0 329.5 -85t131.5 -243h-269q-11 54 -60.5 84.5t-129.5 30.5q-79 0 -130 -32.5t-51 -84.5q0 -40 36 -66.5
t113 -43.5z" />
    <glyph glyph-name="Scaron" unicode="&#x160;" horiz-adv-x="1383" 
d="M110 401h292q10 -88 92 -140t210 -52q118 0 193 51.5t75 133.5q0 69 -58 112t-191 71l-188 40q-392 82 -392 412q0 204 151 327.5t401 123.5q238 0 391.5 -121t160.5 -314h-284q-11 86 -84 138t-182 52q-114 0 -182.5 -49t-68.5 -131q0 -67 55.5 -108t182.5 -68l174 -37
q217 -46 316 -144t99 -266q0 -218 -156.5 -343.5t-428.5 -125.5q-258 0 -414 118t-164 320zM569 1590l-281 318h253l145 -173h20l145 173h253l-281 -318h-254z" />
    <glyph glyph-name="scaron" unicode="&#x161;" horiz-adv-x="1160" 
d="M121 779q0 157 126.5 252.5t332.5 95.5q210 0 329.5 -85t131.5 -243h-269q-11 54 -60.5 84.5t-129.5 30.5q-79 0 -130 -32.5t-51 -84.5q0 -40 36 -66.5t113 -43.5l207 -45q161 -35 235.5 -107t74.5 -195q0 -164 -134 -264t-352 -100t-345 86t-142 245h284
q35 -118 209 -118q85 0 138 32.5t53 85.5q0 41 -33 66.5t-106 41.5l-200 45q-161 35 -239.5 113.5t-78.5 205.5zM725 1251h-291l-275 354h263l149 -209h18l148 209h263z" />
    <glyph glyph-name="Tcedilla" unicode="&#x162;" horiz-adv-x="1352" 
d="M827 0l-45 -107q95 -5 145.5 -50.5t50.5 -126.5q0 -97 -70 -151t-197 -54q-86 0 -147 18v134q42 -14 116 -14q112 0 112 59q0 30 -30.5 43t-99.5 13h-60v116l52 120h-129v1185h-433v258h1168v-258h-433v-1157v-27v-1z" />
    <glyph glyph-name="tcedilla" unicode="&#x163;" horiz-adv-x="845" 
d="M749 863h-229v-496q0 -72 34.5 -106t108.5 -34q49 0 86 4v-222q-67 -13 -146 -13h-29l-43 -103q95 -5 145.5 -50.5t50.5 -126.5q0 -97 -70 -151t-197 -54q-86 0 -147 18v134q42 -14 116 -14q112 0 112 59q0 30 -30.5 43t-99.5 13h-60v116l60 138q-95 29 -138.5 96.5
t-43.5 183.5v565h-172v229h172v273h291v-273h229v-229z" />
    <glyph glyph-name="Tcaron" unicode="&#x164;" horiz-adv-x="1352" 
d="M827 0h-302v1185h-433v258h1168v-258h-433v-1185zM546 1590l-281 318h253l145 -173h20l145 173h253l-281 -318h-254z" />
    <glyph glyph-name="tcaron" unicode="&#x165;" horiz-adv-x="845" 
d="M623 1735h251l-50 -504h-201v504zM229 1365h291v-273h229v-229h-229v-496q0 -72 34.5 -106t108.5 -34q49 0 86 4v-222q-67 -13 -146 -13q-201 0 -287.5 70t-86.5 232v565h-172v229h172v273z" />
    <glyph glyph-name="Tbar" unicode="&#x166;" horiz-adv-x="1352" 
d="M1260 1185h-433v-384h281v-218h-281v-583h-302v583h-286v218h286v384h-433v258h1168v-258z" />
    <glyph glyph-name="tbar" unicode="&#x167;" horiz-adv-x="843" 
d="M763 492h-243v-125q0 -72 34.5 -106t108.5 -34q49 0 86 4v-222q-67 -13 -146 -13q-201 0 -287.5 70t-86.5 232v194h-173v162h173v209h-172v229h172v273h291v-273h229v-229h-229v-209h243v-162z" />
    <glyph glyph-name="Utilde" unicode="&#x168;" horiz-adv-x="1565" 
d="M480 1443v-914q0 -138 79.5 -218t222.5 -80q144 0 223.5 80t79.5 218v914h302v-945q0 -241 -164.5 -388t-440.5 -147q-275 0 -439.5 147t-164.5 388v945h302zM928 1572q-42 0 -79 15t-62.5 36t-48 42t-45 36t-43.5 15q-86 0 -88 -141h-187q0 145 71.5 233t189.5 88
q42 0 79 -15t62.5 -36t48 -42t45 -36t43.5 -15q87 0 88 138h187q0 -144 -71.5 -231t-189.5 -87z" />
    <glyph glyph-name="utilde" unicode="&#x169;" horiz-adv-x="1290" 
d="M1144 1103v-1103h-282v177h-18q-82 -201 -322 -201q-179 0 -282.5 108.5t-103.5 299.5v719h291v-644q0 -230 203 -230q107 0 165 63t58 175v636h291zM791 1253q-42 0 -79 15t-62.5 36t-48 42t-45 36t-43.5 15q-86 0 -88 -141h-187q0 145 71.5 233t189.5 88q42 0 79 -15
t62.5 -36t48 -42t45 -36t43.5 -15q87 0 88 138h187q0 -144 -71.5 -231t-189.5 -87z" />
    <glyph glyph-name="Umacron" unicode="&#x16a;" horiz-adv-x="1565" 
d="M480 1443v-914q0 -138 79.5 -218t222.5 -80q144 0 223.5 80t79.5 218v914h302v-945q0 -241 -164.5 -388t-440.5 -147q-275 0 -439.5 147t-164.5 388v945h302zM1155 1813v-181h-746v181h746z" />
    <glyph glyph-name="umacron" unicode="&#x16b;" horiz-adv-x="1290" 
d="M1144 1103v-1103h-282v177h-18q-82 -201 -322 -201q-179 0 -282.5 108.5t-103.5 299.5v719h291v-644q0 -230 203 -230q107 0 165 63t58 175v636h291zM1008 1496v-180h-735v180h735z" />
    <glyph glyph-name="Ubreve" unicode="&#x16c;" horiz-adv-x="1565" 
d="M480 1443v-914q0 -138 79.5 -218t222.5 -80q144 0 223.5 80t79.5 218v914h302v-945q0 -241 -164.5 -388t-440.5 -147q-275 0 -439.5 147t-164.5 388v945h302zM382 1915h208q2 -75 53.5 -119.5t138.5 -44.5t138.5 44.5t53.5 119.5h208q0 -150 -108.5 -243t-291.5 -93
t-291.5 93t-108.5 243z" />
    <glyph glyph-name="ubreve" unicode="&#x16d;" horiz-adv-x="1290" 
d="M1144 1103v-1103h-282v177h-18q-82 -201 -322 -201q-179 0 -282.5 108.5t-103.5 299.5v719h291v-644q0 -230 203 -230q107 0 165 63t58 175v636h291zM240 1602h207q2 -81 53 -129.5t139 -48.5t139 48.5t53 129.5h208q0 -156 -108.5 -253.5t-291.5 -97.5t-291 97.5
t-108 253.5z" />
    <glyph glyph-name="Uring" unicode="&#x16e;" horiz-adv-x="1565" 
d="M480 1443v-914q0 -138 79.5 -218t222.5 -80q144 0 223.5 80t79.5 218v914h302v-945q0 -241 -164.5 -388t-440.5 -147q-275 0 -439.5 147t-164.5 388v945h302zM783 1546q-89 0 -147.5 56.5t-58.5 143.5q0 86 58.5 142.5t147.5 56.5q87 0 145.5 -56.5t58.5 -142.5
q0 -87 -58.5 -143.5t-145.5 -56.5zM782 1652q42 0 68.5 26.5t26.5 66.5q0 41 -27 67.5t-68 26.5t-68 -26.5t-27 -67.5q0 -40 27 -66.5t68 -26.5z" />
    <glyph glyph-name="uring" unicode="&#x16f;" horiz-adv-x="1290" 
d="M1144 1103v-1103h-282v177h-18q-82 -201 -322 -201q-179 0 -282.5 108.5t-103.5 299.5v719h291v-644q0 -230 203 -230q107 0 165 63t58 175v636h291zM640 1251q-105 0 -175.5 68.5t-70.5 172.5q0 102 70.5 170t175.5 68t175 -67.5t70 -170.5q0 -104 -70 -172.5
t-175 -68.5zM640 1387q46 0 75.5 29.5t29.5 74.5q0 44 -30 73.5t-75 29.5q-46 0 -76 -29.5t-30 -73.5q0 -46 30 -75t76 -29z" />
    <glyph glyph-name="Uhungarumlaut" unicode="&#x170;" horiz-adv-x="1565" 
d="M480 1443v-914q0 -138 79.5 -218t222.5 -80q144 0 223.5 80t79.5 218v914h302v-945q0 -241 -164.5 -388t-440.5 -147q-275 0 -439.5 147t-164.5 388v945h302zM1095 1590h-244l252 318h270zM658 1590h-244l251 318h271z" />
    <glyph glyph-name="uhungarumlaut" unicode="&#x171;" horiz-adv-x="1290" 
d="M1144 1103v-1103h-282v177h-18q-82 -201 -322 -201q-179 0 -282.5 108.5t-103.5 299.5v719h291v-644q0 -230 203 -230q107 0 165 63t58 175v636h291zM717 1281l212 353h259l-242 -353h-229zM281 1281l212 353h259l-242 -353h-229z" />
    <glyph glyph-name="Uogonek" unicode="&#x172;" horiz-adv-x="1564" 
d="M1056 -466q-123 0 -199 61.5t-76 156.5q0 68 38.5 124.5t93.5 88.5v18q-45 -20 -131 -20q-272 0 -438 146t-166 389v945h302v-914q0 -140 80.5 -219t221.5 -79t222 79t81 219v914h302v-945q0 -262 -241 -466q-139 -119 -139 -217q0 -46 32 -73.5t86 -27.5q47 0 69 8v-167
q-54 -21 -138 -21z" />
    <glyph glyph-name="uogonek" unicode="&#x173;" horiz-adv-x="1290" 
d="M1108 -445q-57 -21 -138 -21q-121 0 -197.5 62.5t-76.5 161.5q0 73 47 138t119 97v184h-18q-82 -201 -322 -201q-179 0 -282.5 108.5t-103.5 299.5v719h291v-644q0 -230 203 -230q107 0 165 63t58 175v636h291v-1103l-36 -7q-81 -21 -134 -71.5t-53 -111.5
q0 -43 31 -69.5t87 -26.5q50 0 69 8v-167z" />
    <glyph glyph-name="Wcircumflex" unicode="&#x174;" horiz-adv-x="2067" 
d="M1025 955l-270 -955h-285l-382 1443h314l225 -1017h16l263 1017h255l268 -1017h16l223 1017h312l-383 -1443h-283l-273 955h-16zM898 1925h272l284 -335h-265l-146 187h-18l-146 -187h-265z" />
    <glyph glyph-name="wcircumflex" unicode="&#x175;" horiz-adv-x="1735" 
d="M1674 1103l-293 -1103h-310l-197 761h-18l-195 -761h-306l-294 1103h295l164 -791h18l193 791h278l194 -791h18l164 791h289zM1015 1605l275 -354h-263l-148 209h-18l-149 -209h-263l275 354h291z" />
    <glyph glyph-name="Ycircumflex" unicode="&#x176;" horiz-adv-x="1452" 
d="M877 0h-302v531l-503 912h327l318 -604h18l317 604h327l-502 -912v-531zM590 1925h272l284 -335h-265l-146 187h-18l-146 -187h-265z" />
    <glyph glyph-name="ycircumflex" unicode="&#x177;" horiz-adv-x="1223" 
d="M283 -401q-93 0 -111 3v234q10 -2 66 -2q83 0 130 28.5t65 90.5l10 40l-387 1110h321l232 -836h18l232 836h308l-380 -1120q-70 -212 -183.5 -298t-320.5 -86zM761 1605l275 -354h-263l-148 209h-18l-149 -209h-263l275 354h291z" />
    <glyph glyph-name="Ydieresis" unicode="&#x178;" horiz-adv-x="1452" 
d="M877 0h-302v531l-503 912h327l318 -604h18l317 604h327l-502 -912v-531zM492 1579q-67 0 -111 43t-44 109t43.5 108.5t111.5 42.5t111.5 -42.5t43.5 -108.5t-44 -109t-111 -43zM960 1579q-67 0 -111 43t-44 109t44 108.5t111 42.5q68 0 112 -42.5t44 -108.5t-44 -109
t-112 -43z" />
    <glyph glyph-name="Zacute" unicode="&#x179;" horiz-adv-x="1384" 
d="M135 0v204l726 963v18h-709v258h1077v-203l-724 -964v-18h744v-258h-1114zM829 1590h-278l277 318h315z" />
    <glyph glyph-name="zacute" unicode="&#x17a;" horiz-adv-x="1160" 
d="M121 0v172l558 681v18h-550v232h898v-192l-526 -661v-18h539v-232h-919zM691 1281h-269l247 353h309z" />
    <glyph glyph-name="Zdotaccent" unicode="&#x17b;" horiz-adv-x="1384" 
d="M135 0v204l726 963v18h-709v258h1077v-203l-724 -964v-18h744v-258h-1114zM692 1579q-69 0 -113.5 45t-44.5 113t44.5 113t113.5 45t113 -45t44 -113t-44 -113t-113 -45z" />
    <glyph glyph-name="zdotaccent" unicode="&#x17c;" horiz-adv-x="1160" 
d="M121 0v172l558 681v18h-550v232h898v-192l-526 -661v-18h539v-232h-919zM577 1278q-70 0 -115.5 45.5t-45.5 114.5t45.5 115t115.5 46t115.5 -46t45.5 -115t-45.5 -114.5t-115.5 -45.5z" />
    <glyph glyph-name="Zcaron" unicode="&#x17d;" horiz-adv-x="1384" 
d="M135 0v204l726 963v18h-709v258h1077v-203l-724 -964v-18h744v-258h-1114zM565 1590l-281 318h253l145 -173h20l145 173h253l-281 -318h-254z" />
    <glyph glyph-name="zcaron" unicode="&#x17e;" horiz-adv-x="1160" 
d="M121 0v172l558 681v18h-550v232h898v-192l-526 -661v-18h539v-232h-919zM722 1251h-291l-275 354h263l149 -209h18l148 209h263z" />
    <glyph glyph-name="uni04D8" unicode="&#x4d8;" horiz-adv-x="1551" 
d="M770 -37q-307 0 -482 197.5t-177 527.5l3 109h999v16q1 177 -100.5 291.5t-260.5 114.5q-237 0 -319 -195h-306q55 213 222.5 334.5t403.5 121.5q308 0 492.5 -207t184.5 -553q0 -225 -82.5 -397t-232.5 -266t-345 -94zM772 224q136 0 229 94.5t109 251.5h-681
q13 -159 105 -252.5t238 -93.5z" />
    <glyph glyph-name="uni04D8" unicode="&#x18f;" horiz-adv-x="1551" 
d="M770 -37q-307 0 -482 197.5t-177 527.5l3 109h999v16q1 177 -100.5 291.5t-260.5 114.5q-237 0 -319 -195h-306q55 213 222.5 334.5t403.5 121.5q308 0 492.5 -207t184.5 -553q0 -225 -82.5 -397t-232.5 -266t-345 -94zM772 224q136 0 229 94.5t109 251.5h-681
q13 -159 105 -252.5t238 -93.5z" />
    <glyph glyph-name="florin" unicode="&#x192;" horiz-adv-x="1415" 
d="M1301 1444v-245q-66 18 -168 18q-103 0 -159.5 -47t-71.5 -143l-24 -155h349v-217h-383l-42 -271q-33 -211 -150.5 -309.5t-328.5 -98.5q-121 0 -216 23v246q87 -26 179 -26q90 0 145.5 45t69.5 135l40 256h-316v217h350l29 188q63 399 495 399q121 0 202 -15z" />
    <glyph glyph-name="Ohorn" unicode="&#x1a0;" horiz-adv-x="1665" 
d="M806 -37q-321 0 -508 204t-187 555q0 350 188 554t507 204q89 0 221.5 -25.5t210.5 -25.5q57 0 82.5 22t25.5 67v165h231v-235q0 -99 -55 -154t-152 -55h-61v-16q85 -64 137.5 -202t52.5 -299q0 -351 -186.5 -555t-506.5 -204zM806 228q176 0 280.5 134t104.5 360
t-104.5 359.5t-280.5 133.5t-281 -133.5t-105 -359.5t104.5 -360t281.5 -134z" />
    <glyph glyph-name="ohorn" unicode="&#x1a1;" horiz-adv-x="1368" 
d="M635 214q116 0 180 88.5t64 249.5q0 159 -64.5 248t-179.5 89t-179.5 -89t-64.5 -248q0 -161 64 -249.5t180 -88.5zM1178 552q0 -271 -144 -423.5t-399 -152.5t-399 153t-144 423q0 267 145.5 421t397.5 154q76 0 161 -18.5t132 -18.5q61 0 85.5 19t24.5 65v146h231v-223
q0 -92 -47.5 -142t-132.5 -50h-46v-15q59 -39 97 -133.5t38 -204.5z" />
    <glyph glyph-name="Uhorn" unicode="&#x1af;" horiz-adv-x="1750" 
d="M782 -37q-273 0 -438.5 146t-165.5 389v945h302v-914q0 -139 80.5 -218.5t221.5 -79.5t222 79t81 219v914h313q79 0 79 76v184h231v-244q0 -103 -61 -159.5t-166 -56.5h-94v-745q0 -243 -165.5 -389t-439.5 -146z" />
    <glyph glyph-name="uhorn" unicode="&#x1b0;" horiz-adv-x="1508" 
d="M844 177q-82 -201 -322 -201q-181 0 -283.5 109.5t-102.5 298.5v719h291v-644q0 -230 203 -230q107 0 165 63t58 175v636h291q79 0 79 76v159h231v-219q0 -103 -61 -159.5t-166 -56.5h-83v-903h-282v177h-18z" />
    <glyph glyph-name="uni01C4" unicode="&#x1c4;" horiz-adv-x="2924" 
d="M175 1444h568q322 0 499.5 -186.5t177.5 -525.5q0 -351 -176.5 -541.5t-500.5 -190.5h-568v1444zM477 1186v-928h218q201 0 309 120.5t108 348.5q0 218 -110 338.5t-307 120.5h-218zM1675 0v204l726 963v18h-709v258h1077v-203l-724 -964v-18h744v-258h-1114zM2105 1590
l-281 318h253l145 -173h20l145 173h253l-281 -318h-254z" />
    <glyph glyph-name="uni01C5" unicode="&#x1c5;" horiz-adv-x="2700" 
d="M175 1444h568q322 0 499.5 -186.5t177.5 -525.5q0 -351 -176.5 -541.5t-500.5 -190.5h-568v1444zM477 1186v-928h218q201 0 309 120.5t108 348.5q0 218 -110 338.5t-307 120.5h-218zM1661 0v172l558 681v18h-550v232h898v-192l-526 -661v-18h539v-232h-919zM2262 1251
h-291l-275 354h263l149 -209h18l148 209h263z" />
    <glyph glyph-name="uni01C6" unicode="&#x1c6;" horiz-adv-x="2503" 
d="M541 -17q-208 0 -328.5 153t-120.5 417q0 263 120.5 415.5t328.5 152.5q112 0 199 -51.5t130 -142.5h17v597h291v-1524h-282v173h-18q-44 -89 -133 -139.5t-204 -50.5zM640 877q-116 0 -182.5 -86.5t-66.5 -238.5q0 -153 66 -239.5t183 -86.5t183.5 86.5t66.5 238.5
q0 151 -67 238.5t-183 87.5zM1464 0v172l558 681v18h-550v232h898v-192l-526 -661v-18h539v-232h-919zM2065 1251h-291l-275 354h263l149 -209h18l148 209h263z" />
    <glyph glyph-name="uni01C7" unicode="&#x1c7;" horiz-adv-x="2444" 
d="M1119 263v-263h-944v1443h302v-1180h642zM1289 424h292q2 -87 54.5 -139t139.5 -52q93 0 142.5 55.5t49.5 161.5v993h302v-995q0 -232 -129.5 -358.5t-360.5 -126.5q-223 0 -356.5 125t-133.5 336z" />
    <glyph glyph-name="uni01C8" unicode="&#x1c8;" horiz-adv-x="1810" 
d="M1119 263v-263h-944v1443h302v-1180h642zM1652 1103v-1137q0 -169 -99 -255.5t-291 -86.5q-54 0 -78 4v223q6 -1 37 -1q76 0 108 29t32 95v1129h291zM1507 1257q-78 0 -125 41t-47 106q0 66 47 106.5t125 40.5t125 -40.5t47 -106.5q0 -65 -47.5 -106t-124.5 -41z" />
    <glyph glyph-name="uni01C9" unicode="&#x1c9;" horiz-adv-x="1194" 
d="M156 0v1524h291v-1524h-291zM1036 1103v-1137q0 -169 -99 -255.5t-291 -86.5q-54 0 -78 4v223q6 -1 37 -1q76 0 108 29t32 95v1129h291zM891 1257q-78 0 -125 41t-47 106q0 66 47 106.5t125 40.5t125 -40.5t47 -106.5q0 -65 -47.5 -106t-124.5 -41z" />
    <glyph glyph-name="uni01CA" unicode="&#x1ca;" horiz-adv-x="2804" 
d="M464 0h-289v1443h252l664 -899h18v899h289v-1443h-250l-666 903h-18v-903zM1649 424h292q2 -87 54.5 -139t139.5 -52q93 0 142.5 55.5t49.5 161.5v993h302v-995q0 -232 -129.5 -358.5t-360.5 -126.5q-223 0 -356.5 125t-133.5 336z" />
    <glyph glyph-name="uni01CB" unicode="&#x1cb;" horiz-adv-x="2170" 
d="M464 0h-289v1443h252l664 -899h18v899h289v-1443h-250l-666 903h-18v-903zM2012 1103v-1137q0 -169 -99 -255.5t-291 -86.5q-54 0 -78 4v223q6 -1 37 -1q76 0 108 29t32 95v1129h291zM1867 1257q-78 0 -125 41t-47 106q0 66 47 106.5t125 40.5t125 -40.5t47 -106.5
q0 -65 -47.5 -106t-124.5 -41z" />
    <glyph glyph-name="uni01CC" unicode="&#x1cc;" horiz-adv-x="1872" 
d="M146 0v1103h282v-177h18q39 95 122.5 148t203.5 53q183 0 280 -107.5t97 -306.5v-713h-291v644q0 232 -203 232q-101 0 -159.5 -65.5t-58.5 -174.5v-636h-291zM1724 1103v-1137q0 -169 -99 -255.5t-291 -86.5q-54 0 -78 4v223q6 -1 37 -1q76 0 108 29t32 95v1129h291z
M1579 1257q-78 0 -125 41t-47 106q0 66 47 106.5t125 40.5t125 -40.5t47 -106.5q0 -65 -47.5 -106t-124.5 -41z" />
    <glyph glyph-name="Acaron" unicode="&#x1cd;" horiz-adv-x="1500" 
d="M1102 0l-109 344h-507l-111 -344h-303l501 1443h355l501 -1443h-327zM732 1143l-181 -566h378l-179 566h-18zM623 1590l-281 318h253l145 -173h20l145 173h253l-281 -318h-254z" />
    <glyph glyph-name="acaron" unicode="&#x1ce;" horiz-adv-x="1208" 
d="M544 202q101 0 169 57t68 141v81l-223 -14q-186 -13 -186 -133q0 -61 47.5 -96.5t124.5 -35.5zM448 -17q-160 0 -260.5 91t-100.5 241q0 149 110.5 234.5t316.5 97.5l267 16v90q0 69 -48 106.5t-138 37.5q-162 0 -199 -102h-268q14 153 144.5 242.5t338.5 89.5
q218 0 337.5 -98t119.5 -276v-753h-282v144h-18q-43 -76 -128 -118.5t-192 -42.5zM756 1251h-291l-275 354h263l149 -209h18l148 209h263z" />
    <glyph glyph-name="Icaron" unicode="&#x1cf;" horiz-adv-x="652" 
d="M477 0h-302v1443h302v-1443zM199 1590l-281 318h253l145 -173h20l145 173h253l-281 -318h-254z" />
    <glyph glyph-name="icaron" unicode="&#x1d0;" horiz-adv-x="587" 
d="M148 0v1103h291v-1103h-291zM439 1251h-291l-275 354h263l149 -209h18l148 209h263z" />
    <glyph glyph-name="Ocaron" unicode="&#x1d1;" horiz-adv-x="1610" 
d="M806 1480q320 0 506.5 -204t186.5 -554q0 -351 -186.5 -555t-506.5 -204q-321 0 -508 204t-187 555q0 350 188 554t507 204zM806 1215q-176 0 -281 -133.5t-105 -359.5t104.5 -360t281.5 -134q176 0 280.5 134t104.5 360t-104.5 359.5t-280.5 133.5zM679 1590l-281 318
h253l145 -173h20l145 173h253l-281 -318h-254z" />
    <glyph glyph-name="ocaron" unicode="&#x1d2;" horiz-adv-x="1269" 
d="M635 -24q-254 0 -398.5 153t-144.5 423q0 268 145.5 421.5t397.5 153.5t397.5 -153.5t145.5 -421.5q0 -270 -144.5 -423t-398.5 -153zM635 214q116 0 180 88.5t64 249.5q0 159 -64.5 248t-179.5 89q-116 0 -180 -89t-64 -248q0 -161 63.5 -249.5t180.5 -88.5zM780 1251
h-291l-275 354h263l149 -209h18l148 209h263z" />
    <glyph glyph-name="Ucaron" unicode="&#x1d3;" horiz-adv-x="1565" 
d="M480 1443v-914q0 -138 79.5 -218t222.5 -80q144 0 223.5 80t79.5 218v914h302v-945q0 -241 -164.5 -388t-440.5 -147q-275 0 -439.5 147t-164.5 388v945h302zM655 1590l-281 318h253l145 -173h20l145 173h253l-281 -318h-254z" />
    <glyph glyph-name="ucaron" unicode="&#x1d4;" horiz-adv-x="1290" 
d="M1144 1103v-1103h-282v177h-18q-82 -201 -322 -201q-179 0 -282.5 108.5t-103.5 299.5v719h291v-644q0 -230 203 -230q107 0 165 63t58 175v636h291zM785 1251h-291l-275 354h263l149 -209h18l148 209h263z" />
    <glyph glyph-name="Udieresismacron" unicode="&#x1d5;" horiz-adv-x="1565" 
d="M480 1443v-914q0 -138 79.5 -218t222.5 -80q144 0 223.5 80t79.5 218v914h302v-945q0 -241 -164.5 -388t-440.5 -147q-275 0 -439.5 147t-164.5 388v945h302zM548 1879q66 0 109.5 -42.5t43.5 -107.5t-43.5 -107.5t-109.5 -42.5q-67 0 -110.5 42.5t-43.5 107.5
t43.5 107.5t110.5 42.5zM409 2164h746v-168h-746v168zM1016 1879q67 0 110.5 -42.5t43.5 -107.5t-43.5 -107.5t-110.5 -42.5q-66 0 -109.5 42.5t-43.5 107.5t43.5 107.5t109.5 42.5z" />
    <glyph glyph-name="udieresismacron" unicode="&#x1d6;" horiz-adv-x="1290" 
d="M1144 1103v-1103h-282v177h-18q-82 -201 -322 -201q-179 0 -282.5 108.5t-103.5 299.5v719h291v-644q0 -230 203 -230q107 0 165 63t58 175v636h291zM419 1251q-64 0 -105.5 42t-41.5 103q0 62 41.5 103.5t105.5 41.5q63 0 104 -41.5t41 -103.5q0 -61 -41 -103t-104 -42z
M861 1251q-63 0 -104 42t-41 103q0 62 41 103.5t104 41.5q64 0 105.5 -41.5t41.5 -103.5q0 -61 -41.5 -103t-105.5 -42zM1008 1858v-180h-735v180h735z" />
    <glyph glyph-name="Udieresisacute" unicode="&#x1d7;" horiz-adv-x="1565" 
d="M480 1443v-914q0 -138 79.5 -218t222.5 -80q144 0 223.5 80t79.5 218v914h302v-945q0 -241 -164.5 -388t-440.5 -147q-275 0 -439.5 147t-164.5 388v945h302zM662 1937l166 242h292l-218 -242h-240zM548 1579q-68 0 -112 43t-44 109t44 109t112 43q67 0 111 -43t44 -109
t-44 -109t-111 -43zM1016 1579q-67 0 -111 43t-44 109t44 109t111 43q68 0 112 -43t44 -109t-44 -109t-112 -43z" />
    <glyph glyph-name="udieresisacute" unicode="&#x1d8;" horiz-adv-x="1290" 
d="M1144 1103v-1103h-282v177h-18q-82 -201 -322 -201q-179 0 -282.5 108.5t-103.5 299.5v719h291v-644q0 -230 203 -230q107 0 165 63t58 175v636h291zM512 1640l207 319h281l-247 -319h-241zM406 1254q-67 0 -111 43t-44 109t43.5 108.5t111.5 42.5t111.5 -42.5
t43.5 -108.5t-44 -109t-111 -43zM874 1254q-67 0 -111 43t-44 109t44 108.5t111 42.5q68 0 112 -42.5t44 -108.5t-44 -109t-112 -43z" />
    <glyph glyph-name="Udieresiscaron" unicode="&#x1d9;" horiz-adv-x="1565" 
d="M480 1443v-914q0 -138 79.5 -218t222.5 -80q144 0 223.5 80t79.5 218v914h302v-945q0 -241 -164.5 -388t-440.5 -147q-275 0 -439.5 147t-164.5 388v945h302zM647 1910l-278 300h263l140 -166h20l140 166h263l-278 -300h-270zM548 1853q66 0 108.5 -41t42.5 -103
q0 -63 -42.5 -104t-108.5 -41t-109 41t-43 104q0 62 43 103t109 41zM1016 1853q66 0 109 -41t43 -103q0 -63 -43 -104t-109 -41t-108.5 41t-42.5 104q0 62 42.5 103t108.5 41z" />
    <glyph glyph-name="udieresiscaron" unicode="&#x1da;" horiz-adv-x="1290" 
d="M1144 1103v-1103h-282v177h-18q-82 -201 -322 -201q-179 0 -282.5 108.5t-103.5 299.5v719h291v-644q0 -230 203 -230q107 0 165 63t58 175v636h291zM419 1251q-64 0 -105.5 42t-41.5 103q0 62 41.5 103.5t105.5 41.5q63 0 104 -41.5t41 -103.5q0 -61 -41 -103t-104 -42z
M861 1251q-63 0 -104 42t-41 103q0 62 41 103.5t104 41.5q64 0 105.5 -41.5t41.5 -103.5q0 -61 -41.5 -103t-105.5 -42zM777 1622h-274l-272 347h252l148 -208h18l148 208h252z" />
    <glyph glyph-name="Udieresisgrave" unicode="&#x1db;" horiz-adv-x="1565" 
d="M480 1443v-914q0 -138 79.5 -218t222.5 -80q144 0 223.5 80t79.5 218v914h302v-945q0 -241 -164.5 -388t-440.5 -147q-275 0 -439.5 147t-164.5 388v945h302zM911 1937h-240l-218 242h292zM548 1579q-68 0 -112 43t-44 109t44 109t112 43q67 0 111 -43t44 -109t-44 -109
t-111 -43zM1016 1579q-67 0 -111 43t-44 109t44 109t111 43q68 0 112 -43t44 -109t-44 -109t-112 -43z" />
    <glyph glyph-name="udieresisgrave" unicode="&#x1dc;" horiz-adv-x="1290" 
d="M1144 1103v-1103h-282v177h-18q-82 -201 -322 -201q-179 0 -282.5 108.5t-103.5 299.5v719h291v-644q0 -230 203 -230q107 0 165 63t58 175v636h291zM768 1640h-241l-247 319h281zM406 1258q-67 0 -111 43t-44 109t43.5 108.5t111.5 42.5t111.5 -42.5t43.5 -108.5
t-44 -109t-111 -43zM874 1258q-67 0 -111 43t-44 109t44 108.5t111 42.5q68 0 112 -42.5t44 -108.5t-44 -109t-112 -43z" />
    <glyph glyph-name="uni04D9" unicode="&#x4d9;" horiz-adv-x="1251" 
d="M619 200q102 0 167.5 66t71.5 176h-472q2 -112 65 -177t168 -65zM383 789h-270q38 155 171.5 246.5t329.5 91.5q248 0 391.5 -152t143.5 -414q0 -274 -140.5 -429.5t-389.5 -155.5q-248 0 -384 153t-136 432l3 67h757v10q0 122 -68.5 194t-182.5 72q-169 0 -225 -115z
" />
    <glyph glyph-name="uni04D9" unicode="&#x259;" horiz-adv-x="1251" 
d="M619 200q102 0 167.5 66t71.5 176h-472q2 -112 65 -177t168 -65zM383 789h-270q38 155 171.5 246.5t329.5 91.5q248 0 391.5 -152t143.5 -414q0 -274 -140.5 -429.5t-389.5 -155.5q-248 0 -384 153t-136 432l3 67h757v10q0 122 -68.5 194t-182.5 72q-169 0 -225 -115z
" />
    <glyph glyph-name="uni04D9" unicode="&#x1dd;" horiz-adv-x="1251" 
d="M619 200q102 0 167.5 66t71.5 176h-472q2 -112 65 -177t168 -65zM383 789h-270q38 155 171.5 246.5t329.5 91.5q248 0 391.5 -152t143.5 -414q0 -274 -140.5 -429.5t-389.5 -155.5q-248 0 -384 153t-136 432l3 67h757v10q0 122 -68.5 194t-182.5 72q-169 0 -225 -115z
" />
    <glyph glyph-name="Adieresismacron" unicode="&#x1de;" horiz-adv-x="1500" 
d="M1102 0l-109 344h-507l-111 -344h-303l501 1443h355l501 -1443h-327zM732 1143l-181 -566h378l-179 566h-18zM516 1879q66 0 109.5 -42.5t43.5 -107.5t-43.5 -107.5t-109.5 -42.5q-67 0 -110.5 42.5t-43.5 107.5t43.5 107.5t110.5 42.5zM377 2164h746v-168h-746v168z
M984 1879q67 0 110.5 -42.5t43.5 -107.5t-43.5 -107.5t-110.5 -42.5q-66 0 -109.5 42.5t-43.5 107.5t43.5 107.5t109.5 42.5z" />
    <glyph glyph-name="adieresismacron" unicode="&#x1df;" horiz-adv-x="1208" 
d="M544 202q101 0 169 57t68 141v81l-223 -14q-186 -13 -186 -133q0 -61 47.5 -96.5t124.5 -35.5zM448 -17q-160 0 -260.5 91t-100.5 241q0 149 110.5 234.5t316.5 97.5l267 16v90q0 69 -48 106.5t-138 37.5q-162 0 -199 -102h-268q14 153 144.5 242.5t338.5 89.5
q218 0 337.5 -98t119.5 -276v-753h-282v144h-18q-43 -76 -128 -118.5t-192 -42.5zM390 1251q-64 0 -105.5 42t-41.5 103q0 62 41.5 103.5t105.5 41.5q63 0 104 -41.5t41 -103.5q0 -61 -41 -103t-104 -42zM832 1251q-63 0 -104 42t-41 103q0 62 41 103.5t104 41.5
q64 0 105.5 -41.5t41.5 -103.5q0 -61 -41.5 -103t-105.5 -42zM979 1858v-180h-735v180h735z" />
    <glyph glyph-name="Adotmacron" unicode="&#x1e0;" horiz-adv-x="1500" 
d="M1102 0l-109 344h-507l-111 -344h-303l501 1443h355l501 -1443h-327zM732 1143l-181 -566h378l-179 566h-18zM750 1575q-68 0 -112 42.5t-44 107.5q0 64 44 106t112 42t112 -42t44 -106q0 -65 -44 -107.5t-112 -42.5zM1123 2164v-168h-746v168h746z" />
    <glyph glyph-name="adotmacron" unicode="&#x1e1;" horiz-adv-x="1208" 
d="M544 202q101 0 169 57t68 141v81l-223 -14q-186 -13 -186 -133q0 -61 47.5 -96.5t124.5 -35.5zM448 -17q-160 0 -260.5 91t-100.5 241q0 149 110.5 234.5t316.5 97.5l267 16v90q0 69 -48 106.5t-138 37.5q-162 0 -199 -102h-268q14 153 144.5 242.5t338.5 89.5
q218 0 337.5 -98t119.5 -276v-753h-282v144h-18q-43 -76 -128 -118.5t-192 -42.5zM611 1251q-66 0 -108.5 42.5t-42.5 106.5q0 65 42.5 108t108.5 43t108.5 -43t42.5 -108q0 -64 -42.5 -106.5t-108.5 -42.5zM979 1858v-180h-735v180h735z" />
    <glyph glyph-name="AEmacron" unicode="&#x1e2;" horiz-adv-x="2059" 
d="M861 1202l-249 -604h378v604h-129zM990 0v364h-465l-154 -364h-299l595 1443h1250v-258h-651v-341h614v-239h-614v-347h651v-258h-927zM1896 1813v-181h-746v181h746z" />
    <glyph glyph-name="aemacron" unicode="&#x1e3;" horiz-adv-x="1902" 
d="M1315 -24q-130 0 -235 53.5t-156 144.5h-18q-64 -93 -169.5 -145.5t-237.5 -52.5q-187 0 -299.5 94t-112.5 245q0 149 110.5 234.5t316.5 97.5l267 16v73q0 80 -49.5 120.5t-136.5 40.5q-162 0 -199 -102h-268q13 146 139 239t313 93q251 0 357 -158h18q58 72 151.5 115
t204.5 43q228 0 360 -148t132 -401v-94h-747v-26q4 -117 74 -187.5t182 -70.5q155 0 212 114h269q-33 -156 -161 -247t-317 -91zM1293 904q-102 0 -166.5 -64.5t-70.5 -170.5h462q-4 105 -66.5 170t-158.5 65zM549 199q103 0 167.5 58t64.5 140v84l-223 -14
q-186 -13 -186 -135q0 -62 48.5 -97.5t128.5 -35.5zM1351 1496v-180h-735v180h735z" />
    <glyph glyph-name="Gcaron" unicode="&#x1e6;" horiz-adv-x="1557" 
d="M1443 589q0 -289 -172 -457.5t-468 -168.5q-322 0 -507 203t-185 557q0 349 185 553t500 204q256 0 429 -136t205 -361h-300q-34 110 -121 170.5t-213 60.5q-175 0 -275.5 -130.5t-100.5 -357.5q0 -231 104.5 -364t283.5 -133q148 0 242 80t99 211l1 26h-313v227h606
v-184zM669 1591l-281 318h253l145 -173h20l145 173h253l-281 -318h-254z" />
    </font>
</defs>
</svg>
